<?xml version="1.0" encoding="UTF-8"?>
<svg xmlns="http://www.w3.org/2000/svg" xmlns:xlink="http://www.w3.org/1999/xlink" width="2108" height="3001" viewBox="0 0 2108 3001">
<path fill-rule="nonzero" fill="currentColor" fill-opacity="1" d="M 445.40625 527.199219 C 421.640625 517.089844 394.171875 528.148438 384.0625 551.921875 C 373.949219 575.679688 385.015625 603.148438 408.78125 613.261719 C 417.785156 617.121094 426.683594 620.839844 435.527344 624.488281 L 435.527344 1484.921875 C 418 1481.71875 399.417969 1488.738281 388.644531 1504.339844 C 373.980469 1525.570312 379.308594 1554.679688 400.539062 1569.351562 C 721.332031 1790.148438 914.855469 1727.890625 1140.671875 1655.230469 C 1354.871094 1586.300781 1600.871094 1507.191406 2038.859375 1694.21875 C 2045.261719 1697.5 2052.519531 1699.351562 2060.210938 1699.351562 C 2086.089844 1699.351562 2107.078125 1678.359375 2107.078125 1652.46875 L 2107.078125 691.800781 C 2107.070312 676.910156 2099.980469 662.28125 2086.789062 653.191406 L 2086.699219 653.320312 C 1765.949219 432.558594 1572.429688 494.820312 1346.628906 567.46875 C 1131.929688 636.550781 885.300781 715.898438 445.40625 527.199219 "/>
<path fill-rule="nonzero" fill="currentColor" fill-opacity="1" d="M 473.964844 376.921875 C 473.964844 351.039062 452.976562 330.050781 427.085938 330.050781 C 401.195312 330.050781 380.207031 351.039062 380.207031 376.921875 L 380.207031 2584.308594 C 380.207031 2610.195312 401.195312 2631.1875 427.085938 2631.1875 C 452.976562 2631.1875 473.964844 2610.195312 473.964844 2584.308594 L 473.964844 376.921875 "/>
<path fill-rule="nonzero" fill="currentColor" fill-opacity="1" d="M 806.378906 3000.996094 L 47.789062 3000.996094 C 21.898438 3000.996094 0.90625 2980.007812 0.90625 2954.117188 L 0.90625 2954.109375 C 0.90625 2839.480469 47.773438 2735.289062 123.277344 2659.796875 C 198.773438 2584.300781 302.960938 2537.425781 417.589844 2537.425781 L 436.574219 2537.425781 C 551.203125 2537.425781 655.394531 2584.300781 730.890625 2659.796875 C 806.386719 2735.289062 853.257812 2839.480469 853.257812 2954.109375 L 853.257812 2954.117188 C 853.257812 2980.007812 832.265625 3000.996094 806.378906 3000.996094 "/>
<path fill-rule="nonzero" fill="currentColor" fill-opacity="1" d="M 423.875 1 C 540.527344 1 635.296875 95.738281 635.296875 212.421875 C 635.296875 329.03125 540.390625 423.851562 423.875 423.851562 C 365.5 423.851562 312.636719 400.171875 274.378906 361.910156 L 274.371094 361.921875 C 273.382812 360.929688 272.449219 359.910156 271.5625 358.859375 C 234.953125 320.761719 212.445312 269.140625 212.445312 212.421875 C 212.445312 154.050781 236.121094 101.179688 274.378906 62.929688 C 312.636719 24.671875 365.5 1 423.875 1 "/>
</svg>
