<?xml version="1.0" encoding="UTF-8"?>
<svg xmlns="http://www.w3.org/2000/svg" xmlns:xlink="http://www.w3.org/1999/xlink" width="64px" height="64px" viewBox="0 0 64 63" version="1.1">
<g id="surface1">
<path style=" stroke:none;fill-rule:nonzero;fill:rgb(98.039216%,76.470588%,1.568627%);fill-opacity:1;" d="M 13.40625 2.558594 C 13.457031 2.558594 13.511719 2.558594 13.566406 2.558594 C 13.621094 2.558594 13.679688 2.558594 13.738281 2.558594 C 13.800781 2.558594 13.859375 2.558594 13.921875 2.558594 C 14.09375 2.558594 14.261719 2.558594 14.429688 2.558594 C 14.613281 2.558594 14.796875 2.558594 14.976562 2.558594 L 17.296875 2.558594 C 18.082031 2.558594 18.871094 2.558594 19.65625 2.558594 L 21.683594 2.558594 C 22.46875 2.558594 23.25 2.558594 24.035156 2.558594 L 26.339844 2.558594 C 26.519531 2.558594 26.703125 2.558594 26.882812 2.558594 C 27.078125 2.558594 27.273438 2.558594 27.46875 2.558594 C 27.523438 2.558594 27.582031 2.558594 27.640625 2.558594 C 27.695312 2.558594 27.746094 2.558594 27.800781 2.558594 L 27.9375 2.558594 C 28.050781 2.5625 28.050781 2.5625 28.199219 2.613281 C 28.207031 2.679688 28.207031 2.679688 28.210938 2.746094 C 28.277344 3.1875 28.4375 3.601562 28.648438 3.992188 L 28.648438 4.089844 L 28.75 4.089844 C 28.792969 4.160156 28.792969 4.160156 28.839844 4.226562 C 29.121094 4.636719 29.699219 4.953125 30.183594 5.058594 C 30.390625 5.082031 30.59375 5.085938 30.800781 5.085938 C 30.839844 5.085938 30.878906 5.089844 30.917969 5.089844 C 31.523438 5.089844 32.167969 4.75 32.601562 4.339844 C 32.992188 3.886719 33.207031 3.367188 33.277344 2.78125 C 33.300781 2.664062 33.300781 2.664062 33.398438 2.5625 C 33.496094 2.550781 33.496094 2.550781 33.617188 2.550781 L 33.757812 2.550781 C 33.804688 2.550781 33.855469 2.550781 33.90625 2.550781 C 33.960938 2.550781 34.015625 2.550781 34.070312 2.550781 C 34.242188 2.546875 34.417969 2.546875 34.597656 2.546875 C 34.71875 2.546875 34.839844 2.546875 34.964844 2.546875 C 35.21875 2.546875 35.476562 2.546875 35.734375 2.546875 C 36.0625 2.546875 36.390625 2.546875 36.71875 2.546875 C 36.972656 2.546875 37.226562 2.546875 37.476562 2.546875 C 37.597656 2.546875 37.71875 2.546875 37.839844 2.542969 C 38.5 2.542969 39.109375 2.566406 39.75 2.710938 C 39.898438 2.730469 40.050781 2.746094 40.199219 2.761719 C 40.285156 2.773438 40.367188 2.792969 40.449219 2.808594 C 40.484375 2.816406 40.515625 2.824219 40.550781 2.828125 C 40.789062 2.878906 41.015625 2.945312 41.246094 3.023438 C 41.378906 3.066406 41.511719 3.089844 41.648438 3.105469 L 41.648438 3.203125 C 41.683594 3.210938 41.714844 3.214844 41.75 3.222656 C 42.027344 3.273438 42.273438 3.328125 42.519531 3.472656 C 42.652344 3.554688 42.652344 3.554688 42.804688 3.613281 C 43.035156 3.710938 43.253906 3.824219 43.476562 3.9375 C 43.515625 3.957031 43.554688 3.980469 43.597656 4 C 43.847656 4.128906 44.074219 4.273438 44.300781 4.4375 C 44.371094 4.476562 44.441406 4.515625 44.515625 4.550781 C 44.785156 4.695312 45.015625 4.882812 45.25 5.078125 C 45.34375 5.152344 45.4375 5.226562 45.53125 5.300781 C 45.621094 5.375 45.710938 5.449219 45.800781 5.519531 C 45.835938 5.550781 45.875 5.582031 45.910156 5.613281 C 46.117188 5.785156 46.296875 5.96875 46.472656 6.171875 C 46.535156 6.242188 46.601562 6.3125 46.667969 6.378906 C 46.78125 6.492188 46.890625 6.605469 46.996094 6.726562 C 47.265625 7.019531 47.550781 7.300781 47.832031 7.582031 C 47.890625 7.636719 47.949219 7.695312 48.007812 7.75 C 48.160156 7.902344 48.3125 8.054688 48.46875 8.207031 C 48.632812 8.367188 48.792969 8.527344 48.953125 8.683594 L 49.875 9.589844 C 50.222656 9.933594 50.570312 10.277344 50.917969 10.617188 C 51.511719 11.203125 52.105469 11.789062 52.703125 12.375 L 52.777344 12.453125 L 52.980469 12.648438 C 53.179688 12.84375 53.378906 13.042969 53.578125 13.242188 C 53.796875 13.457031 54.015625 13.671875 54.230469 13.886719 C 54.363281 14.015625 54.496094 14.144531 54.625 14.277344 C 54.753906 14.402344 54.882812 14.527344 55.007812 14.65625 C 55.058594 14.703125 55.105469 14.75 55.152344 14.796875 C 55.410156 15.050781 55.671875 15.296875 55.949219 15.527344 C 56.011719 15.589844 56.070312 15.65625 56.125 15.722656 C 56.402344 16.0625 56.402344 16.0625 56.75 16.316406 L 56.75 16.414062 C 56.777344 16.429688 56.808594 16.441406 56.839844 16.453125 C 56.964844 16.523438 57.046875 16.601562 57.148438 16.703125 C 57.261719 16.820312 57.371094 16.925781 57.5 17.027344 C 57.53125 17.050781 57.566406 17.078125 57.601562 17.105469 L 57.601562 17.203125 L 57.699219 17.203125 C 57.769531 17.269531 57.769531 17.269531 57.851562 17.367188 C 57.882812 17.402344 57.914062 17.441406 57.945312 17.476562 C 57.980469 17.515625 58.015625 17.558594 58.050781 17.597656 C 58.105469 17.664062 58.105469 17.664062 58.160156 17.730469 C 58.273438 17.867188 58.386719 18.003906 58.5 18.140625 C 58.535156 18.183594 58.570312 18.226562 58.605469 18.269531 C 58.636719 18.308594 58.671875 18.347656 58.703125 18.390625 C 58.730469 18.425781 58.761719 18.460938 58.789062 18.496094 C 58.851562 18.585938 58.851562 18.585938 58.851562 18.683594 L 58.949219 18.683594 C 59.007812 18.757812 59.007812 18.757812 59.070312 18.863281 C 59.09375 18.898438 59.117188 18.9375 59.140625 18.976562 L 59.214844 19.097656 C 59.238281 19.136719 59.261719 19.175781 59.289062 19.214844 C 59.53125 19.613281 59.757812 20.011719 59.953125 20.433594 C 59.980469 20.488281 59.980469 20.488281 60.003906 20.542969 C 60.039062 20.617188 60.074219 20.6875 60.105469 20.757812 C 60.140625 20.832031 60.175781 20.90625 60.210938 20.980469 C 60.445312 21.472656 60.601562 22 60.714844 22.53125 C 60.746094 22.679688 60.746094 22.679688 60.800781 22.824219 C 60.847656 22.964844 60.867188 23.085938 60.878906 23.230469 C 60.890625 23.402344 60.890625 23.402344 60.949219 23.5625 C 60.964844 23.691406 60.976562 23.820312 60.984375 23.945312 C 60.988281 24.054688 60.988281 24.054688 61.050781 24.105469 C 61.054688 24.222656 61.054688 24.339844 61.054688 24.457031 L 61.054688 24.566406 C 61.054688 24.6875 61.054688 24.808594 61.054688 24.929688 L 61.054688 25.847656 C 61.054688 26.070312 61.054688 26.296875 61.050781 26.523438 C 61.050781 26.964844 61.050781 27.410156 61.050781 27.851562 C 60.988281 27.863281 60.925781 27.878906 60.863281 27.890625 C 60.78125 27.910156 60.699219 27.925781 60.617188 27.945312 C 60.574219 27.953125 60.535156 27.960938 60.492188 27.96875 C 60.195312 28.03125 59.949219 28.121094 59.699219 28.296875 L 59.59375 28.363281 C 59.089844 28.714844 58.765625 29.191406 58.601562 29.773438 C 58.589844 29.808594 58.578125 29.839844 58.570312 29.875 C 58.382812 30.523438 58.597656 31.121094 58.902344 31.699219 C 59.253906 32.300781 59.765625 32.582031 60.398438 32.832031 L 61.050781 32.929688 L 61.050781 38.597656 L 60.101562 38.699219 C 59.214844 38.996094 58.21875 39.46875 57.699219 40.273438 C 57.667969 40.324219 57.636719 40.371094 57.601562 40.421875 C 57.101562 41.21875 56.820312 41.898438 56.824219 42.851562 C 56.824219 42.914062 56.824219 42.976562 56.824219 43.039062 C 56.851562 44.292969 57.453125 45.214844 58.328125 46.082031 C 58.445312 46.199219 58.445312 46.199219 58.601562 46.238281 L 58.601562 46.339844 C 58.652344 46.355469 58.652344 46.355469 58.703125 46.375 C 58.871094 46.445312 59.027344 46.527344 59.1875 46.609375 C 59.457031 46.746094 59.703125 46.832031 60 46.878906 L 60.050781 46.929688 C 60.152344 46.949219 60.253906 46.964844 60.355469 46.980469 C 60.410156 46.988281 60.46875 46.996094 60.527344 47.003906 L 61.050781 47.078125 L 61.050781 50.035156 L 60.949219 50.035156 C 60.953125 50.074219 60.953125 50.109375 60.953125 50.148438 C 60.957031 50.425781 60.953125 50.679688 60.882812 50.949219 C 60.84375 51.101562 60.808594 51.257812 60.777344 51.414062 C 60.6875 51.828125 60.574219 52.210938 60.398438 52.597656 C 60.378906 52.664062 60.359375 52.726562 60.335938 52.792969 C 60.015625 53.765625 59.492188 54.660156 58.894531 55.496094 C 58.789062 55.644531 58.789062 55.644531 58.699219 55.804688 L 58.601562 55.804688 C 58.585938 55.832031 58.574219 55.859375 58.558594 55.890625 C 58.332031 56.3125 57.894531 56.65625 57.558594 56.988281 C 57.464844 57.082031 57.371094 57.175781 57.28125 57.265625 C 57.222656 57.324219 57.160156 57.382812 57.101562 57.441406 C 57.074219 57.46875 57.046875 57.5 57.019531 57.527344 C 56.820312 57.71875 56.820312 57.71875 56.695312 57.75 C 56.664062 57.757812 56.632812 57.765625 56.601562 57.773438 L 56.550781 57.921875 C 56.453125 58.003906 56.453125 58.003906 56.324219 58.085938 C 56.28125 58.117188 56.234375 58.148438 56.1875 58.175781 C 56.121094 58.222656 56.121094 58.222656 56.050781 58.269531 C 56.011719 58.292969 55.972656 58.320312 55.933594 58.34375 C 55.027344 58.949219 54.074219 59.457031 53.019531 59.761719 C 52.902344 59.796875 52.789062 59.832031 52.671875 59.871094 C 52.636719 59.882812 52.597656 59.894531 52.558594 59.90625 C 52.488281 59.929688 52.417969 59.957031 52.347656 59.980469 C 52.039062 60.09375 51.726562 60.132812 51.402344 60.167969 C 51.257812 60.171875 51.257812 60.171875 51.199219 60.238281 C 51.097656 60.242188 50.996094 60.242188 50.898438 60.242188 L 50.730469 60.242188 L 50.601562 60.238281 L 50.601562 60.339844 L 41.148438 60.339844 L 41.050781 59.597656 C 40.964844 59.152344 40.808594 58.761719 40.601562 58.355469 C 40.585938 58.324219 40.570312 58.289062 40.550781 58.253906 C 40.453125 58.058594 40.347656 57.890625 40.199219 57.726562 C 40.171875 57.691406 40.144531 57.65625 40.113281 57.625 C 39.941406 57.425781 39.765625 57.242188 39.550781 57.085938 C 39.496094 57.042969 39.496094 57.042969 39.441406 57.003906 C 39 56.683594 38.527344 56.445312 38 56.296875 C 37.949219 56.277344 37.894531 56.261719 37.839844 56.246094 C 37.558594 56.175781 37.285156 56.179688 36.996094 56.179688 C 36.894531 56.179688 36.792969 56.175781 36.691406 56.175781 C 36.246094 56.171875 35.867188 56.238281 35.449219 56.394531 C 35.410156 56.410156 35.371094 56.421875 35.332031 56.4375 C 35.230469 56.476562 35.136719 56.515625 35.039062 56.558594 C 35.003906 56.574219 34.96875 56.585938 34.933594 56.601562 C 34.65625 56.726562 34.429688 56.882812 34.199219 57.085938 C 34.164062 57.113281 34.128906 57.140625 34.09375 57.171875 C 33.304688 57.824219 32.730469 58.792969 32.632812 59.8125 C 32.628906 59.890625 32.621094 59.972656 32.617188 60.050781 C 32.601562 60.238281 32.601562 60.238281 32.550781 60.339844 C 31.460938 60.339844 30.375 60.339844 29.285156 60.339844 C 28.78125 60.339844 28.277344 60.339844 27.769531 60.339844 C 27.332031 60.34375 26.890625 60.34375 26.449219 60.34375 C 26.21875 60.34375 25.984375 60.34375 25.75 60.34375 C 25.53125 60.34375 25.3125 60.34375 25.09375 60.34375 C 25.011719 60.34375 24.933594 60.34375 24.851562 60.34375 L 24.335938 60.34375 C 24.199219 60.339844 24.199219 60.339844 24.148438 60.289062 C 24.078125 60.28125 24.003906 60.273438 23.929688 60.265625 C 23.476562 60.226562 23.054688 60.117188 22.617188 59.988281 C 22.480469 59.953125 22.34375 59.917969 22.203125 59.890625 C 22.007812 59.851562 21.832031 59.777344 21.648438 59.699219 C 21.59375 59.683594 21.539062 59.667969 21.480469 59.652344 C 21.257812 59.585938 21.058594 59.496094 20.851562 59.402344 C 20.789062 59.375 20.726562 59.347656 20.660156 59.316406 C 19.902344 58.980469 19.203125 58.582031 18.550781 58.070312 C 18.492188 58.027344 18.492188 58.027344 18.433594 57.980469 C 18.320312 57.898438 18.210938 57.8125 18.101562 57.726562 C 18.058594 57.695312 18.019531 57.664062 17.976562 57.632812 C 17.679688 57.402344 17.410156 57.152344 17.140625 56.890625 C 17.105469 56.859375 17.074219 56.824219 17.039062 56.792969 C 17.007812 56.761719 16.976562 56.730469 16.945312 56.699219 C 16.917969 56.671875 16.890625 56.640625 16.859375 56.613281 C 16.800781 56.542969 16.800781 56.542969 16.800781 56.445312 L 16.699219 56.445312 C 16.640625 56.386719 16.582031 56.332031 16.523438 56.273438 C 16.445312 56.191406 16.363281 56.113281 16.277344 56.03125 C 16.105469 55.867188 15.9375 55.703125 15.765625 55.535156 C 15.691406 55.464844 15.617188 55.394531 15.542969 55.324219 C 15.4375 55.222656 15.332031 55.117188 15.226562 55.015625 L 15.125 54.917969 L 15.03125 54.828125 C 14.992188 54.789062 14.992188 54.789062 14.953125 54.75 C 14.898438 54.667969 14.898438 54.667969 14.910156 54.566406 C 14.96875 54.425781 15.074219 54.34375 15.1875 54.242188 C 15.417969 54.019531 15.566406 53.820312 15.699219 53.535156 C 15.71875 53.5 15.734375 53.460938 15.753906 53.425781 C 15.894531 53.105469 15.933594 52.832031 15.929688 52.484375 L 15.925781 52.335938 C 15.90625 51.636719 15.613281 51.042969 15.097656 50.558594 C 14.765625 50.289062 14.414062 50.132812 14 50.035156 C 13.960938 50.023438 13.917969 50.015625 13.878906 50.003906 C 13.683594 49.957031 13.5 49.917969 13.300781 49.9375 L 13.25 49.984375 C 13.183594 50 13.117188 50.015625 13.054688 50.027344 C 12.96875 50.046875 12.882812 50.066406 12.800781 50.085938 C 12.738281 50.097656 12.738281 50.097656 12.675781 50.113281 C 12.09375 50.261719 11.703125 50.648438 11.300781 51.070312 C 11.027344 50.847656 10.773438 50.609375 10.523438 50.359375 C 10.480469 50.324219 10.445312 50.285156 10.402344 50.242188 C 10.320312 50.160156 10.238281 50.082031 10.15625 50 C 10.027344 49.875 9.902344 49.75 9.773438 49.625 C 9.691406 49.546875 9.613281 49.464844 9.53125 49.386719 C 9.492188 49.351562 9.453125 49.3125 9.414062 49.273438 C 9.378906 49.238281 9.347656 49.203125 9.308594 49.167969 C 9.277344 49.140625 9.246094 49.109375 9.214844 49.078125 C 9.148438 49 9.148438 49 9.148438 48.902344 L 9.054688 48.859375 C 8.949219 48.804688 8.949219 48.804688 8.898438 48.65625 L 8.800781 48.605469 C 8.699219 48.554688 8.699219 48.554688 8.648438 48.410156 L 8.550781 48.359375 C 8.449219 48.308594 8.449219 48.308594 8.398438 48.164062 L 8.300781 48.113281 C 8.199219 48.0625 8.199219 48.0625 8.148438 47.914062 L 8.050781 47.867188 C 7.949219 47.816406 7.949219 47.816406 7.898438 47.667969 L 7.800781 47.621094 C 7.699219 47.570312 7.699219 47.570312 7.648438 47.421875 L 7.550781 47.375 C 7.449219 47.324219 7.449219 47.324219 7.398438 47.175781 L 7.300781 47.128906 C 7.199219 47.078125 7.199219 47.078125 7.148438 46.929688 L 7.050781 46.878906 C 6.949219 46.832031 6.949219 46.832031 6.898438 46.683594 L 6.800781 46.632812 C 6.699219 46.585938 6.699219 46.585938 6.648438 46.4375 L 6.550781 46.4375 C 6.46875 46.367188 6.46875 46.367188 6.398438 46.289062 L 6.398438 46.191406 C 6.371094 46.179688 6.347656 46.167969 6.316406 46.15625 C 6.160156 46.070312 6.039062 45.949219 5.914062 45.820312 C 5.886719 45.796875 5.863281 45.769531 5.835938 45.746094 C 5.648438 45.5625 5.648438 45.5625 5.648438 45.449219 L 5.550781 45.449219 C 5.472656 45.367188 5.472656 45.367188 5.386719 45.25 C 5.273438 45.097656 5.15625 44.953125 5.027344 44.8125 C 4.898438 44.664062 4.898438 44.664062 4.898438 44.5625 L 4.800781 44.5625 C 4.648438 44.347656 4.648438 44.347656 4.648438 44.21875 L 4.550781 44.21875 C 4.449219 44.074219 4.398438 44 4.398438 43.824219 L 4.300781 43.824219 C 4.027344 43.46875 3.847656 43.039062 3.648438 42.640625 C 3.617188 42.574219 3.582031 42.507812 3.546875 42.4375 C 3.449219 42.253906 3.371094 42.082031 3.320312 41.878906 C 3.289062 41.757812 3.289062 41.757812 3.25 41.65625 L 3.148438 41.605469 C 3.117188 41.464844 3.097656 41.328125 3.078125 41.183594 C 3.070312 41.144531 3.058594 41.105469 3.050781 41.0625 L 2.949219 41.015625 C 2.921875 40.914062 2.921875 40.914062 2.902344 40.789062 C 2.867188 40.59375 2.8125 40.429688 2.738281 40.246094 C 2.667969 40.019531 2.648438 39.785156 2.621094 39.550781 C 2.605469 39.386719 2.605469 39.386719 2.550781 39.238281 C 2.546875 39.15625 2.546875 39.070312 2.546875 38.984375 L 2.546875 38.847656 L 2.550781 38.746094 L 2.449219 38.746094 L 2.449219 13.015625 L 2.5 13.015625 C 2.574219 12.613281 2.574219 12.613281 2.621094 12.207031 C 2.664062 11.792969 2.765625 11.386719 2.898438 10.992188 C 2.929688 10.878906 2.964844 10.765625 2.992188 10.652344 C 3.0625 10.417969 3.136719 10.210938 3.253906 10 C 3.300781 9.902344 3.332031 9.8125 3.363281 9.710938 C 3.53125 9.191406 3.824219 8.703125 4.117188 8.242188 C 4.136719 8.207031 4.15625 8.175781 4.179688 8.140625 C 4.277344 7.992188 4.375 7.863281 4.5 7.738281 C 4.570312 7.625 4.628906 7.507812 4.691406 7.394531 C 4.75 7.296875 4.75 7.296875 4.851562 7.246094 L 4.894531 7.15625 C 4.960938 7.027344 5.042969 6.949219 5.148438 6.851562 C 5.234375 6.769531 5.308594 6.683594 5.386719 6.597656 L 5.46875 6.503906 C 5.523438 6.441406 5.578125 6.378906 5.632812 6.316406 L 5.710938 6.222656 C 5.734375 6.195312 5.757812 6.167969 5.78125 6.140625 C 5.90625 6 6.042969 5.878906 6.1875 5.753906 C 6.320312 5.640625 6.449219 5.523438 6.570312 5.398438 C 7.078125 4.894531 7.722656 4.484375 8.351562 4.140625 L 8.449219 4.140625 L 8.5 4.042969 L 8.648438 3.992188 L 8.800781 3.894531 C 8.898438 3.84375 8.996094 3.792969 9.09375 3.742188 C 9.144531 3.71875 9.195312 3.691406 9.25 3.664062 C 9.386719 3.605469 9.503906 3.570312 9.648438 3.550781 L 9.648438 3.449219 C 9.699219 3.4375 9.746094 3.421875 9.792969 3.40625 C 10.164062 3.296875 10.53125 3.175781 10.894531 3.046875 C 11.195312 2.941406 11.484375 2.855469 11.800781 2.808594 C 11.851562 2.800781 11.90625 2.792969 11.960938 2.785156 C 12.203125 2.746094 12.441406 2.710938 12.683594 2.683594 C 12.84375 2.671875 12.84375 2.671875 12.949219 2.613281 C 13.105469 2.566406 13.246094 2.558594 13.40625 2.558594 Z M 33.300781 2.910156 L 33.351562 3.007812 Z M 12.75 8.429688 C 12.695312 8.441406 12.644531 8.457031 12.589844 8.46875 C 11.933594 8.632812 11.289062 8.957031 10.75 9.367188 L 10.75 9.464844 C 10.71875 9.476562 10.691406 9.492188 10.660156 9.503906 C 10.34375 9.671875 10.089844 9.960938 9.835938 10.207031 C 9.8125 10.230469 9.785156 10.257812 9.761719 10.28125 C 9.597656 10.441406 9.472656 10.605469 9.351562 10.796875 C 9.324219 10.832031 9.300781 10.867188 9.277344 10.90625 C 9.226562 10.976562 9.175781 11.050781 9.128906 11.121094 C 9.078125 11.195312 9.027344 11.269531 8.976562 11.34375 C 8.710938 11.738281 8.578125 12.183594 8.433594 12.628906 C 8.398438 12.71875 8.398438 12.71875 8.351562 12.769531 C 8.183594 13.351562 8.179688 13.929688 8.179688 14.535156 C 8.179688 14.636719 8.179688 14.738281 8.179688 14.839844 C 8.179688 15.121094 8.179688 15.402344 8.179688 15.683594 C 8.179688 15.984375 8.179688 16.285156 8.179688 16.589844 C 8.179688 17.148438 8.179688 17.707031 8.179688 18.265625 C 8.179688 18.78125 8.179688 19.296875 8.179688 19.8125 L 8.179688 20.332031 C 8.175781 21.304688 8.175781 22.273438 8.175781 23.246094 L 8.175781 23.355469 C 8.175781 23.652344 8.175781 23.949219 8.179688 24.246094 C 8.179688 25.402344 8.179688 26.5625 8.175781 27.71875 C 8.175781 29.019531 8.175781 30.320312 8.175781 31.625 C 8.175781 31.761719 8.175781 31.902344 8.175781 32.039062 L 8.175781 32.144531 C 8.175781 32.660156 8.175781 33.175781 8.175781 33.691406 C 8.171875 34.277344 8.171875 34.863281 8.175781 35.449219 C 8.175781 35.746094 8.175781 36.046875 8.175781 36.34375 C 8.171875 36.621094 8.175781 36.894531 8.175781 37.167969 C 8.175781 37.265625 8.175781 37.363281 8.175781 37.464844 C 8.171875 38.054688 8.222656 38.574219 8.398438 39.140625 C 8.417969 39.207031 8.4375 39.269531 8.457031 39.335938 C 8.671875 40.027344 8.992188 40.648438 9.449219 41.210938 C 9.488281 41.257812 9.527344 41.308594 9.566406 41.355469 C 9.917969 41.792969 9.917969 41.792969 10.351562 42.148438 L 10.449219 42.148438 L 10.480469 42.234375 C 10.574219 42.386719 10.695312 42.449219 10.851562 42.542969 C 10.894531 42.570312 10.9375 42.597656 10.984375 42.628906 C 11.101562 42.703125 11.101562 42.703125 11.25 42.691406 L 11.25 42.789062 C 11.855469 43.101562 11.855469 43.101562 12.5 43.332031 C 12.574219 43.359375 12.574219 43.359375 12.652344 43.390625 C 12.84375 43.441406 13.003906 43.4375 13.199219 43.429688 L 13.25 43.527344 C 13.371094 43.550781 13.371094 43.550781 13.515625 43.554688 C 13.785156 43.574219 13.785156 43.574219 13.886719 43.601562 C 14.035156 43.636719 14.175781 43.632812 14.328125 43.632812 L 14.425781 43.632812 C 14.539062 43.632812 14.648438 43.632812 14.757812 43.632812 L 14.992188 43.632812 C 15.207031 43.632812 15.421875 43.632812 15.636719 43.632812 C 15.859375 43.632812 16.082031 43.632812 16.308594 43.632812 C 16.730469 43.632812 17.152344 43.632812 17.578125 43.628906 C 18.058594 43.628906 18.542969 43.628906 19.023438 43.628906 C 20.015625 43.628906 21.007812 43.628906 22 43.628906 L 21.996094 43.769531 C 21.980469 43.917969 21.980469 43.917969 22.050781 43.972656 C 22.0625 44.066406 22.070312 44.160156 22.082031 44.253906 C 22.1875 44.957031 22.691406 45.652344 23.25 46.089844 C 23.382812 46.128906 23.382812 46.128906 23.5 46.140625 L 23.5 46.238281 L 23.648438 46.238281 L 23.648438 46.339844 C 23.75 46.378906 23.855469 46.417969 23.957031 46.457031 C 24.011719 46.480469 24.070312 46.503906 24.128906 46.527344 C 24.449219 46.636719 24.757812 46.644531 25.09375 46.644531 C 25.136719 46.644531 25.179688 46.644531 25.222656 46.644531 C 25.5 46.644531 25.734375 46.613281 26 46.535156 L 26 46.4375 L 26.398438 46.386719 L 26.398438 46.289062 L 26.550781 46.339844 C 26.582031 46.300781 26.582031 46.300781 26.617188 46.265625 C 26.699219 46.191406 26.699219 46.191406 26.800781 46.140625 L 26.800781 46.042969 L 26.898438 46.042969 L 26.898438 45.945312 C 26.933594 45.933594 26.964844 45.925781 27 45.914062 C 27.246094 45.800781 27.488281 45.625 27.609375 45.382812 C 27.621094 45.339844 27.636719 45.296875 27.648438 45.253906 C 27.6875 45.1875 27.726562 45.121094 27.769531 45.054688 C 27.996094 44.65625 28.113281 44.222656 28.140625 43.765625 C 28.148438 43.675781 28.148438 43.675781 28.199219 43.628906 C 28.324219 43.621094 28.449219 43.621094 28.578125 43.621094 L 28.699219 43.621094 C 28.832031 43.621094 28.96875 43.621094 29.101562 43.621094 C 29.199219 43.621094 29.292969 43.621094 29.390625 43.621094 L 30.015625 43.625 C 30.34375 43.625 30.671875 43.625 31.003906 43.625 C 31.9375 43.628906 32.875 43.628906 33.8125 43.632812 C 34.328125 43.632812 34.847656 43.632812 35.363281 43.632812 C 35.691406 43.632812 36.015625 43.636719 36.34375 43.636719 C 36.546875 43.636719 36.753906 43.636719 36.957031 43.636719 C 37.050781 43.636719 37.144531 43.636719 37.238281 43.636719 C 37.960938 43.640625 38.644531 43.59375 39.351562 43.429688 L 39.5 43.429688 L 39.5 43.332031 C 39.558594 43.328125 39.617188 43.320312 39.675781 43.316406 C 39.898438 43.289062 40.082031 43.21875 40.289062 43.128906 C 40.339844 43.105469 40.339844 43.105469 40.390625 43.082031 C 40.886719 42.859375 41.332031 42.589844 41.75 42.246094 C 41.800781 42.207031 41.800781 42.207031 41.847656 42.164062 C 42.21875 41.855469 42.597656 41.527344 42.851562 41.113281 C 42.90625 41.039062 42.960938 40.964844 43.015625 40.890625 C 43.164062 40.683594 43.28125 40.472656 43.398438 40.25 L 43.445312 40.160156 C 43.523438 40.003906 43.523438 40.003906 43.550781 39.832031 L 43.648438 39.78125 C 43.691406 39.675781 43.691406 39.675781 43.726562 39.546875 C 43.761719 39.417969 43.796875 39.292969 43.851562 39.167969 C 44.226562 38.226562 44.105469 37.089844 44.105469 36.097656 L 44.105469 35.550781 C 44.105469 35.238281 44.105469 34.921875 44.105469 34.605469 C 44.101562 34.148438 44.101562 33.695312 44.101562 33.238281 C 44.101562 32.5 44.101562 31.757812 44.101562 31.019531 L 44.101562 30.886719 C 44.101562 30.570312 44.101562 30.257812 44.101562 29.945312 C 44.101562 29.585938 44.097656 29.226562 44.097656 28.863281 L 44.097656 26.515625 C 44.097656 26.058594 44.097656 25.605469 44.097656 25.148438 C 44.097656 24.839844 44.09375 24.527344 44.09375 24.214844 C 44.09375 24.035156 44.09375 23.855469 44.09375 23.679688 C 44.09375 23.484375 44.09375 23.289062 44.09375 23.09375 C 44.09375 23.039062 44.09375 22.980469 44.09375 22.921875 L 44.09375 22.628906 C 44.101562 22.527344 44.101562 22.527344 44.148438 22.480469 C 44.265625 22.472656 44.382812 22.46875 44.5 22.464844 C 44.78125 22.449219 45.007812 22.410156 45.257812 22.277344 C 45.355469 22.230469 45.445312 22.203125 45.550781 22.183594 L 45.550781 22.085938 C 45.585938 22.074219 45.621094 22.058594 45.660156 22.046875 C 46.164062 21.824219 46.667969 21.242188 46.898438 20.753906 C 46.917969 20.640625 46.9375 20.523438 46.949219 20.410156 L 47.050781 20.359375 C 47.28125 19.660156 47.199219 18.835938 46.882812 18.179688 C 46.449219 17.378906 45.765625 16.847656 44.902344 16.554688 C 44.730469 16.511719 44.566406 16.511719 44.386719 16.511719 C 44.332031 16.511719 44.28125 16.511719 44.222656 16.511719 L 44.101562 16.515625 C 44.101562 16.480469 44.101562 16.445312 44.101562 16.410156 C 44.101562 16.089844 44.105469 15.765625 44.105469 15.441406 C 44.105469 15.277344 44.105469 15.109375 44.105469 14.945312 C 44.109375 14.753906 44.109375 14.5625 44.109375 14.371094 L 44.113281 14.195312 C 44.117188 13.613281 44.117188 13.613281 43.949219 13.0625 C 43.929688 12.980469 43.910156 12.898438 43.890625 12.8125 C 43.675781 11.875 43.214844 11.097656 42.601562 10.351562 C 42.5625 10.300781 42.523438 10.253906 42.484375 10.199219 L 42.398438 10.105469 L 42.300781 10.105469 C 42.289062 10.078125 42.277344 10.046875 42.265625 10.019531 C 42.183594 9.878906 42.085938 9.804688 41.949219 9.710938 L 41.851562 9.710938 L 41.851562 9.613281 C 41.5 9.320312 41.101562 9.089844 40.699219 8.875 C 40.660156 8.851562 40.617188 8.828125 40.578125 8.804688 C 40.058594 8.535156 39.507812 8.371094 38.925781 8.300781 C 38.800781 8.28125 38.800781 8.28125 38.699219 8.234375 C 38.566406 8.226562 38.429688 8.226562 38.296875 8.226562 C 38.253906 8.226562 38.210938 8.226562 38.167969 8.226562 L 37.425781 8.226562 C 37.140625 8.226562 36.855469 8.226562 36.570312 8.226562 C 36.261719 8.226562 35.953125 8.226562 35.644531 8.226562 C 35.042969 8.222656 34.4375 8.222656 33.835938 8.222656 C 33.347656 8.222656 32.855469 8.222656 32.367188 8.222656 L 31.835938 8.222656 C 30.851562 8.222656 29.863281 8.222656 28.878906 8.222656 L 27.859375 8.222656 C 26.679688 8.222656 25.5 8.222656 24.324219 8.222656 C 23 8.222656 21.675781 8.222656 20.355469 8.222656 L 19.824219 8.222656 C 19.265625 8.222656 18.707031 8.222656 18.148438 8.21875 C 17.585938 8.21875 17.023438 8.21875 16.460938 8.21875 C 16.15625 8.21875 15.851562 8.21875 15.546875 8.21875 C 15.269531 8.21875 14.992188 8.21875 14.710938 8.21875 C 14.609375 8.21875 14.511719 8.21875 14.410156 8.21875 C 14.273438 8.21875 14.136719 8.21875 13.996094 8.21875 C 13.957031 8.21875 13.917969 8.21875 13.878906 8.21875 C 13.484375 8.222656 13.125 8.320312 12.75 8.429688 Z M 44.148438 22.480469 L 44.148438 22.527344 L 44.398438 22.527344 L 44.398438 22.480469 Z M 44.148438 22.480469 "/>
<path style=" stroke:none;fill-rule:nonzero;fill:rgb(98.431373%,76.862745%,1.960784%);fill-opacity:1;" d="M 25.449219 13.949219 C 25.566406 13.949219 25.683594 13.949219 25.800781 13.949219 L 25.851562 14 C 25.949219 14.011719 26.046875 14.019531 26.144531 14.027344 C 26.195312 14.03125 26.25 14.035156 26.304688 14.039062 C 26.402344 14.046875 26.503906 14.050781 26.601562 14.050781 C 26.773438 14.0625 26.945312 14.078125 27.117188 14.09375 C 27.191406 14.101562 27.191406 14.101562 27.261719 14.109375 C 27.308594 14.113281 27.355469 14.117188 27.402344 14.121094 C 27.441406 14.125 27.484375 14.128906 27.527344 14.132812 C 27.699219 14.152344 27.859375 14.179688 28.019531 14.246094 C 28.152344 14.300781 28.152344 14.300781 28.304688 14.316406 C 29.046875 14.421875 29.769531 14.71875 30.429688 15.050781 C 30.585938 15.132812 30.585938 15.132812 30.699219 15.15625 C 30.808594 15.1875 30.882812 15.226562 30.976562 15.292969 C 31.132812 15.390625 31.292969 15.476562 31.457031 15.5625 C 32.109375 15.910156 32.679688 16.398438 33.25 16.859375 C 33.28125 16.882812 33.3125 16.910156 33.34375 16.933594 C 33.503906 17.066406 33.660156 17.199219 33.800781 17.351562 L 33.800781 17.449219 L 33.898438 17.449219 L 33.898438 17.550781 L 34.050781 17.597656 L 34.050781 17.695312 L 34.148438 17.695312 C 34.230469 17.785156 34.230469 17.785156 34.320312 17.902344 C 34.445312 18.066406 34.570312 18.226562 34.699219 18.386719 C 35.308594 19.167969 35.863281 20.019531 36.199219 20.949219 C 36.234375 21.023438 36.265625 21.097656 36.300781 21.167969 C 36.472656 21.546875 36.574219 21.925781 36.664062 22.332031 C 36.691406 22.441406 36.722656 22.550781 36.753906 22.660156 C 36.851562 23.007812 36.910156 23.351562 36.9375 23.710938 C 36.945312 23.8125 36.945312 23.8125 37 23.910156 C 37.007812 24.011719 37.011719 24.117188 37.015625 24.222656 C 37.019531 24.269531 37.019531 24.269531 37.019531 24.320312 C 37.023438 24.425781 37.027344 24.527344 37.03125 24.632812 C 37.03125 24.667969 37.035156 24.703125 37.035156 24.738281 C 37.085938 26.449219 37.085938 26.449219 36.949219 26.71875 C 36.941406 26.792969 36.933594 26.867188 36.929688 26.941406 C 36.90625 27.160156 36.871094 27.375 36.824219 27.589844 C 36.804688 27.6875 36.789062 27.785156 36.777344 27.886719 C 36.746094 28.074219 36.675781 28.222656 36.601562 28.394531 C 36.585938 28.460938 36.570312 28.527344 36.554688 28.59375 C 36.46875 29.007812 36.324219 29.414062 36.101562 29.773438 C 36.058594 29.855469 36.023438 29.941406 35.988281 30.023438 C 35.960938 30.085938 35.960938 30.085938 35.933594 30.148438 C 35.886719 30.316406 35.929688 30.414062 35.992188 30.570312 C 36.0625 30.683594 36.132812 30.703125 36.25 30.761719 L 36.300781 30.910156 L 36.398438 30.957031 L 36.5 31.007812 L 36.550781 31.15625 L 36.648438 31.203125 L 36.75 31.253906 L 36.800781 31.402344 L 36.898438 31.449219 L 37 31.5 L 37.050781 31.648438 L 37.148438 31.695312 L 37.25 31.746094 L 37.300781 31.894531 L 37.398438 31.945312 L 37.5 31.992188 L 37.550781 32.140625 L 37.648438 32.191406 L 37.75 32.238281 L 37.800781 32.386719 L 37.898438 32.4375 L 38 32.484375 L 38.050781 32.632812 L 38.148438 32.683594 L 38.25 32.730469 L 38.300781 32.878906 L 38.398438 32.929688 L 38.5 32.980469 L 38.550781 33.125 L 38.648438 33.125 C 38.929688 33.539062 39.035156 33.878906 39.035156 34.375 C 39.035156 34.417969 39.035156 34.464844 39.035156 34.511719 C 39.015625 35.210938 38.582031 35.671875 38.101562 36.148438 C 38.066406 36.183594 38.027344 36.222656 37.992188 36.257812 C 37.910156 36.335938 37.832031 36.414062 37.753906 36.492188 C 37.632812 36.609375 37.515625 36.730469 37.398438 36.847656 C 37.320312 36.925781 37.242188 37 37.164062 37.078125 C 37.132812 37.113281 37.097656 37.148438 37.058594 37.183594 C 36.566406 37.667969 36.132812 37.78125 35.453125 37.785156 C 34.992188 37.78125 34.679688 37.671875 34.300781 37.414062 C 34.261719 37.390625 34.222656 37.363281 34.183594 37.335938 C 34.15625 37.3125 34.128906 37.289062 34.101562 37.269531 L 34.101562 37.167969 L 33.949219 37.121094 L 33.949219 37.019531 L 33.851562 37.019531 L 33.851562 36.921875 L 33.699219 36.875 L 33.699219 36.773438 L 33.601562 36.773438 L 33.601562 36.675781 L 33.449219 36.625 L 33.449219 36.527344 L 33.351562 36.527344 L 33.351562 36.429688 L 33.199219 36.378906 L 33.199219 36.28125 L 33.101562 36.28125 L 33.101562 36.183594 L 32.949219 36.132812 L 32.949219 36.035156 L 32.851562 36.035156 L 32.851562 35.9375 L 32.699219 35.886719 L 32.699219 35.789062 L 32.601562 35.789062 L 32.601562 35.691406 L 32.449219 35.640625 L 32.449219 35.542969 L 32.351562 35.542969 L 32.351562 35.445312 L 32.199219 35.394531 L 32.199219 35.296875 L 32.101562 35.296875 L 32.101562 35.195312 L 31.949219 35.148438 L 31.949219 35.050781 L 31.851562 35.050781 L 31.851562 34.949219 L 31.699219 34.902344 L 31.699219 34.804688 L 31.601562 34.804688 L 31.601562 34.703125 L 31.449219 34.65625 L 31.449219 34.554688 L 31.351562 34.554688 L 31.351562 34.457031 L 31.199219 34.410156 L 31.199219 34.308594 L 31.101562 34.308594 L 31.101562 34.210938 L 30.949219 34.160156 L 30.949219 34.0625 L 30.851562 34.0625 L 30.851562 33.964844 L 30.699219 33.914062 L 30.699219 33.816406 L 30.601562 33.816406 L 30.601562 33.71875 L 30.449219 33.667969 L 30.449219 33.570312 L 30.351562 33.570312 L 30.351562 33.472656 L 30.199219 33.421875 L 30.199219 33.324219 L 30.101562 33.324219 L 30.101562 33.226562 L 29.949219 33.175781 L 29.949219 33.078125 L 29.851562 33.078125 L 29.851562 32.980469 L 29.699219 32.929688 L 29.699219 32.832031 L 29.601562 32.832031 L 29.601562 32.730469 L 29.449219 32.683594 L 29.449219 32.585938 L 29.351562 32.585938 L 29.351562 32.484375 L 29.199219 32.4375 L 29.199219 32.339844 L 29.101562 32.339844 L 29.101562 32.238281 L 28.949219 32.191406 L 28.949219 32.089844 L 28.851562 32.089844 C 28.769531 32.023438 28.769531 32.023438 28.699219 31.945312 L 28.699219 31.84375 L 28.601562 31.84375 C 28.519531 31.777344 28.519531 31.777344 28.449219 31.695312 L 28.449219 31.597656 L 28.351562 31.597656 C 28.269531 31.53125 28.269531 31.53125 28.199219 31.449219 L 28.199219 31.351562 L 28.101562 31.351562 C 28.019531 31.285156 28.019531 31.285156 27.949219 31.203125 L 27.949219 31.105469 L 27.851562 31.105469 C 27.769531 31.039062 27.769531 31.039062 27.699219 30.957031 L 27.699219 30.859375 L 27.601562 30.859375 C 27.519531 30.792969 27.519531 30.792969 27.449219 30.710938 L 27.449219 30.613281 L 27.351562 30.613281 C 27.269531 30.542969 27.269531 30.542969 27.199219 30.464844 L 27.199219 30.367188 L 27.101562 30.367188 C 27.019531 30.296875 27.019531 30.296875 26.949219 30.21875 L 26.949219 30.121094 L 26.851562 30.121094 C 26.769531 30.050781 26.769531 30.050781 26.699219 29.972656 L 26.699219 29.875 L 26.601562 29.875 C 26.515625 29.816406 26.515625 29.816406 26.449219 29.726562 C 26.464844 29.59375 26.464844 29.59375 26.5 29.480469 C 26.6875 29.421875 26.6875 29.421875 26.800781 29.480469 L 26.800781 29.378906 C 26.84375 29.371094 26.84375 29.371094 26.890625 29.363281 C 26.953125 29.351562 26.953125 29.351562 27.011719 29.339844 C 27.050781 29.332031 27.089844 29.324219 27.132812 29.316406 C 27.265625 29.277344 27.339844 29.21875 27.449219 29.132812 C 27.546875 29.085938 27.640625 29.039062 27.738281 28.996094 C 28.683594 28.535156 29.390625 27.71875 29.746094 26.742188 C 29.78125 26.636719 29.816406 26.53125 29.851562 26.421875 C 29.867188 26.371094 29.882812 26.320312 29.902344 26.265625 C 29.953125 26.066406 29.964844 25.882812 29.964844 25.679688 L 29.964844 25.566406 C 29.964844 25.492188 29.964844 25.414062 29.964844 25.335938 C 29.960938 25.21875 29.964844 25.101562 29.964844 24.984375 L 29.964844 24.753906 C 29.964844 24.703125 29.964844 24.703125 29.964844 24.652344 C 29.960938 24.273438 29.851562 23.933594 29.710938 23.589844 C 29.695312 23.554688 29.683594 23.523438 29.671875 23.492188 C 29.582031 23.28125 29.480469 23.089844 29.351562 22.902344 C 29.285156 22.800781 29.238281 22.691406 29.199219 22.578125 L 29.101562 22.578125 C 28.949219 22.40625 28.949219 22.40625 28.949219 22.28125 L 28.851562 22.28125 C 28.765625 22.199219 28.683594 22.117188 28.601562 22.035156 L 28.449219 21.9375 L 28.449219 21.839844 C 28.421875 21.824219 28.394531 21.8125 28.367188 21.796875 C 28.230469 21.730469 28.097656 21.65625 27.960938 21.585938 C 27.914062 21.558594 27.863281 21.53125 27.8125 21.503906 L 27.699219 21.445312 L 27.699219 21.34375 C 27.667969 21.335938 27.636719 21.324219 27.601562 21.316406 L 27.46875 21.277344 C 27.425781 21.265625 27.382812 21.25 27.339844 21.238281 C 27.242188 21.210938 27.148438 21.179688 27.054688 21.148438 C 26.824219 21.074219 26.585938 21.03125 26.347656 20.984375 C 26.199219 20.949219 26.199219 20.949219 26.148438 20.902344 C 26.078125 20.894531 26.007812 20.894531 25.9375 20.894531 C 25.898438 20.894531 25.855469 20.894531 25.808594 20.894531 L 25.675781 20.894531 C 25.628906 20.894531 25.585938 20.894531 25.539062 20.894531 C 25.476562 20.894531 25.476562 20.894531 25.410156 20.894531 L 25.292969 20.894531 C 25.199219 20.890625 25.199219 20.890625 25.148438 20.949219 C 25.039062 20.976562 24.925781 21 24.816406 21.023438 C 24.433594 21.097656 24.101562 21.214844 23.753906 21.386719 C 23.71875 21.402344 23.683594 21.417969 23.652344 21.433594 C 23.476562 21.519531 23.316406 21.613281 23.15625 21.726562 C 23 21.839844 23 21.839844 22.898438 21.839844 L 22.898438 21.9375 C 22.820312 22.011719 22.820312 22.011719 22.714844 22.097656 C 22.582031 22.207031 22.464844 22.316406 22.355469 22.453125 C 22.320312 22.492188 22.285156 22.535156 22.25 22.578125 L 22.148438 22.578125 L 22.109375 22.683594 C 22.046875 22.832031 21.96875 22.953125 21.878906 23.085938 C 21.734375 23.304688 21.632812 23.511719 21.550781 23.761719 C 21.523438 23.824219 21.496094 23.890625 21.472656 23.953125 C 21.3125 24.382812 21.28125 24.789062 21.28125 25.246094 C 21.28125 25.304688 21.28125 25.363281 21.28125 25.421875 C 21.296875 26.535156 21.796875 27.566406 22.59375 28.351562 C 22.660156 28.414062 22.730469 28.480469 22.800781 28.542969 C 22.832031 28.574219 22.863281 28.609375 22.894531 28.644531 C 23.019531 28.757812 23.148438 28.816406 23.300781 28.886719 C 23.390625 28.941406 23.480469 28.996094 23.570312 29.054688 C 24.195312 29.414062 24.847656 29.527344 25.558594 29.558594 C 25.84375 29.574219 25.84375 29.574219 25.898438 29.625 C 25.90625 29.714844 25.90625 29.804688 25.90625 29.894531 L 25.90625 30.066406 C 25.90625 30.132812 25.90625 30.195312 25.90625 30.261719 L 25.90625 30.464844 C 25.90625 30.648438 25.90625 30.832031 25.90625 31.015625 C 25.90625 31.207031 25.90625 31.398438 25.90625 31.589844 C 25.90625 31.953125 25.902344 32.316406 25.902344 32.683594 C 25.902344 33.097656 25.902344 33.511719 25.902344 33.925781 C 25.902344 34.777344 25.902344 35.628906 25.898438 36.480469 C 25.738281 36.480469 25.574219 36.480469 25.410156 36.480469 L 25.269531 36.484375 C 25.203125 36.484375 25.203125 36.484375 25.132812 36.484375 C 25.070312 36.484375 25.070312 36.484375 25.007812 36.484375 C 24.898438 36.480469 24.898438 36.480469 24.75 36.429688 C 24.566406 36.414062 24.386719 36.40625 24.203125 36.394531 C 24.050781 36.378906 24.050781 36.378906 24 36.332031 C 23.875 36.316406 23.75 36.300781 23.625 36.289062 C 23.355469 36.257812 23.109375 36.214844 22.855469 36.121094 C 22.734375 36.078125 22.617188 36.058594 22.492188 36.035156 C 22.28125 35.996094 22.097656 35.925781 21.898438 35.839844 C 21.769531 35.796875 21.640625 35.761719 21.511719 35.726562 C 21.398438 35.691406 21.398438 35.691406 21.25 35.589844 C 21.148438 35.558594 21.050781 35.527344 20.949219 35.492188 C 20.480469 35.289062 20.039062 35.039062 19.601562 34.773438 L 19.472656 34.695312 C 19.183594 34.519531 18.914062 34.324219 18.648438 34.113281 C 18.621094 34.089844 18.59375 34.066406 18.566406 34.046875 C 18.449219 33.953125 18.335938 33.859375 18.21875 33.761719 C 18.097656 33.664062 18.097656 33.664062 17.949219 33.570312 L 17.949219 33.472656 L 17.800781 33.421875 L 17.800781 33.324219 C 17.769531 33.3125 17.734375 33.296875 17.703125 33.285156 C 17.601562 33.226562 17.601562 33.226562 17.550781 33.078125 L 17.449219 33.078125 L 17.449219 32.980469 L 17.300781 32.929688 L 17.300781 32.832031 L 17.199219 32.832031 C 17.125 32.746094 17.125 32.746094 17.039062 32.632812 C 17.007812 32.59375 16.976562 32.550781 16.941406 32.511719 C 16.914062 32.46875 16.882812 32.429688 16.851562 32.386719 C 16.824219 32.351562 16.796875 32.320312 16.769531 32.285156 C 16.695312 32.1875 16.625 32.089844 16.550781 31.992188 C 16.496094 31.925781 16.445312 31.855469 16.394531 31.785156 C 16.367188 31.753906 16.34375 31.722656 16.320312 31.6875 C 16.265625 31.617188 16.207031 31.550781 16.148438 31.484375 C 15.992188 31.273438 15.875 31.042969 15.75 30.808594 C 15.710938 30.742188 15.675781 30.671875 15.636719 30.601562 C 15.101562 29.605469 15.101562 29.605469 15.007812 29.3125 C 14.949219 29.132812 14.886719 28.949219 14.824219 28.769531 C 14.6875 28.386719 14.570312 28.015625 14.515625 27.609375 C 14.511719 27.507812 14.511719 27.507812 14.449219 27.457031 C 14.433594 27.355469 14.425781 27.253906 14.414062 27.152344 C 14.410156 27.0625 14.410156 27.0625 14.351562 27.015625 C 14.339844 26.90625 14.328125 26.800781 14.324219 26.691406 C 14.320312 26.660156 14.320312 26.625 14.316406 26.589844 C 14.3125 26.519531 14.308594 26.449219 14.304688 26.378906 C 14.296875 26.273438 14.289062 26.167969 14.28125 26.0625 C 14.238281 25.367188 14.234375 24.679688 14.296875 23.984375 C 14.300781 23.929688 14.304688 23.875 14.308594 23.820312 C 14.34375 23.421875 14.34375 23.421875 14.398438 23.367188 C 14.417969 23.253906 14.433594 23.140625 14.449219 23.027344 C 14.496094 22.691406 14.496094 22.691406 14.550781 22.527344 C 14.582031 22.414062 14.609375 22.296875 14.640625 22.179688 C 14.710938 21.910156 14.796875 21.648438 14.910156 21.390625 C 14.953125 21.289062 14.953125 21.289062 15 21.148438 L 15.101562 21.148438 L 15.050781 21 C 15.09375 20.875 15.148438 20.75 15.203125 20.628906 C 15.21875 20.59375 15.234375 20.554688 15.253906 20.519531 C 15.363281 20.28125 15.484375 20.054688 15.628906 19.835938 C 15.707031 19.707031 15.777344 19.578125 15.847656 19.445312 C 15.996094 19.175781 16.167969 18.929688 16.351562 18.683594 C 16.382812 18.636719 16.417969 18.589844 16.453125 18.542969 C 16.949219 17.863281 16.949219 17.863281 17.148438 17.796875 C 17.183594 17.730469 17.21875 17.664062 17.25 17.597656 C 17.328125 17.507812 17.328125 17.507812 17.421875 17.417969 C 17.453125 17.386719 17.488281 17.355469 17.519531 17.320312 L 17.730469 17.117188 C 17.984375 16.867188 17.984375 16.867188 18.101562 16.808594 L 18.214844 16.695312 C 18.898438 16.023438 19.824219 15.511719 20.679688 15.082031 C 20.714844 15.0625 20.75 15.046875 20.785156 15.027344 C 21.035156 14.90625 21.277344 14.835938 21.550781 14.789062 L 21.550781 14.691406 C 22.355469 14.433594 22.355469 14.433594 22.6875 14.367188 C 22.835938 14.339844 22.976562 14.304688 23.121094 14.269531 C 23.171875 14.253906 23.222656 14.242188 23.273438 14.230469 C 23.398438 14.203125 23.398438 14.203125 23.5 14.148438 C 23.574219 14.136719 23.652344 14.128906 23.726562 14.125 C 23.773438 14.121094 23.816406 14.113281 23.863281 14.109375 C 23.914062 14.105469 23.960938 14.101562 24.007812 14.097656 C 24.375 14.066406 24.375 14.066406 24.738281 14.023438 C 24.894531 14 25.039062 13.996094 25.195312 13.996094 C 25.246094 13.996094 25.292969 13.996094 25.34375 13.996094 C 25.378906 14 25.414062 14 25.449219 14 Z M 30.050781 24.945312 L 30.050781 25.585938 L 30.101562 25.585938 L 30.101562 24.945312 Z M 30.050781 24.945312 "/>
<path style=" stroke:none;fill-rule:nonzero;fill:rgb(0.784314%,0.784314%,0.784314%);fill-opacity:1;" d="M 25.949219 29.625 L 26 29.625 L 26 36.429688 L 25.949219 36.429688 Z M 25.199219 20.902344 L 26.148438 20.902344 L 26.148438 20.949219 L 25.199219 20.949219 Z M 58.5 30.167969 L 58.550781 30.167969 L 58.550781 30.613281 L 58.5 30.613281 Z M 35.351562 37.808594 L 35.75 37.808594 L 35.75 37.859375 L 35.351562 37.859375 Z M 13.300781 49.9375 L 13.550781 49.9375 L 13.550781 49.984375 L 13.300781 49.984375 Z M 60.898438 23.269531 L 60.949219 23.464844 Z M 51.25 60.191406 L 51.398438 60.238281 Z M 23.398438 60.191406 L 23.550781 60.238281 Z M 23.851562 36.332031 L 24 36.378906 Z M 60.101562 38.695312 L 60.199219 38.746094 Z M 60.101562 38.695312 "/>
<path style=" stroke:none;fill-rule:nonzero;fill:rgb(98.431373%,76.862745%,1.960784%);fill-opacity:1;" d="M 25.851562 13.949219 L 25.949219 14 Z M 25.851562 13.949219 "/>
</g>
</svg>
