<svg id="Capa_2" data-name="Capa 2" xmlns="http://www.w3.org/2000/svg" xmlns:xlink="http://www.w3.org/1999/xlink" viewBox="0 0 384 240.381" width="384" height="240.381"><defs><style>.cls-1 {
        fill: #fff !important;
      }

      .cls-2 {
        fill: #e84393;
      }

      .cls-3 {
        fill: #6c5ce7;
      }

      .cls-4 {
        clip-path: url(#clippath);
      }

      .cls-5 {
        stroke: #6c5ce7;
        stroke-width: 4px;
      }

      .cls-5, .cls-6 {
        fill: none;
        stroke-miterlimit: 10;
      }

      .cls-6 {
        stroke: #e84393;
        stroke-width: 2px;
      }</style><clipPath id="clippath"><path id="PARTE_POSTERIOR-2" data-name="PARTE POSTERIOR" class="cls-3" d="M68.769 171.966c1.073 -4.526 -1.606 -9.108 -5.93 -10.378 -4.122 -1.207 -8.637 0.915 -10.378 4.987a110.066 110.066 0 0 1 -9.305 -2.611c-4.65 -1.527 -7.019 -2.33 -9.294 -3.993 -2.516 -1.842 -3.959 -3.807 -5.762 -6.267a44.139 44.139 0 0 1 -4.667 -8.013c3.049 -1.365 4.054 -5.048 2.544 -7.452 -1.426 -2.263 -4.863 -3.038 -7.429 -1.235 -2.611 -5.183 -4.627 -9.67 -6.115 -13.152 -1.988 -4.661 -2.606 -6.789 -2.83 -9.569 -0.309 -3.835 0.87 -7.048 1.836 -9.064l13.32 -42.274c3.908 -12.399 17.128 -19.284 29.527 -15.375l25.422 8.238c-0.668 2.673 0.859 5.43 3.437 6.267 2.645 0.859 5.571 -0.562 6.537 -3.223l6.879 2.038c1.797 0.623 4.448 1.853 7.278 3.931 2.505 1.842 4.891 4.307 6.531 7.648 0.612 1.252 17.223 32.183 17.105 36.765 -0.079 3.077 0.18 7.817 -2.628 13.882 -2.499 -0.449 -4.953 0.949 -5.795 3.235 -0.91 2.46 0.27 5.324 2.763 6.469 -0.977 3.515 -1.949 7.036 -2.926 10.552 -4.223 -1.264 -8.654 0.741 -10.35 4.408 -1.921 4.144 0.084 9.496 4.717 11.456 -0.758 2.813 -2.808 8.738 -8.373 13.219 0 0 -2.521 1.814 -5.509 3.291 -12.702 6.273 -27.359 -3.774 -30.594 -3.774Z"/></clipPath></defs><g id="QUESO_CALIENTE" data-name="QUESO CALIENTE"><g><g id="BORDE_2" data-name="BORDE 2"><path class="cls-2" d="M383.236 177.296c-0.107 -1.235 -0.449 -2.42 -0.994 -3.493 0.618 -1.162 1.123 -2.476 1.432 -3.965 1.746 -8.367 -3.875 -15.746 -9.226 -19.531 -4.054 -2.864 -9.21 -4.442 -14.511 -4.442 -4.206 0 -8.249 0.971 -11.787 2.785 -0.983 -1.808 -2.521 -3.257 -4.386 -4.122 1.449 -0.741 2.875 -1.589 4.257 -2.538a9.575 9.575 0 0 0 3.65 -4.852 9.507 9.507 0 0 0 4.448 -3.038c2.909 -3.555 7.811 -11.08 7.918 -21.513 0.124 -11.45 -5.458 -19.632 -9.648 -24.147 2.342 -1.651 4.386 -3.835 5.986 -6.435 1.499 -0.118 2.965 -0.404 4.386 -0.865 4.74 -1.527 8.845 -4.953 11.546 -9.648a9.544 9.544 0 0 0 -1.735 -11.725 9.547 9.547 0 0 0 -6.542 -2.589c-1.045 0 -2.089 0.168 -3.089 0.517 -2.033 -3.313 -5.099 -8.238 -11.467 -11.209 -1.791 -0.837 -5.464 -2.235 -9.917 -2.235 -2.965 0 -5.795 0.606 -8.407 1.808 -3.701 1.696 -6.795 4.526 -9.019 8.188 -0.646 0.056 -1.28 0.146 -1.909 0.258 -0.236 -0.533 -0.5 -1.067 -0.814 -1.6 -2.729 -4.627 -7.648 -7.665 -13.854 -8.547 -0.966 -0.135 -1.949 -0.208 -2.926 -0.208 -1.539 0 -3.06 0.168 -4.56 0.5a18.082 18.082 0 0 0 -4.582 -0.073c-0.943 0.107 -1.876 0.286 -2.791 0.545 -1.494 -0.387 -3.212 -0.663 -5.093 -0.663 -2.448 0 -4.824 0.466 -7.059 1.381 -3.864 1.584 -6.25 3.998 -7.57 5.745a17.408 17.408 0 0 0 -1.623 2.589c-0.359 -3.032 -2.016 -5.464 -3.083 -7.019 -1.022 -1.494 -4.139 -6.042 -9.895 -6.042h-0.118c-2.246 0.028 -4.01 0.741 -5.223 1.365 -1.881 0.466 -3.19 1.32 -3.729 1.668 -0.213 0.14 -0.421 0.281 -0.618 0.427 -0.708 -0.011 -1.404 -0.039 -2.106 -0.079l-0.236 -0.011c-0.702 -0.039 -1.758 -0.095 -2.875 -0.095 -8.036 0 -11.141 3.835 -12.332 7.092h-1.224c-3.229 0 -6.756 0.095 -9.535 0.197 -3.437 -3.824 -8.277 -3.835 -9.895 -3.835 -0.567 0 -1.157 0.017 -1.73 0.039 -0.331 0.011 -0.657 0.022 -0.971 0.028 -1.949 0 -5.874 -0.567 -6.879 -0.825 -0.427 -0.124 -1.735 -0.494 -3.386 -0.494 -2.482 0 -4.88 0.848 -6.744 2.381 -0.208 0.174 -0.404 0.348 -0.59 0.528 -1.657 -4.038 -5.621 -6.89 -10.248 -6.89h-0.606c-2.965 0 -5.75 1.157 -7.845 3.251s-3.246 4.886 -3.24 7.851v0.59c-0.601 -0.101 -1.207 -0.152 -1.814 -0.152 -0.702 0 -1.387 0.073 -2.055 0.197 -1.348 -0.635 -2.83 -0.988 -4.375 -0.988 -0.387 0 -0.781 0.022 -1.168 0.067l-1.791 0.202c-0.994 0.112 -1.949 0.382 -2.847 0.758 -0.112 0 -0.219 -0.011 -0.331 -0.011 -0.545 0 -1.089 0.051 -1.629 0.135 -1.876 -1.842 -4.442 -2.965 -7.216 -2.965 -0.477 0 -0.96 0.034 -1.438 0.101a10.894 10.894 0 0 0 -9.457 -2.695l-1.045 0.202c-3.661 0.702 -6.542 3.128 -7.935 6.289a10.248 10.248 0 0 0 -6.419 4.464c-1.499 2.314 -1.999 5.071 -1.421 7.766l0.432 1.999c0.292 1.348 0.848 2.583 1.6 3.673a10.821 10.821 0 0 0 0.028 7.227c1.089 3.049 3.459 5.436 6.508 6.542l1.118 0.404c0.421 0.152 0.854 0.27 1.286 0.371 0.112 0.101 0.225 0.208 0.343 0.309 0.197 0.168 0.399 0.326 0.606 0.477 0.112 0.079 0.225 0.157 0.337 0.23a9.49 9.49 0 0 0 3.442 1.398 9.547 9.547 0 0 0 -2.533 2.476c-1.348 1.932 -2.538 3.942 -3.588 6.02 -2.347 -4.773 -5.369 -10.692 -9.255 -18.077 -0.359 -0.685 -0.612 -1.157 -0.713 -1.359 -2.134 -4.33 -5.301 -8.058 -9.423 -11.091a40.994 40.994 0 0 0 -3.774 -2.465c0.736 0.067 1.454 0.112 2.151 0.112 6.256 0 9.833 -2.679 11.731 -4.93 1.673 -1.982 3.572 -5.464 3.111 -10.776 -0.112 -1.275 -0.376 -2.617 -0.758 -3.981 0.865 -1.14 1.6 -2.302 2.179 -3.459 2.409 -4.813 1.915 -8.772 1.073 -11.242 -1.6 -4.717 -5.677 -8.047 -11.596 -9.664 -2.106 -5.234 -5.655 -9.328 -11.091 -10.451 -0.859 -0.18 -1.741 -0.27 -2.628 -0.27 -4.543 0 -8.609 2.325 -12.017 5.79 -1.016 -0.129 -2.005 -0.197 -2.954 -0.197 -6.2 0 -9.754 2.651 -11.652 4.874 -1.696 1.988 -3.616 5.486 -3.145 10.849 0.112 1.28 0.376 2.622 0.752 3.993 -0.859 1.134 -1.595 2.286 -2.173 3.437 -2.392 4.768 -1.909 8.704 -1.084 11.164 0.27 0.797 0.612 1.556 1.022 2.274 -5.924 -1.921 -11.49 -3.723 -11.501 -3.729a33.132 33.132 0 0 0 -9.951 -1.533c-14.511 0 -27.191 9.305 -31.554 23.153L2.516 112.896C0.545 117.254 -0.275 121.724 0.079 126.182c0.348 4.375 1.477 7.66 3.566 12.562 1.954 4.571 4.094 9.181 6.368 13.691 0.865 1.724 2.224 3.122 3.875 4.049 -0.051 1.449 0.225 2.903 0.831 4.257a53.348 53.348 0 0 0 5.683 9.76c2.027 2.763 4.116 5.616 7.823 8.322 3.538 2.589 7.064 3.751 11.944 5.357 3.285 1.084 6.688 2.038 10.119 2.841 0.73 0.168 1.46 0.253 2.179 0.253 2.589 0 5.054 -1.056 6.84 -2.886 0.225 1.679 0.898 3.285 1.971 4.65 1.522 1.926 3.712 3.173 6.104 3.527 0.528 0.197 1.466 0.584 2.184 0.887 2.016 0.837 4.633 1.926 7.66 2.881l-6.059 6.475a9.547 9.547 0 0 0 3.223 15.308c-0.298 3.661 0.736 6.626 1.337 8.002 0.533 1.219 1.308 2.286 2.257 3.167 1.32 5.632 5.846 11.113 11.804 11.113 1.286 0 2.544 -0.247 3.729 -0.741 1.842 -0.764 3.768 -2.28 4.936 -4.588 0.528 -0.163 1.095 -0.359 1.707 -0.618 0.927 -0.387 2.768 -1.162 4.605 -2.684 1.398 0.747 2.948 1.134 4.509 1.134 1.37 0 2.746 -0.292 4.032 -0.893 3.257 -1.516 5.385 -4.728 5.515 -8.317l0.87 -24.338a29.875 29.875 0 0 0 9.569 6.222c3.577 1.454 7.413 2.19 11.4 2.19 5.571 0 10.041 -1.471 11.725 -2.022 4.914 -1.617 9.479 -4.346 13.23 -7.884 0.882 0.573 1.808 1.089 2.774 1.539 3.055 1.421 6.334 2.145 9.749 2.145 2.594 0 4.942 -0.427 6.896 -0.983 1.702 0.747 3.493 1.303 5.369 1.651 0.59 0.112 1.179 0.163 1.769 0.163 1.134 0 2.246 -0.208 3.291 -0.59v0.124c0.185 2.768 1.556 5.324 3.768 7.003a9.558 9.558 0 0 0 7.755 1.735l15.499 -3.291c1.522 2.971 4.56 5.054 8.131 5.189l9.086 0.354c0.124 0 0.253 0.006 0.376 0.006 3.97 0 7.401 -2.443 8.828 -5.947 4.352 2.808 9.518 4.33 14.932 4.33 6.379 0 12.708 -2.162 17.83 -6.087 0.208 -0.157 0.404 -0.326 0.595 -0.5 0.399 0.067 0.803 0.118 1.219 0.135l7.985 0.303c0.124 0 0.241 0.006 0.365 0.006 2.297 0 4.515 -0.825 6.25 -2.33 1.191 0.528 2.499 0.814 3.858 0.814h7.076c5.105 0 9.305 -4.015 9.541 -9.114l0.208 -4.594c1.73 2.078 3.948 4.066 6.84 5.638 3.543 1.921 7.486 2.898 11.72 2.898 1.269 0 2.561 -0.09 3.841 -0.27 2.538 -0.354 4.751 -1.702 6.245 -3.633 4.346 2.797 9.502 4.313 14.904 4.313 6.379 0 12.708 -2.162 17.83 -6.087a9.541 9.541 0 0 0 3.706 -8.395l-0.606 -7.064Zm-184.472 -20.503c-0.545 -0.213 -1.101 -0.393 -1.685 -0.511l-10.715 -2.089c-0.618 -0.118 -1.23 -0.18 -1.836 -0.18 -0.258 0 -0.517 0.011 -0.769 0.034 2.87 -1.769 5.812 -4.094 8.496 -7.143a42.791 42.791 0 0 0 7.929 9.378c-0.494 0.135 -0.971 0.298 -1.426 0.505Zm-35.85 -47.025s0.017 0.051 0.028 0.079c0.107 1.112 0.393 2.213 0.887 3.24 1.69 3.532 1.348 6.25 0.932 6.778 0 0 -0.185 0.163 -0.623 0.281 -0.118 0.034 -0.32 0.067 -0.595 0.067 -0.449 0 -0.831 -0.095 -1.078 -0.197 -0.095 -0.494 -0.213 -1.348 -0.298 -2.724 -0.168 -2.819 -0.028 -5.7 0.399 -8.614l0.354 1.095Zm59.722 59.845 -0.107 -2.533c0.168 0.034 0.343 0.062 0.511 0.09 -0.236 0.786 -0.382 1.606 -0.404 2.443m27.309 -9.518 2.123 -6.441c0.898 1.381 2.162 2.544 3.712 3.324 1.022 0.511 2.05 0.994 3.077 1.449 -3.324 0.32 -6.497 1.252 -9.339 2.729 0.163 -0.343 0.303 -0.696 0.427 -1.061m1.629 -80.123c0.079 0.067 0.157 0.14 0.241 0.219l0.051 0.045c1.061 1.005 3.044 2.87 6.441 3.364 0.522 0.079 1.056 0.112 1.584 0.112 2.241 0 4.403 -0.668 6.452 -1.999 2.089 -1.359 3.583 -3.111 4.442 -5.2 0.96 -2.347 1.848 -6.963 -2.527 -12.107a11.428 11.428 0 0 0 3.257 -3.122c-0.208 4.414 1.005 8.788 2.067 12.624 0.64 2.308 1.466 5.279 2.898 8.042 -9.26 0.225 -17.509 3.931 -22.659 10.102 -3.875 -3.633 -8.524 -6.514 -13.584 -8.457 0.781 0.157 1.578 0.247 2.392 0.247 0.387 0 0.775 -0.017 1.157 -0.056 1.814 -0.18 3.594 -0.803 5.144 -1.797 0.668 -0.427 1.556 -1.101 2.651 -2.016Zm-70.217 5.088h0.674c3.066 0 5.846 -1.252 7.856 -3.274 0.562 0.562 1.168 1.061 1.808 1.483 1.825 1.207 3.981 1.842 6.239 1.842 3.375 0 6.902 -1.415 10.776 -4.33 0.893 -0.674 1.741 -1.404 2.538 -2.184l1.432 0.387c0.82 0.219 1.657 0.331 2.488 0.331 1.904 0 3.779 -0.567 5.385 -1.662a11.624 11.624 0 0 0 3.173 -3.246c2.797 -0.073 5.217 -0.135 7.25 -0.18 0.174 1.005 0.477 1.988 0.915 2.914 1.134 2.409 3.077 4.307 5.419 5.464 -3.875 -1.174 -7.929 -1.803 -12.029 -1.803 -3.847 0 -7.592 0.567 -11.13 1.69 -7.929 2.51 -14.926 7.89 -19.997 15.19l-1.887 -3.937c-1.629 -3.397 -5.032 -5.425 -8.614 -5.425 -1.05 0 -2.117 0.174 -3.156 0.539l-13.073 4.582c-2.123 0.741 -3.819 2.162 -4.925 3.937 -1.207 -2.19 -3.263 -3.908 -5.868 -4.616l-12.775 -3.448c2.274 -0.859 4.38 -2.19 5.975 -4.043 2.067 2.493 5.138 3.959 8.407 3.959 1.516 0 2.993 -0.309 4.38 -0.921 4.116 -1.808 7.463 -4.043 9.945 -6.643 0.14 -0.146 0.27 -0.292 0.404 -0.444 2.033 2.347 5.032 3.847 8.373 3.847ZM128.766 154.592l2.241 -8.081c0.168 -0.612 0.275 -1.235 0.32 -1.848 1.005 1.353 2.1 2.645 3.285 3.847 1.23 1.247 2.555 2.398 3.948 3.459 -3.431 0.365 -6.733 1.247 -9.794 2.622"/><path class="cls-2" d="M383.236 175.701c-0.107 -1.235 -0.449 -2.42 -0.994 -3.493 0.618 -1.162 1.123 -2.476 1.432 -3.965 1.746 -8.367 -3.875 -15.746 -9.226 -19.531 -4.054 -2.864 -9.21 -4.442 -14.511 -4.442 -4.206 0 -8.249 0.971 -11.787 2.785 -0.983 -1.808 -2.521 -3.257 -4.386 -4.122 1.449 -0.741 2.875 -1.589 4.257 -2.538a9.575 9.575 0 0 0 3.65 -4.852 9.507 9.507 0 0 0 4.448 -3.038c2.909 -3.555 7.811 -11.08 7.918 -21.513 0.124 -11.45 -5.458 -19.632 -9.648 -24.147 2.342 -1.651 4.386 -3.835 5.986 -6.435 1.499 -0.118 2.965 -0.404 4.386 -0.865 4.74 -1.527 8.845 -4.953 11.546 -9.648a9.544 9.544 0 0 0 -1.735 -11.725 9.547 9.547 0 0 0 -6.542 -2.589c-1.045 0 -2.089 0.168 -3.089 0.517 -2.033 -3.313 -5.099 -8.238 -11.467 -11.209 -1.791 -0.837 -5.464 -2.235 -9.917 -2.235 -2.965 0 -5.795 0.606 -8.407 1.808 -3.701 1.696 -6.795 4.526 -9.019 8.188 -0.646 0.056 -1.28 0.146 -1.909 0.258 -0.236 -0.533 -0.5 -1.067 -0.814 -1.6 -2.729 -4.627 -7.648 -7.665 -13.854 -8.547 -0.966 -0.135 -1.949 -0.208 -2.926 -0.208 -1.539 0 -3.06 0.168 -4.56 0.5a18.082 18.082 0 0 0 -4.582 -0.073c-0.943 0.107 -1.876 0.286 -2.791 0.545 -1.494 -0.387 -3.212 -0.663 -5.093 -0.663 -2.448 0 -4.824 0.466 -7.059 1.381 -3.864 1.584 -6.25 3.998 -7.57 5.745a17.408 17.408 0 0 0 -1.623 2.589c-0.359 -3.032 -2.016 -5.464 -3.083 -7.019 -1.022 -1.494 -4.139 -6.042 -9.895 -6.042h-0.118c-2.246 0.028 -4.01 0.741 -5.223 1.365 -1.881 0.466 -3.19 1.32 -3.729 1.668 -0.213 0.14 -0.421 0.281 -0.618 0.427 -0.708 -0.011 -1.404 -0.039 -2.106 -0.079l-0.236 -0.011c-0.702 -0.039 -1.758 -0.095 -2.875 -0.095 -8.036 0 -11.141 3.835 -12.332 7.092h-1.224c-3.229 0 -6.756 0.095 -9.535 0.197 -3.437 -3.824 -8.277 -3.835 -9.895 -3.835 -0.567 0 -1.157 0.017 -1.73 0.039 -0.331 0.011 -0.657 0.022 -0.971 0.028 -1.949 0 -5.874 -0.567 -6.879 -0.825 -0.427 -0.124 -1.735 -0.494 -3.386 -0.494 -2.482 0 -4.88 0.848 -6.744 2.381 -0.208 0.174 -0.404 0.348 -0.59 0.528 -1.657 -4.038 -5.621 -6.89 -10.248 -6.89h-0.606c-2.965 0 -5.75 1.157 -7.845 3.251s-3.246 4.886 -3.24 7.851v0.59c-0.601 -0.101 -1.207 -0.152 -1.814 -0.152 -0.702 0 -1.387 0.073 -2.055 0.197 -1.348 -0.635 -2.83 -0.988 -4.375 -0.988 -0.387 0 -0.781 0.022 -1.168 0.067l-1.791 0.202c-0.994 0.112 -1.949 0.382 -2.847 0.758 -0.112 0 -0.219 -0.011 -0.331 -0.011 -0.545 0 -1.089 0.051 -1.629 0.135 -1.876 -1.842 -4.442 -2.965 -7.216 -2.965 -0.477 0 -0.96 0.034 -1.438 0.101a10.894 10.894 0 0 0 -9.457 -2.695l-1.045 0.202c-3.661 0.702 -6.542 3.128 -7.935 6.289a10.248 10.248 0 0 0 -6.419 4.464c-1.499 2.314 -1.999 5.071 -1.421 7.766l0.432 1.999c0.292 1.348 0.848 2.583 1.6 3.673a10.821 10.821 0 0 0 0.028 7.227c1.089 3.049 3.459 5.436 6.508 6.542l1.118 0.404c0.421 0.152 0.854 0.27 1.286 0.371 0.112 0.101 0.225 0.208 0.343 0.309 0.197 0.168 0.399 0.326 0.606 0.477 0.112 0.079 0.225 0.157 0.337 0.23a9.49 9.49 0 0 0 3.442 1.398 9.547 9.547 0 0 0 -2.533 2.476c-1.348 1.932 -2.538 3.942 -3.588 6.02 -2.347 -4.773 -5.369 -10.692 -9.255 -18.077 -0.359 -0.685 -0.612 -1.157 -0.713 -1.359 -2.134 -4.33 -5.301 -8.058 -9.423 -11.091a40.994 40.994 0 0 0 -3.774 -2.465c0.736 0.067 1.454 0.112 2.151 0.112 6.256 0 9.833 -2.679 11.731 -4.93 1.673 -1.982 3.572 -5.464 3.111 -10.776 -0.112 -1.275 -0.376 -2.617 -0.758 -3.981 0.865 -1.14 1.6 -2.302 2.179 -3.459 2.409 -4.813 1.915 -8.772 1.073 -11.242 -1.6 -4.717 -5.677 -8.047 -11.596 -9.664 -2.106 -5.234 -5.655 -9.328 -11.091 -10.451 -0.859 -0.18 -1.741 -0.27 -2.628 -0.27 -4.543 0 -8.609 2.325 -12.017 5.79 -1.016 -0.129 -2.005 -0.197 -2.954 -0.197 -6.2 0 -9.754 2.651 -11.652 4.874 -1.696 1.988 -3.616 5.486 -3.145 10.849 0.112 1.28 0.376 2.622 0.752 3.993 -0.859 1.134 -1.595 2.286 -2.173 3.437 -2.392 4.768 -1.909 8.704 -1.084 11.164 0.27 0.797 0.612 1.556 1.022 2.274 -5.924 -1.921 -11.49 -3.723 -11.501 -3.729a33.132 33.132 0 0 0 -9.951 -1.533c-14.511 0 -27.191 9.305 -31.554 23.153L2.516 111.307C0.545 115.664 -0.275 120.134 0.079 124.593c0.348 4.375 1.477 7.66 3.566 12.562 1.954 4.571 4.094 9.181 6.368 13.691 0.865 1.724 2.224 3.122 3.875 4.049 -0.051 1.449 0.225 2.903 0.831 4.257a53.348 53.348 0 0 0 5.683 9.76c2.027 2.763 4.116 5.616 7.823 8.322 3.538 2.589 7.064 3.751 11.944 5.357 3.285 1.084 6.688 2.038 10.119 2.841 0.73 0.168 1.46 0.253 2.179 0.253 2.589 0 5.054 -1.056 6.84 -2.886 0.225 1.679 0.898 3.285 1.971 4.65 1.522 1.926 3.712 3.173 6.104 3.527 0.528 0.197 1.466 0.584 2.184 0.887 2.016 0.837 4.633 1.926 7.66 2.881l-6.059 6.475a9.547 9.547 0 0 0 3.223 15.308c-0.298 3.661 0.736 6.626 1.337 8.002 0.533 1.219 1.308 2.286 2.257 3.167 1.32 5.632 5.846 11.113 11.804 11.113 1.286 0 2.544 -0.247 3.729 -0.741 1.842 -0.764 3.768 -2.28 4.936 -4.588 0.528 -0.163 1.095 -0.359 1.707 -0.618 0.927 -0.387 2.768 -1.162 4.605 -2.684 1.398 0.747 2.948 1.134 4.509 1.134 1.37 0 2.746 -0.292 4.032 -0.893 3.257 -1.516 5.385 -4.728 5.515 -8.317l0.87 -24.338a29.875 29.875 0 0 0 9.569 6.222c3.577 1.454 7.413 2.19 11.4 2.19 5.571 0 10.041 -1.471 11.725 -2.022 4.914 -1.617 9.479 -4.346 13.23 -7.884 0.882 0.573 1.808 1.089 2.774 1.539 3.055 1.421 6.334 2.145 9.749 2.145 2.594 0 4.942 -0.427 6.896 -0.983 1.702 0.747 3.493 1.303 5.369 1.651 0.59 0.112 1.179 0.163 1.769 0.163 1.134 0 2.246 -0.208 3.291 -0.59v0.124c0.185 2.768 1.556 5.324 3.768 7.003a9.558 9.558 0 0 0 7.755 1.735l15.499 -3.291c1.522 2.971 4.56 5.054 8.131 5.189l9.086 0.354c0.124 0 0.253 0.006 0.376 0.006 3.97 0 7.401 -2.443 8.828 -5.947 4.352 2.808 9.518 4.33 14.932 4.33 6.379 0 12.708 -2.162 17.83 -6.087 0.208 -0.157 0.404 -0.326 0.595 -0.5 0.399 0.067 0.803 0.118 1.219 0.135l7.985 0.303c0.124 0 0.241 0.006 0.365 0.006 2.297 0 4.515 -0.825 6.25 -2.33 1.191 0.528 2.499 0.814 3.858 0.814h7.076c5.105 0 9.305 -4.015 9.541 -9.114l0.208 -4.594c1.73 2.078 3.948 4.066 6.84 5.638 3.543 1.921 7.486 2.898 11.72 2.898 1.269 0 2.561 -0.09 3.841 -0.27 2.538 -0.354 4.751 -1.702 6.245 -3.633 4.346 2.797 9.502 4.313 14.904 4.313 6.379 0 12.708 -2.162 17.83 -6.087a9.541 9.541 0 0 0 3.706 -8.395l-0.606 -7.064Zm-184.472 -20.503c-0.545 -0.213 -1.101 -0.393 -1.685 -0.511l-10.715 -2.089c-0.618 -0.118 -1.23 -0.18 -1.836 -0.18 -0.258 0 -0.517 0.011 -0.769 0.034 2.87 -1.769 5.812 -4.094 8.496 -7.143a42.791 42.791 0 0 0 7.929 9.378c-0.494 0.135 -0.971 0.298 -1.426 0.505Zm-35.85 -47.025s0.017 0.051 0.028 0.079c0.107 1.112 0.393 2.213 0.887 3.24 1.69 3.532 1.348 6.25 0.932 6.778 0 0 -0.185 0.163 -0.623 0.281 -0.118 0.034 -0.32 0.067 -0.595 0.067 -0.449 0 -0.831 -0.095 -1.078 -0.197 -0.095 -0.494 -0.213 -1.348 -0.298 -2.724 -0.168 -2.819 -0.028 -5.7 0.399 -8.614l0.354 1.095ZM222.636 168.019l-0.107 -2.533c0.168 0.034 0.343 0.062 0.511 0.09 -0.236 0.786 -0.382 1.606 -0.404 2.443m27.309 -9.518 2.123 -6.441c0.898 1.381 2.162 2.544 3.712 3.324 1.022 0.511 2.05 0.994 3.077 1.449 -3.324 0.32 -6.497 1.252 -9.339 2.729 0.163 -0.343 0.303 -0.696 0.427 -1.061m1.629 -80.123c0.079 0.067 0.157 0.14 0.241 0.219l0.051 0.045c1.061 1.005 3.044 2.87 6.441 3.364 0.522 0.079 1.056 0.112 1.584 0.112 2.241 0 4.403 -0.668 6.452 -1.999 2.089 -1.359 3.583 -3.111 4.442 -5.2 0.96 -2.347 1.848 -6.963 -2.527 -12.107a11.428 11.428 0 0 0 3.257 -3.122c-0.208 4.414 1.005 8.788 2.067 12.624 0.64 2.308 1.466 5.279 2.898 8.042 -9.26 0.225 -17.509 3.931 -22.659 10.102 -3.875 -3.633 -8.524 -6.514 -13.584 -8.457 0.781 0.157 1.578 0.247 2.392 0.247 0.387 0 0.775 -0.017 1.157 -0.056 1.814 -0.18 3.594 -0.803 5.144 -1.797 0.668 -0.427 1.556 -1.101 2.651 -2.016Zm-70.217 5.088h0.674c3.066 0 5.846 -1.252 7.856 -3.274 0.562 0.562 1.168 1.061 1.808 1.483 1.825 1.207 3.981 1.842 6.239 1.842 3.375 0 6.902 -1.415 10.776 -4.33 0.893 -0.674 1.741 -1.404 2.538 -2.184l1.432 0.387c0.82 0.219 1.657 0.331 2.488 0.331 1.904 0 3.779 -0.567 5.385 -1.662a11.624 11.624 0 0 0 3.173 -3.246c2.797 -0.073 5.217 -0.135 7.25 -0.18 0.174 1.005 0.477 1.988 0.915 2.914 1.134 2.409 3.077 4.307 5.419 5.464 -3.875 -1.174 -7.929 -1.803 -12.029 -1.803 -3.847 0 -7.592 0.567 -11.13 1.69 -7.929 2.51 -14.926 7.89 -19.997 15.19l-1.887 -3.937c-1.629 -3.397 -5.032 -5.425 -8.614 -5.425 -1.05 0 -2.117 0.174 -3.156 0.539l-13.073 4.582c-2.123 0.741 -3.819 2.162 -4.925 3.937 -1.207 -2.19 -3.263 -3.908 -5.868 -4.616l-12.775 -3.448c2.274 -0.859 4.38 -2.19 5.975 -4.043 2.067 2.493 5.138 3.959 8.407 3.959 1.516 0 2.993 -0.309 4.38 -0.921 4.116 -1.808 7.463 -4.043 9.945 -6.643 0.14 -0.146 0.27 -0.292 0.404 -0.444 2.033 2.347 5.032 3.847 8.373 3.847ZM128.766 152.997l2.241 -8.081c0.168 -0.612 0.275 -1.235 0.32 -1.848 1.005 1.353 2.1 2.645 3.285 3.847 1.23 1.247 2.555 2.398 3.948 3.459 -3.431 0.365 -6.733 1.247 -9.794 2.622"/><path class="cls-2" d="M383.236 174.112c-0.107 -1.235 -0.449 -2.42 -0.994 -3.493 0.618 -1.162 1.123 -2.476 1.432 -3.965 1.746 -8.367 -3.875 -15.746 -9.226 -19.531 -4.054 -2.864 -9.21 -4.442 -14.511 -4.442 -4.206 0 -8.249 0.971 -11.787 2.785 -0.983 -1.808 -2.521 -3.257 -4.386 -4.122 1.449 -0.741 2.875 -1.589 4.257 -2.538a9.575 9.575 0 0 0 3.65 -4.852 9.507 9.507 0 0 0 4.448 -3.038c2.909 -3.555 7.811 -11.08 7.918 -21.513 0.124 -11.45 -5.458 -19.632 -9.648 -24.147 2.342 -1.651 4.386 -3.835 5.986 -6.435 1.499 -0.118 2.965 -0.404 4.386 -0.865 4.74 -1.527 8.845 -4.953 11.546 -9.648a9.544 9.544 0 0 0 -1.735 -11.725 9.547 9.547 0 0 0 -6.542 -2.589c-1.045 0 -2.089 0.168 -3.089 0.517 -2.033 -3.313 -5.099 -8.238 -11.467 -11.209 -1.791 -0.837 -5.464 -2.235 -9.917 -2.235 -2.965 0 -5.795 0.606 -8.407 1.808 -3.701 1.696 -6.795 4.526 -9.019 8.188 -0.646 0.056 -1.28 0.146 -1.909 0.258 -0.236 -0.533 -0.5 -1.067 -0.814 -1.6 -2.729 -4.627 -7.648 -7.665 -13.854 -8.547 -0.966 -0.135 -1.949 -0.208 -2.926 -0.208 -1.539 0 -3.06 0.168 -4.56 0.5a18.082 18.082 0 0 0 -4.582 -0.073c-0.943 0.107 -1.876 0.286 -2.791 0.545 -1.494 -0.387 -3.212 -0.663 -5.093 -0.663 -2.448 0 -4.824 0.466 -7.059 1.381 -3.864 1.584 -6.25 3.998 -7.57 5.745a17.408 17.408 0 0 0 -1.623 2.589c-0.359 -3.032 -2.016 -5.464 -3.083 -7.019 -1.022 -1.494 -4.139 -6.042 -9.895 -6.042h-0.118c-2.246 0.028 -4.01 0.741 -5.223 1.365 -1.881 0.466 -3.19 1.32 -3.729 1.668 -0.213 0.14 -0.421 0.281 -0.618 0.427 -0.708 -0.011 -1.404 -0.039 -2.106 -0.079l-0.236 -0.011c-0.702 -0.039 -1.758 -0.095 -2.875 -0.095 -8.036 0 -11.141 3.835 -12.332 7.092h-1.224c-3.229 0 -6.756 0.095 -9.535 0.197 -3.437 -3.824 -8.277 -3.835 -9.895 -3.835 -0.567 0 -1.157 0.017 -1.73 0.039 -0.331 0.011 -0.657 0.022 -0.971 0.028 -1.949 0 -5.874 -0.567 -6.879 -0.825 -0.427 -0.124 -1.735 -0.494 -3.386 -0.494 -2.482 0 -4.88 0.848 -6.744 2.381 -0.208 0.174 -0.404 0.348 -0.59 0.528 -1.657 -4.038 -5.621 -6.89 -10.248 -6.89h-0.606c-2.965 0 -5.75 1.157 -7.845 3.251s-3.246 4.886 -3.24 7.851v0.59c-0.601 -0.101 -1.207 -0.152 -1.814 -0.152 -0.702 0 -1.387 0.073 -2.055 0.197 -1.348 -0.635 -2.83 -0.988 -4.375 -0.988 -0.387 0 -0.781 0.022 -1.168 0.067l-1.791 0.202c-0.994 0.112 -1.949 0.382 -2.847 0.758 -0.112 0 -0.219 -0.011 -0.331 -0.011 -0.545 0 -1.089 0.051 -1.629 0.135 -1.876 -1.842 -4.442 -2.965 -7.216 -2.965 -0.477 0 -0.96 0.034 -1.438 0.101a10.894 10.894 0 0 0 -9.457 -2.695l-1.045 0.202c-3.661 0.702 -6.542 3.128 -7.935 6.289a10.248 10.248 0 0 0 -6.419 4.464c-1.499 2.314 -1.999 5.071 -1.421 7.766l0.432 1.999c0.292 1.348 0.848 2.583 1.6 3.673a10.821 10.821 0 0 0 0.028 7.227c1.089 3.049 3.459 5.436 6.508 6.542l1.118 0.404c0.421 0.152 0.854 0.27 1.286 0.371 0.112 0.101 0.225 0.208 0.343 0.309 0.197 0.168 0.399 0.326 0.606 0.477 0.112 0.079 0.225 0.157 0.337 0.23a9.49 9.49 0 0 0 3.442 1.398 9.547 9.547 0 0 0 -2.533 2.476c-1.348 1.932 -2.538 3.942 -3.588 6.02 -2.347 -4.773 -5.369 -10.692 -9.255 -18.077 -0.359 -0.685 -0.612 -1.157 -0.713 -1.359 -2.134 -4.33 -5.301 -8.058 -9.423 -11.091a40.994 40.994 0 0 0 -3.774 -2.465c0.736 0.067 1.454 0.112 2.151 0.112 6.256 0 9.833 -2.679 11.731 -4.93 1.673 -1.982 3.572 -5.464 3.111 -10.776 -0.112 -1.275 -0.376 -2.617 -0.758 -3.981 0.865 -1.14 1.6 -2.302 2.179 -3.459 2.409 -4.813 1.915 -8.772 1.073 -11.242 -1.6 -4.717 -5.677 -8.047 -11.596 -9.664 -2.106 -5.234 -5.655 -9.328 -11.091 -10.451 -0.859 -0.18 -1.741 -0.27 -2.628 -0.27 -4.543 0 -8.609 2.325 -12.017 5.79 -1.016 -0.129 -2.005 -0.197 -2.954 -0.197 -6.2 0 -9.754 2.651 -11.652 4.874 -1.696 1.988 -3.616 5.486 -3.145 10.849 0.112 1.28 0.376 2.622 0.752 3.993 -0.859 1.134 -1.595 2.286 -2.173 3.437 -2.392 4.768 -1.909 8.704 -1.084 11.164 0.27 0.797 0.612 1.556 1.022 2.274 -5.924 -1.921 -11.49 -3.723 -11.501 -3.729a33.132 33.132 0 0 0 -9.951 -1.533c-14.511 0 -27.191 9.305 -31.554 23.153L2.516 109.712C0.545 114.07 -0.275 118.54 0.079 122.998c0.348 4.375 1.477 7.66 3.566 12.562 1.954 4.571 4.094 9.181 6.368 13.691 0.865 1.724 2.224 3.122 3.875 4.049 -0.051 1.449 0.225 2.903 0.831 4.257a53.348 53.348 0 0 0 5.683 9.76c2.027 2.763 4.116 5.616 7.823 8.322 3.538 2.589 7.064 3.751 11.944 5.357 3.285 1.084 6.688 2.038 10.119 2.841 0.73 0.168 1.46 0.253 2.179 0.253 2.589 0 5.054 -1.056 6.84 -2.886 0.225 1.679 0.898 3.285 1.971 4.65 1.522 1.926 3.712 3.173 6.104 3.527 0.528 0.197 1.466 0.584 2.184 0.887 2.016 0.837 4.633 1.926 7.66 2.881l-6.059 6.475a9.547 9.547 0 0 0 3.223 15.308c-0.298 3.661 0.736 6.626 1.337 8.002 0.533 1.219 1.308 2.286 2.257 3.167 1.32 5.632 5.846 11.113 11.804 11.113 1.286 0 2.544 -0.247 3.729 -0.741 1.842 -0.764 3.768 -2.28 4.936 -4.588 0.528 -0.163 1.095 -0.359 1.707 -0.618 0.927 -0.387 2.768 -1.162 4.605 -2.684 1.398 0.747 2.948 1.134 4.509 1.134 1.37 0 2.746 -0.292 4.032 -0.893 3.257 -1.516 5.385 -4.728 5.515 -8.317l0.87 -24.338a29.875 29.875 0 0 0 9.569 6.222c3.577 1.454 7.413 2.19 11.4 2.19 5.571 0 10.041 -1.471 11.725 -2.022 4.914 -1.617 9.479 -4.346 13.23 -7.884 0.882 0.573 1.808 1.089 2.774 1.539 3.055 1.421 6.334 2.145 9.749 2.145 2.594 0 4.942 -0.427 6.896 -0.983 1.702 0.747 3.493 1.303 5.369 1.651 0.59 0.112 1.179 0.163 1.769 0.163 1.134 0 2.246 -0.208 3.291 -0.59v0.124c0.185 2.768 1.556 5.324 3.768 7.003a9.558 9.558 0 0 0 7.755 1.735l15.499 -3.291c1.522 2.971 4.56 5.054 8.131 5.189l9.086 0.354c0.124 0 0.253 0.006 0.376 0.006 3.97 0 7.401 -2.443 8.828 -5.947 4.352 2.808 9.518 4.33 14.932 4.33 6.379 0 12.708 -2.162 17.83 -6.087 0.208 -0.157 0.404 -0.326 0.595 -0.5 0.399 0.067 0.803 0.118 1.219 0.135l7.985 0.303c0.124 0 0.241 0.006 0.365 0.006 2.297 0 4.515 -0.825 6.25 -2.33 1.191 0.528 2.499 0.814 3.858 0.814h7.076c5.105 0 9.305 -4.015 9.541 -9.114l0.208 -4.594c1.73 2.078 3.948 4.066 6.84 5.638 3.543 1.921 7.486 2.898 11.72 2.898 1.269 0 2.561 -0.09 3.841 -0.27 2.538 -0.354 4.751 -1.702 6.245 -3.633 4.346 2.797 9.502 4.313 14.904 4.313 6.379 0 12.708 -2.162 17.83 -6.087a9.541 9.541 0 0 0 3.706 -8.395l-0.606 -7.064Zm-184.472 -20.503c-0.545 -0.213 -1.101 -0.393 -1.685 -0.511l-10.715 -2.089c-0.618 -0.118 -1.23 -0.18 -1.836 -0.18 -0.258 0 -0.517 0.011 -0.769 0.034 2.87 -1.769 5.812 -4.094 8.496 -7.143a42.791 42.791 0 0 0 7.929 9.378c-0.494 0.135 -0.971 0.298 -1.426 0.505Zm-35.85 -47.025s0.017 0.051 0.028 0.079c0.107 1.112 0.393 2.213 0.887 3.24 1.69 3.532 1.348 6.25 0.932 6.778 0 0 -0.185 0.163 -0.623 0.281 -0.118 0.034 -0.32 0.067 -0.595 0.067 -0.449 0 -0.831 -0.095 -1.078 -0.197 -0.095 -0.494 -0.213 -1.348 -0.298 -2.724 -0.168 -2.819 -0.028 -5.7 0.399 -8.614l0.354 1.095Zm59.722 59.845 -0.107 -2.533c0.168 0.034 0.343 0.062 0.511 0.09 -0.236 0.786 -0.382 1.606 -0.404 2.443m27.309 -9.518 2.123 -6.441c0.898 1.381 2.162 2.544 3.712 3.324 1.022 0.511 2.05 0.994 3.077 1.449 -3.324 0.32 -6.497 1.252 -9.339 2.729 0.163 -0.343 0.303 -0.696 0.427 -1.061m1.629 -80.123c0.079 0.067 0.157 0.14 0.241 0.219l0.051 0.045c1.061 1.005 3.044 2.87 6.441 3.364 0.522 0.079 1.056 0.112 1.584 0.112 2.241 0 4.403 -0.668 6.452 -1.999 2.089 -1.359 3.583 -3.111 4.442 -5.2 0.96 -2.347 1.848 -6.963 -2.527 -12.107a11.428 11.428 0 0 0 3.257 -3.122c-0.208 4.414 1.005 8.788 2.067 12.624 0.64 2.308 1.466 5.279 2.898 8.042 -9.26 0.225 -17.509 3.931 -22.659 10.102 -3.875 -3.633 -8.524 -6.514 -13.584 -8.457 0.781 0.157 1.578 0.247 2.392 0.247 0.387 0 0.775 -0.017 1.157 -0.056 1.814 -0.18 3.594 -0.803 5.144 -1.797 0.668 -0.427 1.556 -1.101 2.651 -2.016Zm-70.217 5.088h0.674c3.066 0 5.846 -1.252 7.856 -3.274 0.562 0.562 1.168 1.061 1.808 1.483 1.825 1.207 3.981 1.842 6.239 1.842 3.375 0 6.902 -1.415 10.776 -4.33 0.893 -0.674 1.741 -1.404 2.538 -2.184l1.432 0.387c0.82 0.219 1.657 0.331 2.488 0.331 1.904 0 3.779 -0.567 5.385 -1.662a11.624 11.624 0 0 0 3.173 -3.246c2.797 -0.073 5.217 -0.135 7.25 -0.18 0.174 1.005 0.477 1.988 0.915 2.914 1.134 2.409 3.077 4.307 5.419 5.464 -3.875 -1.174 -7.929 -1.803 -12.029 -1.803 -3.847 0 -7.592 0.567 -11.13 1.69 -7.929 2.51 -14.926 7.89 -19.997 15.19l-1.887 -3.937c-1.629 -3.397 -5.032 -5.425 -8.614 -5.425 -1.05 0 -2.117 0.174 -3.156 0.539l-13.073 4.582c-2.123 0.741 -3.819 2.162 -4.925 3.937 -1.207 -2.19 -3.263 -3.908 -5.868 -4.616l-12.775 -3.448c2.274 -0.859 4.38 -2.19 5.975 -4.043 2.067 2.493 5.138 3.959 8.407 3.959 1.516 0 2.993 -0.309 4.38 -0.921 4.116 -1.808 7.463 -4.043 9.945 -6.643 0.14 -0.146 0.27 -0.292 0.404 -0.444 2.033 2.347 5.032 3.847 8.373 3.847ZM128.766 151.408l2.241 -8.081c0.168 -0.612 0.275 -1.235 0.32 -1.848 1.005 1.353 2.1 2.645 3.285 3.847 1.23 1.247 2.555 2.398 3.948 3.459 -3.431 0.365 -6.733 1.247 -9.794 2.622"/><path class="cls-2" d="M383.236 172.517c-0.107 -1.235 -0.449 -2.42 -0.994 -3.493 0.618 -1.162 1.123 -2.476 1.432 -3.965 1.746 -8.367 -3.875 -15.746 -9.226 -19.531 -4.054 -2.864 -9.21 -4.442 -14.511 -4.442 -4.206 0 -8.249 0.971 -11.787 2.785 -0.983 -1.808 -2.521 -3.257 -4.386 -4.122 1.449 -0.741 2.875 -1.589 4.257 -2.538a9.575 9.575 0 0 0 3.65 -4.852 9.507 9.507 0 0 0 4.448 -3.038c2.909 -3.555 7.811 -11.08 7.918 -21.513 0.124 -11.45 -5.458 -19.632 -9.648 -24.147 2.342 -1.651 4.386 -3.835 5.986 -6.435 1.499 -0.118 2.965 -0.404 4.386 -0.865 4.74 -1.527 8.845 -4.953 11.546 -9.648a9.544 9.544 0 0 0 -1.735 -11.725 9.547 9.547 0 0 0 -6.542 -2.589c-1.045 0 -2.089 0.168 -3.089 0.517 -2.033 -3.313 -5.099 -8.238 -11.467 -11.209 -1.791 -0.837 -5.464 -2.235 -9.917 -2.235 -2.965 0 -5.795 0.606 -8.407 1.808 -3.701 1.696 -6.795 4.526 -9.019 8.188 -0.646 0.056 -1.28 0.146 -1.909 0.258 -0.236 -0.533 -0.5 -1.067 -0.814 -1.6 -2.729 -4.627 -7.648 -7.665 -13.854 -8.547 -0.966 -0.135 -1.949 -0.208 -2.926 -0.208 -1.539 0 -3.06 0.168 -4.56 0.5a18.082 18.082 0 0 0 -4.582 -0.073c-0.943 0.107 -1.876 0.286 -2.791 0.545 -1.494 -0.387 -3.212 -0.663 -5.093 -0.663 -2.448 0 -4.824 0.466 -7.059 1.381 -3.864 1.584 -6.25 3.998 -7.57 5.745a17.408 17.408 0 0 0 -1.623 2.589c-0.359 -3.032 -2.016 -5.464 -3.083 -7.019 -1.022 -1.494 -4.139 -6.042 -9.895 -6.042h-0.118c-2.246 0.028 -4.01 0.741 -5.223 1.365 -1.881 0.466 -3.19 1.32 -3.729 1.668 -0.213 0.14 -0.421 0.281 -0.618 0.427 -0.708 -0.011 -1.404 -0.039 -2.106 -0.079l-0.236 -0.011c-0.702 -0.039 -1.758 -0.095 -2.875 -0.095 -8.036 0 -11.141 3.835 -12.332 7.092h-1.224c-3.229 0 -6.756 0.095 -9.535 0.197 -3.437 -3.824 -8.277 -3.835 -9.895 -3.835 -0.567 0 -1.157 0.017 -1.73 0.039 -0.331 0.011 -0.657 0.022 -0.971 0.028 -1.949 0 -5.874 -0.567 -6.879 -0.825 -0.427 -0.124 -1.735 -0.494 -3.386 -0.494 -2.482 0 -4.88 0.848 -6.744 2.381 -0.208 0.174 -0.404 0.348 -0.59 0.528 -1.657 -4.038 -5.621 -6.89 -10.248 -6.89h-0.606c-2.965 0 -5.75 1.157 -7.845 3.251s-3.246 4.886 -3.24 7.851v0.59c-0.601 -0.101 -1.207 -0.152 -1.814 -0.152 -0.702 0 -1.387 0.073 -2.055 0.197 -1.348 -0.635 -2.83 -0.988 -4.375 -0.988 -0.387 0 -0.781 0.022 -1.168 0.067l-1.791 0.202c-0.994 0.112 -1.949 0.382 -2.847 0.758 -0.112 0 -0.219 -0.011 -0.331 -0.011 -0.545 0 -1.089 0.051 -1.629 0.135 -1.876 -1.842 -4.442 -2.965 -7.216 -2.965 -0.477 0 -0.96 0.034 -1.438 0.101a10.894 10.894 0 0 0 -9.457 -2.695l-1.045 0.202c-3.661 0.702 -6.542 3.128 -7.935 6.289a10.248 10.248 0 0 0 -6.419 4.464c-1.499 2.314 -1.999 5.071 -1.421 7.766l0.432 1.999c0.292 1.348 0.848 2.583 1.6 3.673a10.821 10.821 0 0 0 0.028 7.227c1.089 3.049 3.459 5.436 6.508 6.542l1.118 0.404c0.421 0.152 0.854 0.27 1.286 0.371 0.112 0.101 0.225 0.208 0.343 0.309 0.197 0.168 0.399 0.326 0.606 0.477 0.112 0.079 0.225 0.157 0.337 0.23a9.49 9.49 0 0 0 3.442 1.398 9.547 9.547 0 0 0 -2.533 2.476c-1.348 1.932 -2.538 3.942 -3.588 6.02 -2.347 -4.773 -5.369 -10.692 -9.255 -18.077 -0.359 -0.685 -0.612 -1.157 -0.713 -1.359 -2.134 -4.33 -5.301 -8.058 -9.423 -11.091a40.994 40.994 0 0 0 -3.774 -2.465c0.736 0.067 1.454 0.112 2.151 0.112 6.256 0 9.833 -2.679 11.731 -4.93 1.673 -1.982 3.572 -5.464 3.111 -10.776 -0.112 -1.275 -0.376 -2.617 -0.758 -3.981 0.865 -1.14 1.6 -2.302 2.179 -3.459 2.409 -4.813 1.915 -8.772 1.073 -11.242 -1.6 -4.717 -5.677 -8.047 -11.596 -9.664 -2.106 -5.234 -5.655 -9.328 -11.091 -10.451 -0.859 -0.18 -1.741 -0.27 -2.628 -0.27 -4.543 0 -8.609 2.325 -12.017 5.79 -1.016 -0.129 -2.005 -0.197 -2.954 -0.197 -6.2 0 -9.754 2.651 -11.652 4.874 -1.696 1.988 -3.616 5.486 -3.145 10.849 0.112 1.28 0.376 2.622 0.752 3.993 -0.859 1.134 -1.595 2.286 -2.173 3.437 -2.392 4.768 -1.909 8.704 -1.084 11.164 0.27 0.797 0.612 1.556 1.022 2.274 -5.924 -1.921 -11.49 -3.723 -11.501 -3.729a33.132 33.132 0 0 0 -9.951 -1.533c-14.511 0 -27.191 9.305 -31.554 23.153L2.516 108.123C0.545 112.48 -0.275 116.95 0.079 121.409c0.348 4.375 1.477 7.66 3.566 12.562 1.954 4.571 4.094 9.181 6.368 13.691 0.865 1.724 2.224 3.122 3.875 4.049 -0.051 1.449 0.225 2.903 0.831 4.257a53.348 53.348 0 0 0 5.683 9.76c2.027 2.763 4.116 5.616 7.823 8.322 3.538 2.589 7.064 3.751 11.944 5.357 3.285 1.084 6.688 2.038 10.119 2.841 0.73 0.168 1.46 0.253 2.179 0.253 2.589 0 5.054 -1.056 6.84 -2.886 0.225 1.679 0.898 3.285 1.971 4.65 1.522 1.926 3.712 3.173 6.104 3.527 0.528 0.197 1.466 0.584 2.184 0.887 2.016 0.837 4.633 1.926 7.66 2.881l-6.059 6.475a9.547 9.547 0 0 0 3.223 15.308c-0.298 3.661 0.736 6.626 1.337 8.002 0.533 1.219 1.308 2.286 2.257 3.167 1.32 5.632 5.846 11.113 11.804 11.113 1.286 0 2.544 -0.247 3.729 -0.741 1.842 -0.764 3.768 -2.28 4.936 -4.588 0.528 -0.163 1.095 -0.359 1.707 -0.618 0.927 -0.387 2.768 -1.162 4.605 -2.684 1.398 0.747 2.948 1.134 4.509 1.134 1.37 0 2.746 -0.292 4.032 -0.893 3.257 -1.516 5.385 -4.728 5.515 -8.317l0.87 -24.338a29.875 29.875 0 0 0 9.569 6.222c3.577 1.454 7.413 2.19 11.4 2.19 5.571 0 10.041 -1.471 11.725 -2.022 4.914 -1.617 9.479 -4.346 13.23 -7.884 0.882 0.573 1.808 1.089 2.774 1.539 3.055 1.421 6.334 2.145 9.749 2.145 2.594 0 4.942 -0.427 6.896 -0.983 1.702 0.747 3.493 1.303 5.369 1.651 0.59 0.112 1.179 0.163 1.769 0.163 1.134 0 2.246 -0.208 3.291 -0.59v0.124c0.185 2.768 1.556 5.324 3.768 7.003a9.558 9.558 0 0 0 7.755 1.735l15.499 -3.291c1.522 2.971 4.56 5.054 8.131 5.189l9.086 0.354c0.124 0 0.253 0.006 0.376 0.006 3.97 0 7.401 -2.443 8.828 -5.947 4.352 2.808 9.518 4.33 14.932 4.33 6.379 0 12.708 -2.162 17.83 -6.087 0.208 -0.157 0.404 -0.326 0.595 -0.5 0.399 0.067 0.803 0.118 1.219 0.135l7.985 0.303c0.124 0 0.241 0.006 0.365 0.006 2.297 0 4.515 -0.825 6.25 -2.33 1.191 0.528 2.499 0.814 3.858 0.814h7.076c5.105 0 9.305 -4.015 9.541 -9.114l0.208 -4.594c1.73 2.078 3.948 4.066 6.84 5.638 3.543 1.921 7.486 2.898 11.72 2.898 1.269 0 2.561 -0.09 3.841 -0.27 2.538 -0.354 4.751 -1.702 6.245 -3.633 4.346 2.797 9.502 4.313 14.904 4.313 6.379 0 12.708 -2.162 17.83 -6.087a9.541 9.541 0 0 0 3.706 -8.395l-0.606 -7.064Zm-184.472 -20.503c-0.545 -0.213 -1.101 -0.393 -1.685 -0.511l-10.715 -2.089c-0.618 -0.118 -1.23 -0.18 -1.836 -0.18 -0.258 0 -0.517 0.011 -0.769 0.034 2.87 -1.769 5.812 -4.094 8.496 -7.143a42.791 42.791 0 0 0 7.929 9.378c-0.494 0.135 -0.971 0.298 -1.426 0.505Zm-35.85 -47.025s0.017 0.051 0.028 0.079c0.107 1.112 0.393 2.213 0.887 3.24 1.69 3.532 1.348 6.25 0.932 6.778 0 0 -0.185 0.163 -0.623 0.281 -0.118 0.034 -0.32 0.067 -0.595 0.067 -0.449 0 -0.831 -0.095 -1.078 -0.197 -0.095 -0.494 -0.213 -1.348 -0.298 -2.724 -0.168 -2.819 -0.028 -5.7 0.399 -8.614l0.354 1.095Zm59.722 59.845 -0.107 -2.533c0.168 0.034 0.343 0.062 0.511 0.09 -0.236 0.786 -0.382 1.606 -0.404 2.443m27.309 -9.518 2.123 -6.441c0.898 1.381 2.162 2.544 3.712 3.324 1.022 0.511 2.05 0.994 3.077 1.449 -3.324 0.32 -6.497 1.252 -9.339 2.729 0.163 -0.343 0.303 -0.696 0.427 -1.061m1.629 -80.123c0.079 0.067 0.157 0.14 0.241 0.219l0.051 0.045c1.061 1.005 3.044 2.87 6.441 3.364 0.522 0.079 1.056 0.112 1.584 0.112 2.241 0 4.403 -0.668 6.452 -1.999 2.089 -1.359 3.583 -3.111 4.442 -5.2 0.96 -2.347 1.848 -6.963 -2.527 -12.107a11.428 11.428 0 0 0 3.257 -3.122c-0.208 4.414 1.005 8.788 2.067 12.624 0.64 2.308 1.466 5.279 2.898 8.042 -9.26 0.225 -17.509 3.931 -22.659 10.102 -3.875 -3.633 -8.524 -6.514 -13.584 -8.457 0.781 0.157 1.578 0.247 2.392 0.247 0.387 0 0.775 -0.017 1.157 -0.056 1.814 -0.18 3.594 -0.803 5.144 -1.797 0.668 -0.427 1.556 -1.101 2.651 -2.016Zm-70.217 5.088h0.674c3.066 0 5.846 -1.252 7.856 -3.274 0.562 0.562 1.168 1.061 1.808 1.483 1.825 1.207 3.981 1.842 6.239 1.842 3.375 0 6.902 -1.415 10.776 -4.33 0.893 -0.674 1.741 -1.404 2.538 -2.184l1.432 0.387c0.82 0.219 1.657 0.331 2.488 0.331 1.904 0 3.779 -0.567 5.385 -1.662a11.624 11.624 0 0 0 3.173 -3.246c2.797 -0.073 5.217 -0.135 7.25 -0.18 0.174 1.005 0.477 1.988 0.915 2.914 1.134 2.409 3.077 4.307 5.419 5.464 -3.875 -1.174 -7.929 -1.803 -12.029 -1.803 -3.847 0 -7.592 0.567 -11.13 1.69 -7.929 2.51 -14.926 7.89 -19.997 15.19l-1.887 -3.937c-1.629 -3.397 -5.032 -5.425 -8.614 -5.425 -1.05 0 -2.117 0.174 -3.156 0.539l-13.073 4.582c-2.123 0.741 -3.819 2.162 -4.925 3.937 -1.207 -2.19 -3.263 -3.908 -5.868 -4.616l-12.775 -3.448c2.274 -0.859 4.38 -2.19 5.975 -4.043 2.067 2.493 5.138 3.959 8.407 3.959 1.516 0 2.993 -0.309 4.38 -0.921 4.116 -1.808 7.463 -4.043 9.945 -6.643 0.14 -0.146 0.27 -0.292 0.404 -0.444 2.033 2.347 5.032 3.847 8.373 3.847ZM128.766 149.813l2.241 -8.081c0.168 -0.612 0.275 -1.235 0.32 -1.848 1.005 1.353 2.1 2.645 3.285 3.847 1.23 1.247 2.555 2.398 3.948 3.459 -3.431 0.365 -6.733 1.247 -9.794 2.622"/><path class="cls-2" d="M383.236 170.927c-0.107 -1.235 -0.449 -2.42 -0.994 -3.493 0.618 -1.162 1.123 -2.476 1.432 -3.965 1.746 -8.367 -3.875 -15.746 -9.226 -19.531 -4.054 -2.864 -9.21 -4.442 -14.511 -4.442 -4.206 0 -8.249 0.971 -11.787 2.785 -0.983 -1.808 -2.521 -3.257 -4.386 -4.122 1.449 -0.741 2.875 -1.589 4.257 -2.538a9.575 9.575 0 0 0 3.65 -4.852 9.507 9.507 0 0 0 4.448 -3.038c2.909 -3.555 7.811 -11.08 7.918 -21.513 0.124 -11.45 -5.458 -19.632 -9.648 -24.147 2.342 -1.651 4.386 -3.835 5.986 -6.435 1.499 -0.118 2.965 -0.404 4.386 -0.865 4.74 -1.527 8.845 -4.953 11.546 -9.648a9.544 9.544 0 0 0 -1.735 -11.725 9.547 9.547 0 0 0 -6.542 -2.589c-1.045 0 -2.089 0.168 -3.089 0.517 -2.033 -3.313 -5.099 -8.238 -11.467 -11.209 -1.791 -0.837 -5.464 -2.235 -9.917 -2.235 -2.965 0 -5.795 0.606 -8.407 1.808 -3.701 1.696 -6.795 4.526 -9.019 8.188 -0.646 0.056 -1.28 0.146 -1.909 0.258 -0.236 -0.533 -0.5 -1.067 -0.814 -1.6 -2.729 -4.627 -7.648 -7.665 -13.854 -8.547 -0.966 -0.135 -1.949 -0.208 -2.926 -0.208 -1.539 0 -3.06 0.168 -4.56 0.5a18.082 18.082 0 0 0 -4.582 -0.073c-0.943 0.107 -1.876 0.286 -2.791 0.545 -1.494 -0.387 -3.212 -0.663 -5.093 -0.663 -2.448 0 -4.824 0.466 -7.059 1.381 -3.864 1.584 -6.25 3.998 -7.57 5.745a17.408 17.408 0 0 0 -1.623 2.589c-0.359 -3.032 -2.016 -5.464 -3.083 -7.019 -1.022 -1.494 -4.139 -6.042 -9.895 -6.042h-0.118c-2.246 0.028 -4.01 0.741 -5.223 1.365 -1.881 0.466 -3.19 1.32 -3.729 1.668 -0.213 0.14 -0.421 0.281 -0.618 0.427 -0.708 -0.011 -1.404 -0.039 -2.106 -0.079l-0.236 -0.011c-0.702 -0.039 -1.758 -0.095 -2.875 -0.095 -8.036 0 -11.141 3.835 -12.332 7.092h-1.224c-3.229 0 -6.756 0.095 -9.535 0.197 -3.437 -3.824 -8.277 -3.835 -9.895 -3.835 -0.567 0 -1.157 0.017 -1.73 0.039 -0.331 0.011 -0.657 0.022 -0.971 0.028 -1.949 0 -5.874 -0.567 -6.879 -0.825 -0.427 -0.124 -1.735 -0.494 -3.386 -0.494 -2.482 0 -4.88 0.848 -6.744 2.381 -0.208 0.174 -0.404 0.348 -0.59 0.528 -1.657 -4.038 -5.621 -6.89 -10.248 -6.89h-0.606c-2.965 0 -5.75 1.157 -7.845 3.251s-3.246 4.886 -3.24 7.851v0.59c-0.601 -0.101 -1.207 -0.152 -1.814 -0.152 -0.702 0 -1.387 0.073 -2.055 0.197 -1.348 -0.635 -2.83 -0.988 -4.375 -0.988 -0.387 0 -0.781 0.022 -1.168 0.067l-1.791 0.202c-0.994 0.112 -1.949 0.382 -2.847 0.758 -0.112 0 -0.219 -0.011 -0.331 -0.011 -0.545 0 -1.089 0.051 -1.629 0.135 -1.876 -1.842 -4.442 -2.965 -7.216 -2.965 -0.477 0 -0.96 0.034 -1.438 0.101a10.894 10.894 0 0 0 -9.457 -2.695l-1.045 0.202c-3.661 0.702 -6.542 3.128 -7.935 6.289a10.248 10.248 0 0 0 -6.419 4.464c-1.499 2.314 -1.999 5.071 -1.421 7.766l0.432 1.999c0.292 1.348 0.848 2.583 1.6 3.673a10.821 10.821 0 0 0 0.028 7.227c1.089 3.049 3.459 5.436 6.508 6.542l1.118 0.404c0.421 0.152 0.854 0.27 1.286 0.371 0.112 0.101 0.225 0.208 0.343 0.309 0.197 0.168 0.399 0.326 0.606 0.477 0.112 0.079 0.225 0.157 0.337 0.23a9.49 9.49 0 0 0 3.442 1.398 9.547 9.547 0 0 0 -2.533 2.476c-1.348 1.932 -2.538 3.942 -3.588 6.02 -2.347 -4.773 -5.369 -10.692 -9.255 -18.077 -0.359 -0.685 -0.612 -1.157 -0.713 -1.359 -2.134 -4.33 -5.301 -8.058 -9.423 -11.091a40.994 40.994 0 0 0 -3.774 -2.465c0.736 0.067 1.454 0.112 2.151 0.112 6.256 0 9.833 -2.679 11.731 -4.93 1.673 -1.982 3.572 -5.464 3.111 -10.776 -0.112 -1.275 -0.376 -2.617 -0.758 -3.981 0.865 -1.14 1.6 -2.302 2.179 -3.459 2.409 -4.813 1.915 -8.772 1.073 -11.242 -1.6 -4.717 -5.677 -8.047 -11.596 -9.664 -2.106 -5.234 -5.655 -9.328 -11.091 -10.451 -0.859 -0.18 -1.741 -0.27 -2.628 -0.27 -4.543 0 -8.609 2.325 -12.017 5.79 -1.016 -0.129 -2.005 -0.197 -2.954 -0.197 -6.2 0 -9.754 2.651 -11.652 4.874 -1.696 1.988 -3.616 5.486 -3.145 10.849 0.112 1.28 0.376 2.622 0.752 3.993 -0.859 1.134 -1.595 2.286 -2.173 3.437 -2.392 4.768 -1.909 8.704 -1.084 11.164 0.27 0.797 0.612 1.556 1.022 2.274 -5.924 -1.921 -11.49 -3.723 -11.501 -3.729a33.132 33.132 0 0 0 -9.951 -1.533c-14.511 0 -27.191 9.305 -31.554 23.153L2.516 106.528C0.545 110.886 -0.275 115.356 0.079 119.814c0.348 4.375 1.477 7.66 3.566 12.562 1.954 4.571 4.094 9.181 6.368 13.691 0.865 1.724 2.224 3.122 3.875 4.049 -0.051 1.449 0.225 2.903 0.831 4.257a53.348 53.348 0 0 0 5.683 9.76c2.027 2.763 4.116 5.616 7.823 8.322 3.538 2.589 7.064 3.751 11.944 5.357 3.285 1.084 6.688 2.038 10.119 2.841 0.73 0.168 1.46 0.253 2.179 0.253 2.589 0 5.054 -1.056 6.84 -2.886 0.225 1.679 0.898 3.285 1.971 4.65 1.522 1.926 3.712 3.173 6.104 3.527 0.528 0.197 1.466 0.584 2.184 0.887 2.016 0.837 4.633 1.926 7.66 2.881l-6.059 6.475a9.547 9.547 0 0 0 3.223 15.308c-0.298 3.661 0.736 6.626 1.337 8.002 0.533 1.219 1.308 2.286 2.257 3.167 1.32 5.632 5.846 11.113 11.804 11.113 1.286 0 2.544 -0.247 3.729 -0.741 1.842 -0.764 3.768 -2.28 4.936 -4.588 0.528 -0.163 1.095 -0.359 1.707 -0.618 0.927 -0.387 2.768 -1.162 4.605 -2.684 1.398 0.747 2.948 1.134 4.509 1.134 1.37 0 2.746 -0.292 4.032 -0.893 3.257 -1.516 5.385 -4.728 5.515 -8.317l0.87 -24.338a29.875 29.875 0 0 0 9.569 6.222c3.577 1.454 7.413 2.19 11.4 2.19 5.571 0 10.041 -1.471 11.725 -2.022 4.914 -1.617 9.479 -4.346 13.23 -7.884 0.882 0.573 1.808 1.089 2.774 1.539 3.055 1.421 6.334 2.145 9.749 2.145 2.594 0 4.942 -0.427 6.896 -0.983 1.702 0.747 3.493 1.303 5.369 1.651 0.59 0.112 1.179 0.163 1.769 0.163 1.134 0 2.246 -0.208 3.291 -0.59v0.124c0.185 2.768 1.556 5.324 3.768 7.003a9.558 9.558 0 0 0 7.755 1.735l15.499 -3.291c1.522 2.971 4.56 5.054 8.131 5.189l9.086 0.354c0.124 0 0.253 0.006 0.376 0.006 3.97 0 7.401 -2.443 8.828 -5.947 4.352 2.808 9.518 4.33 14.932 4.33 6.379 0 12.708 -2.162 17.83 -6.087 0.208 -0.157 0.404 -0.326 0.595 -0.5 0.399 0.067 0.803 0.118 1.219 0.135l7.985 0.303c0.124 0 0.241 0.006 0.365 0.006 2.297 0 4.515 -0.825 6.25 -2.33 1.191 0.528 2.499 0.814 3.858 0.814h7.076c5.105 0 9.305 -4.015 9.541 -9.114l0.208 -4.594c1.73 2.078 3.948 4.066 6.84 5.638 3.543 1.921 7.486 2.898 11.72 2.898 1.269 0 2.561 -0.09 3.841 -0.27 2.538 -0.354 4.751 -1.702 6.245 -3.633 4.346 2.797 9.502 4.313 14.904 4.313 6.379 0 12.708 -2.162 17.83 -6.087a9.541 9.541 0 0 0 3.706 -8.395l-0.606 -7.064Zm-184.472 -20.503c-0.545 -0.213 -1.101 -0.393 -1.685 -0.511l-10.715 -2.089c-0.618 -0.118 -1.23 -0.18 -1.836 -0.18 -0.258 0 -0.517 0.011 -0.769 0.034 2.87 -1.769 5.812 -4.094 8.496 -7.143a42.791 42.791 0 0 0 7.929 9.378c-0.494 0.135 -0.971 0.298 -1.426 0.505Zm-35.85 -47.025s0.017 0.051 0.028 0.079c0.107 1.112 0.393 2.213 0.887 3.24 1.69 3.532 1.348 6.25 0.932 6.778 0 0 -0.185 0.163 -0.623 0.281 -0.118 0.034 -0.32 0.067 -0.595 0.067 -0.449 0 -0.831 -0.095 -1.078 -0.197 -0.095 -0.494 -0.213 -1.348 -0.298 -2.724 -0.168 -2.819 -0.028 -5.7 0.399 -8.614l0.354 1.095ZM222.636 163.245l-0.107 -2.533c0.168 0.034 0.343 0.062 0.511 0.09 -0.236 0.786 -0.382 1.606 -0.404 2.443m27.309 -9.518 2.123 -6.441c0.898 1.381 2.162 2.544 3.712 3.324 1.022 0.511 2.05 0.994 3.077 1.449 -3.324 0.32 -6.497 1.252 -9.339 2.729 0.163 -0.343 0.303 -0.696 0.427 -1.061m1.629 -80.123c0.079 0.067 0.157 0.14 0.241 0.219l0.051 0.045c1.061 1.005 3.044 2.87 6.441 3.364 0.522 0.079 1.056 0.112 1.584 0.112 2.241 0 4.403 -0.668 6.452 -1.999 2.089 -1.359 3.583 -3.111 4.442 -5.2 0.96 -2.347 1.848 -6.963 -2.527 -12.107a11.428 11.428 0 0 0 3.257 -3.122c-0.208 4.414 1.005 8.788 2.067 12.624 0.64 2.308 1.466 5.279 2.898 8.042 -9.26 0.225 -17.509 3.931 -22.659 10.102 -3.875 -3.633 -8.524 -6.514 -13.584 -8.457 0.781 0.157 1.578 0.247 2.392 0.247 0.387 0 0.775 -0.017 1.157 -0.056 1.814 -0.18 3.594 -0.803 5.144 -1.797 0.668 -0.427 1.556 -1.101 2.651 -2.016Zm-70.217 5.088h0.674c3.066 0 5.846 -1.252 7.856 -3.274 0.562 0.562 1.168 1.061 1.808 1.483 1.825 1.207 3.981 1.842 6.239 1.842 3.375 0 6.902 -1.415 10.776 -4.33 0.893 -0.674 1.741 -1.404 2.538 -2.184l1.432 0.387c0.82 0.219 1.657 0.331 2.488 0.331 1.904 0 3.779 -0.567 5.385 -1.662a11.624 11.624 0 0 0 3.173 -3.246c2.797 -0.073 5.217 -0.135 7.25 -0.18 0.174 1.005 0.477 1.988 0.915 2.914 1.134 2.409 3.077 4.307 5.419 5.464 -3.875 -1.174 -7.929 -1.803 -12.029 -1.803 -3.847 0 -7.592 0.567 -11.13 1.69 -7.929 2.51 -14.926 7.89 -19.997 15.19l-1.887 -3.937c-1.629 -3.397 -5.032 -5.425 -8.614 -5.425 -1.05 0 -2.117 0.174 -3.156 0.539l-13.073 4.582c-2.123 0.741 -3.819 2.162 -4.925 3.937 -1.207 -2.19 -3.263 -3.908 -5.868 -4.616l-12.775 -3.448c2.274 -0.859 4.38 -2.19 5.975 -4.043 2.067 2.493 5.138 3.959 8.407 3.959 1.516 0 2.993 -0.309 4.38 -0.921 4.116 -1.808 7.463 -4.043 9.945 -6.643 0.14 -0.146 0.27 -0.292 0.404 -0.444 2.033 2.347 5.032 3.847 8.373 3.847ZM128.766 148.224l2.241 -8.081c0.168 -0.612 0.275 -1.235 0.32 -1.848 1.005 1.353 2.1 2.645 3.285 3.847 1.23 1.247 2.555 2.398 3.948 3.459 -3.431 0.365 -6.733 1.247 -9.794 2.622"/><path class="cls-2" d="M383.236 169.333c-0.107 -1.235 -0.449 -2.42 -0.994 -3.493 0.618 -1.162 1.123 -2.476 1.432 -3.965 1.746 -8.367 -3.875 -15.746 -9.226 -19.531 -4.054 -2.864 -9.21 -4.442 -14.511 -4.442 -4.206 0 -8.249 0.971 -11.787 2.785 -0.983 -1.808 -2.521 -3.257 -4.386 -4.122 1.449 -0.741 2.875 -1.589 4.257 -2.538a9.575 9.575 0 0 0 3.65 -4.852 9.507 9.507 0 0 0 4.448 -3.038c2.909 -3.555 7.811 -11.08 7.918 -21.513 0.124 -11.45 -5.458 -19.632 -9.648 -24.147 2.342 -1.651 4.386 -3.835 5.986 -6.435 1.499 -0.118 2.965 -0.404 4.386 -0.865 4.74 -1.527 8.845 -4.953 11.546 -9.648a9.544 9.544 0 0 0 -1.735 -11.725 9.547 9.547 0 0 0 -6.542 -2.589c-1.045 0 -2.089 0.168 -3.089 0.517 -2.033 -3.313 -5.099 -8.238 -11.467 -11.209 -1.791 -0.837 -5.464 -2.235 -9.917 -2.235 -2.965 0 -5.795 0.606 -8.407 1.808 -3.701 1.696 -6.795 4.526 -9.019 8.188 -0.646 0.056 -1.28 0.146 -1.909 0.258 -0.236 -0.533 -0.5 -1.067 -0.814 -1.6 -2.729 -4.627 -7.648 -7.665 -13.854 -8.547 -0.966 -0.135 -1.949 -0.208 -2.926 -0.208 -1.539 0 -3.06 0.168 -4.56 0.5a18.082 18.082 0 0 0 -4.582 -0.073c-0.943 0.107 -1.876 0.286 -2.791 0.545 -1.494 -0.387 -3.212 -0.663 -5.093 -0.663 -2.448 0 -4.824 0.466 -7.059 1.381 -3.864 1.584 -6.25 3.998 -7.57 5.745a17.408 17.408 0 0 0 -1.623 2.589c-0.359 -3.032 -2.016 -5.464 -3.083 -7.019 -1.022 -1.494 -4.139 -6.042 -9.895 -6.042h-0.118c-2.246 0.028 -4.01 0.741 -5.223 1.365 -1.881 0.466 -3.19 1.32 -3.729 1.668 -0.213 0.14 -0.421 0.281 -0.618 0.427 -0.708 -0.011 -1.404 -0.039 -2.106 -0.079l-0.236 -0.011c-0.702 -0.039 -1.758 -0.095 -2.875 -0.095 -8.036 0 -11.141 3.835 -12.332 7.092h-1.224c-3.229 0 -6.756 0.095 -9.535 0.197 -3.437 -3.824 -8.277 -3.835 -9.895 -3.835 -0.567 0 -1.157 0.017 -1.73 0.039 -0.331 0.011 -0.657 0.022 -0.971 0.028 -1.949 0 -5.874 -0.567 -6.879 -0.825 -0.427 -0.124 -1.735 -0.494 -3.386 -0.494 -2.482 0 -4.88 0.848 -6.744 2.381 -0.208 0.174 -0.404 0.348 -0.59 0.528 -1.657 -4.038 -5.621 -6.89 -10.248 -6.89h-0.606c-2.965 0 -5.75 1.157 -7.845 3.251s-3.246 4.886 -3.24 7.851v0.59c-0.601 -0.101 -1.207 -0.152 -1.814 -0.152 -0.702 0 -1.387 0.073 -2.055 0.197 -1.348 -0.635 -2.83 -0.988 -4.375 -0.988 -0.387 0 -0.781 0.022 -1.168 0.067l-1.791 0.202c-0.994 0.112 -1.949 0.382 -2.847 0.758 -0.112 0 -0.219 -0.011 -0.331 -0.011 -0.545 0 -1.089 0.051 -1.629 0.135 -1.876 -1.842 -4.442 -2.965 -7.216 -2.965 -0.477 0 -0.96 0.034 -1.438 0.101a10.894 10.894 0 0 0 -9.457 -2.695l-1.045 0.202c-3.661 0.702 -6.542 3.128 -7.935 6.289a10.248 10.248 0 0 0 -6.419 4.464c-1.499 2.314 -1.999 5.071 -1.421 7.766l0.432 1.999c0.292 1.348 0.848 2.583 1.6 3.673a10.821 10.821 0 0 0 0.028 7.227c1.089 3.049 3.459 5.436 6.508 6.542l1.118 0.404c0.421 0.152 0.854 0.27 1.286 0.371 0.112 0.101 0.225 0.208 0.343 0.309 0.197 0.168 0.399 0.326 0.606 0.477 0.112 0.079 0.225 0.157 0.337 0.23a9.49 9.49 0 0 0 3.442 1.398 9.547 9.547 0 0 0 -2.533 2.476c-1.348 1.932 -2.538 3.942 -3.588 6.02 -2.347 -4.773 -5.369 -10.692 -9.255 -18.077 -0.359 -0.685 -0.612 -1.157 -0.713 -1.359 -2.134 -4.33 -5.301 -8.058 -9.423 -11.091a40.994 40.994 0 0 0 -3.774 -2.465c0.736 0.067 1.454 0.112 2.151 0.112 6.256 0 9.833 -2.679 11.731 -4.93 1.673 -1.982 3.572 -5.464 3.111 -10.776 -0.112 -1.275 -0.376 -2.617 -0.758 -3.981 0.865 -1.14 1.6 -2.302 2.179 -3.459 2.409 -4.813 1.915 -8.772 1.073 -11.242 -1.6 -4.717 -5.677 -8.047 -11.596 -9.664 -2.106 -5.234 -5.655 -9.328 -11.091 -10.451 -0.859 -0.18 -1.741 -0.27 -2.628 -0.27 -4.543 0 -8.609 2.325 -12.017 5.79 -1.016 -0.129 -2.005 -0.197 -2.954 -0.197 -6.2 0 -9.754 2.651 -11.652 4.874 -1.696 1.988 -3.616 5.486 -3.145 10.849 0.112 1.28 0.376 2.622 0.752 3.993 -0.859 1.134 -1.595 2.286 -2.173 3.437 -2.392 4.768 -1.909 8.704 -1.084 11.164 0.27 0.797 0.612 1.556 1.022 2.274 -5.924 -1.921 -11.49 -3.723 -11.501 -3.729a33.132 33.132 0 0 0 -9.951 -1.533c-14.511 0 -27.191 9.305 -31.554 23.153L2.516 104.939C0.545 109.296 -0.275 113.766 0.079 118.225c0.348 4.375 1.477 7.66 3.566 12.562 1.954 4.571 4.094 9.181 6.368 13.691 0.865 1.724 2.224 3.122 3.875 4.049 -0.051 1.449 0.225 2.903 0.831 4.257a53.348 53.348 0 0 0 5.683 9.76c2.027 2.763 4.116 5.616 7.823 8.322 3.538 2.589 7.064 3.751 11.944 5.357 3.285 1.084 6.688 2.038 10.119 2.841 0.73 0.168 1.46 0.253 2.179 0.253 2.589 0 5.054 -1.056 6.84 -2.886 0.225 1.679 0.898 3.285 1.971 4.65 1.522 1.926 3.712 3.173 6.104 3.527 0.528 0.197 1.466 0.584 2.184 0.887 2.016 0.837 4.633 1.926 7.66 2.881l-6.059 6.475a9.547 9.547 0 0 0 3.223 15.308c-0.298 3.661 0.736 6.626 1.337 8.002 0.533 1.219 1.308 2.286 2.257 3.167 1.32 5.632 5.846 11.113 11.804 11.113 1.286 0 2.544 -0.247 3.729 -0.741 1.842 -0.764 3.768 -2.28 4.936 -4.588 0.528 -0.163 1.095 -0.359 1.707 -0.618 0.927 -0.387 2.768 -1.162 4.605 -2.684 1.398 0.747 2.948 1.134 4.509 1.134 1.37 0 2.746 -0.292 4.032 -0.893 3.257 -1.516 5.385 -4.728 5.515 -8.317l0.87 -24.338a29.875 29.875 0 0 0 9.569 6.222c3.577 1.454 7.413 2.19 11.4 2.19 5.571 0 10.041 -1.471 11.725 -2.022 4.914 -1.617 9.479 -4.346 13.23 -7.884 0.882 0.573 1.808 1.089 2.774 1.539 3.055 1.421 6.334 2.145 9.749 2.145 2.594 0 4.942 -0.427 6.896 -0.983 1.702 0.747 3.493 1.303 5.369 1.651 0.59 0.112 1.179 0.163 1.769 0.163 1.134 0 2.246 -0.208 3.291 -0.59v0.124c0.185 2.768 1.556 5.324 3.768 7.003a9.558 9.558 0 0 0 7.755 1.735l15.499 -3.291c1.522 2.971 4.56 5.054 8.131 5.189l9.086 0.354c0.124 0 0.253 0.006 0.376 0.006 3.97 0 7.401 -2.443 8.828 -5.947 4.352 2.808 9.518 4.33 14.932 4.33 6.379 0 12.708 -2.162 17.83 -6.087 0.208 -0.157 0.404 -0.326 0.595 -0.5 0.399 0.067 0.803 0.118 1.219 0.135l7.985 0.303c0.124 0 0.241 0.006 0.365 0.006 2.297 0 4.515 -0.825 6.25 -2.33 1.191 0.528 2.499 0.814 3.858 0.814h7.076c5.105 0 9.305 -4.015 9.541 -9.114l0.208 -4.594c1.73 2.078 3.948 4.066 6.84 5.638 3.543 1.921 7.486 2.898 11.72 2.898 1.269 0 2.561 -0.09 3.841 -0.27 2.538 -0.354 4.751 -1.702 6.245 -3.633 4.346 2.797 9.502 4.313 14.904 4.313 6.379 0 12.708 -2.162 17.83 -6.087a9.541 9.541 0 0 0 3.706 -8.395l-0.606 -7.064Zm-184.472 -20.503c-0.545 -0.213 -1.101 -0.393 -1.685 -0.511l-10.715 -2.089c-0.618 -0.118 -1.23 -0.18 -1.836 -0.18 -0.258 0 -0.517 0.011 -0.769 0.034 2.87 -1.769 5.812 -4.094 8.496 -7.143a42.791 42.791 0 0 0 7.929 9.378c-0.494 0.135 -0.971 0.298 -1.426 0.505Zm-35.85 -47.025s0.017 0.051 0.028 0.079c0.107 1.112 0.393 2.213 0.887 3.24 1.69 3.532 1.348 6.25 0.932 6.778 0 0 -0.185 0.163 -0.623 0.281 -0.118 0.034 -0.32 0.067 -0.595 0.067 -0.449 0 -0.831 -0.095 -1.078 -0.197 -0.095 -0.494 -0.213 -1.348 -0.298 -2.724 -0.168 -2.819 -0.028 -5.7 0.399 -8.614l0.354 1.095Zm59.722 59.845 -0.107 -2.533c0.168 0.034 0.343 0.062 0.511 0.09 -0.236 0.786 -0.382 1.606 -0.404 2.443m27.309 -9.518 2.123 -6.441c0.898 1.381 2.162 2.544 3.712 3.324 1.022 0.511 2.05 0.994 3.077 1.449 -3.324 0.32 -6.497 1.252 -9.339 2.729 0.163 -0.343 0.303 -0.696 0.427 -1.061m1.629 -80.123c0.079 0.067 0.157 0.14 0.241 0.219l0.051 0.045c1.061 1.005 3.044 2.87 6.441 3.364 0.522 0.079 1.056 0.112 1.584 0.112 2.241 0 4.403 -0.668 6.452 -1.999 2.089 -1.359 3.583 -3.111 4.442 -5.2 0.96 -2.347 1.848 -6.963 -2.527 -12.107a11.428 11.428 0 0 0 3.257 -3.122c-0.208 4.414 1.005 8.788 2.067 12.624 0.64 2.308 1.466 5.279 2.898 8.042 -9.26 0.225 -17.509 3.931 -22.659 10.102 -3.875 -3.633 -8.524 -6.514 -13.584 -8.457 0.781 0.157 1.578 0.247 2.392 0.247 0.387 0 0.775 -0.017 1.157 -0.056 1.814 -0.18 3.594 -0.803 5.144 -1.797 0.668 -0.427 1.556 -1.101 2.651 -2.016Zm-70.217 5.088h0.674c3.066 0 5.846 -1.252 7.856 -3.274 0.562 0.562 1.168 1.061 1.808 1.483 1.825 1.207 3.981 1.842 6.239 1.842 3.375 0 6.902 -1.415 10.776 -4.33 0.893 -0.674 1.741 -1.404 2.538 -2.184l1.432 0.387c0.82 0.219 1.657 0.331 2.488 0.331 1.904 0 3.779 -0.567 5.385 -1.662a11.624 11.624 0 0 0 3.173 -3.246c2.797 -0.073 5.217 -0.135 7.25 -0.18 0.174 1.005 0.477 1.988 0.915 2.914 1.134 2.409 3.077 4.307 5.419 5.464 -3.875 -1.174 -7.929 -1.803 -12.029 -1.803 -3.847 0 -7.592 0.567 -11.13 1.69 -7.929 2.51 -14.926 7.89 -19.997 15.19l-1.887 -3.937c-1.629 -3.397 -5.032 -5.425 -8.614 -5.425 -1.05 0 -2.117 0.174 -3.156 0.539l-13.073 4.582c-2.123 0.741 -3.819 2.162 -4.925 3.937 -1.207 -2.19 -3.263 -3.908 -5.868 -4.616l-12.775 -3.448c2.274 -0.859 4.38 -2.19 5.975 -4.043 2.067 2.493 5.138 3.959 8.407 3.959 1.516 0 2.993 -0.309 4.38 -0.921 4.116 -1.808 7.463 -4.043 9.945 -6.643 0.14 -0.146 0.27 -0.292 0.404 -0.444 2.033 2.347 5.032 3.847 8.373 3.847ZM128.766 146.629l2.241 -8.081c0.168 -0.612 0.275 -1.235 0.32 -1.848 1.005 1.353 2.1 2.645 3.285 3.847 1.23 1.247 2.555 2.398 3.948 3.459 -3.431 0.365 -6.733 1.247 -9.794 2.622"/><path class="cls-2" d="M383.236 167.743c-0.107 -1.235 -0.449 -2.42 -0.994 -3.493 0.618 -1.162 1.123 -2.476 1.432 -3.965 1.746 -8.367 -3.875 -15.746 -9.226 -19.531 -4.054 -2.864 -9.21 -4.442 -14.511 -4.442 -4.206 0 -8.249 0.971 -11.787 2.785 -0.983 -1.808 -2.521 -3.257 -4.386 -4.122 1.449 -0.741 2.875 -1.589 4.257 -2.538a9.575 9.575 0 0 0 3.65 -4.852 9.507 9.507 0 0 0 4.448 -3.038c2.909 -3.555 7.811 -11.08 7.918 -21.513 0.124 -11.45 -5.458 -19.632 -9.648 -24.147 2.342 -1.651 4.386 -3.835 5.986 -6.435 1.499 -0.118 2.965 -0.404 4.386 -0.865 4.74 -1.527 8.845 -4.953 11.546 -9.648a9.544 9.544 0 0 0 -1.735 -11.725 9.547 9.547 0 0 0 -6.542 -2.589c-1.045 0 -2.089 0.168 -3.089 0.517 -2.033 -3.313 -5.099 -8.238 -11.467 -11.209 -1.791 -0.837 -5.464 -2.235 -9.917 -2.235 -2.965 0 -5.795 0.606 -8.407 1.808 -3.701 1.696 -6.795 4.526 -9.019 8.188 -0.646 0.056 -1.28 0.146 -1.909 0.258 -0.236 -0.533 -0.5 -1.067 -0.814 -1.6 -2.729 -4.627 -7.648 -7.665 -13.854 -8.547 -0.966 -0.135 -1.949 -0.208 -2.926 -0.208 -1.539 0 -3.06 0.168 -4.56 0.5a18.082 18.082 0 0 0 -4.582 -0.073c-0.943 0.107 -1.876 0.286 -2.791 0.545 -1.494 -0.387 -3.212 -0.663 -5.093 -0.663 -2.448 0 -4.824 0.466 -7.059 1.381 -3.864 1.584 -6.25 3.998 -7.57 5.745a17.408 17.408 0 0 0 -1.623 2.589c-0.359 -3.032 -2.016 -5.464 -3.083 -7.019 -1.022 -1.494 -4.139 -6.042 -9.895 -6.042h-0.118c-2.246 0.028 -4.01 0.741 -5.223 1.365 -1.881 0.466 -3.19 1.32 -3.729 1.668 -0.213 0.14 -0.421 0.281 -0.618 0.427 -0.708 -0.011 -1.404 -0.039 -2.106 -0.079l-0.236 -0.011c-0.702 -0.039 -1.758 -0.095 -2.875 -0.095 -8.036 0 -11.141 3.835 -12.332 7.092h-1.224c-3.229 0 -6.756 0.095 -9.535 0.197 -3.437 -3.824 -8.277 -3.835 -9.895 -3.835 -0.567 0 -1.157 0.017 -1.73 0.039 -0.331 0.011 -0.657 0.022 -0.971 0.028 -1.949 0 -5.874 -0.567 -6.879 -0.825 -0.427 -0.124 -1.735 -0.494 -3.386 -0.494 -2.482 0 -4.88 0.848 -6.744 2.381 -0.208 0.174 -0.404 0.348 -0.59 0.528 -1.657 -4.038 -5.621 -6.89 -10.248 -6.89h-0.606c-2.965 0 -5.75 1.157 -7.845 3.251s-3.246 4.886 -3.24 7.851v0.59c-0.601 -0.101 -1.207 -0.152 -1.814 -0.152 -0.702 0 -1.387 0.073 -2.055 0.197 -1.348 -0.635 -2.83 -0.988 -4.375 -0.988 -0.387 0 -0.781 0.022 -1.168 0.067l-1.791 0.202c-0.994 0.112 -1.949 0.382 -2.847 0.758 -0.112 0 -0.219 -0.011 -0.331 -0.011 -0.545 0 -1.089 0.051 -1.629 0.135 -1.876 -1.842 -4.442 -2.965 -7.216 -2.965 -0.477 0 -0.96 0.034 -1.438 0.101a10.894 10.894 0 0 0 -9.457 -2.695l-1.045 0.202c-3.661 0.702 -6.542 3.128 -7.935 6.289a10.248 10.248 0 0 0 -6.419 4.464c-1.499 2.314 -1.999 5.071 -1.421 7.766l0.432 1.999c0.292 1.348 0.848 2.583 1.6 3.673a10.821 10.821 0 0 0 0.028 7.227c1.089 3.049 3.459 5.436 6.508 6.542l1.118 0.404c0.421 0.152 0.854 0.27 1.286 0.371 0.112 0.101 0.225 0.208 0.343 0.309 0.197 0.168 0.399 0.326 0.606 0.477 0.112 0.079 0.225 0.157 0.337 0.23a9.49 9.49 0 0 0 3.442 1.398 9.547 9.547 0 0 0 -2.533 2.476c-1.348 1.932 -2.538 3.942 -3.588 6.02 -2.347 -4.773 -5.369 -10.692 -9.255 -18.077 -0.359 -0.685 -0.612 -1.157 -0.713 -1.359 -2.134 -4.33 -5.301 -8.058 -9.423 -11.091a40.994 40.994 0 0 0 -3.774 -2.465c0.736 0.067 1.454 0.112 2.151 0.112 6.256 0 9.833 -2.679 11.731 -4.93 1.673 -1.982 3.572 -5.464 3.111 -10.776 -0.112 -1.275 -0.376 -2.617 -0.758 -3.981 0.865 -1.14 1.6 -2.302 2.179 -3.459 2.409 -4.813 1.915 -8.772 1.073 -11.242 -1.6 -4.717 -5.677 -8.047 -11.596 -9.664 -2.106 -5.234 -5.655 -9.328 -11.091 -10.451 -0.859 -0.18 -1.741 -0.27 -2.628 -0.27 -4.543 0 -8.609 2.325 -12.017 5.79 -1.016 -0.129 -2.005 -0.197 -2.954 -0.197 -6.2 0 -9.754 2.651 -11.652 4.874 -1.696 1.988 -3.616 5.486 -3.145 10.849 0.112 1.28 0.376 2.622 0.752 3.993 -0.859 1.134 -1.595 2.286 -2.173 3.437 -2.392 4.768 -1.909 8.704 -1.084 11.164 0.27 0.797 0.612 1.556 1.022 2.274 -5.924 -1.921 -11.49 -3.723 -11.501 -3.729a33.132 33.132 0 0 0 -9.951 -1.533c-14.511 0 -27.191 9.305 -31.554 23.153L2.516 103.344C0.545 107.701 -0.275 112.172 0.079 116.63c0.348 4.375 1.477 7.66 3.566 12.562 1.954 4.571 4.094 9.181 6.368 13.691 0.865 1.724 2.224 3.122 3.875 4.049 -0.051 1.449 0.225 2.903 0.831 4.257a53.348 53.348 0 0 0 5.683 9.76c2.027 2.763 4.116 5.616 7.823 8.322 3.538 2.589 7.064 3.751 11.944 5.357 3.285 1.084 6.688 2.038 10.119 2.841 0.73 0.168 1.46 0.253 2.179 0.253 2.589 0 5.054 -1.056 6.84 -2.886 0.225 1.679 0.898 3.285 1.971 4.65 1.522 1.926 3.712 3.173 6.104 3.527 0.528 0.197 1.466 0.584 2.184 0.887 2.016 0.837 4.633 1.926 7.66 2.881l-6.059 6.475a9.547 9.547 0 0 0 3.223 15.308c-0.298 3.661 0.736 6.626 1.337 8.002 0.533 1.219 1.308 2.286 2.257 3.167 1.32 5.632 5.846 11.113 11.804 11.113 1.286 0 2.544 -0.247 3.729 -0.741 1.842 -0.764 3.768 -2.28 4.936 -4.588 0.528 -0.163 1.095 -0.359 1.707 -0.618 0.927 -0.387 2.768 -1.162 4.605 -2.684 1.398 0.747 2.948 1.134 4.509 1.134 1.37 0 2.746 -0.292 4.032 -0.893 3.257 -1.516 5.385 -4.728 5.515 -8.317l0.87 -24.338a29.875 29.875 0 0 0 9.569 6.222c3.577 1.454 7.413 2.19 11.4 2.19 5.571 0 10.041 -1.471 11.725 -2.022 4.914 -1.617 9.479 -4.346 13.23 -7.884 0.882 0.573 1.808 1.089 2.774 1.539 3.055 1.421 6.334 2.145 9.749 2.145 2.594 0 4.942 -0.427 6.896 -0.983 1.702 0.747 3.493 1.303 5.369 1.651 0.59 0.112 1.179 0.163 1.769 0.163 1.134 0 2.246 -0.208 3.291 -0.59v0.124c0.185 2.768 1.556 5.324 3.768 7.003a9.558 9.558 0 0 0 7.755 1.735l15.499 -3.291c1.522 2.971 4.56 5.054 8.131 5.189l9.086 0.354c0.124 0 0.253 0.006 0.376 0.006 3.97 0 7.401 -2.443 8.828 -5.947 4.352 2.808 9.518 4.33 14.932 4.33 6.379 0 12.708 -2.162 17.83 -6.087 0.208 -0.157 0.404 -0.326 0.595 -0.5 0.399 0.067 0.803 0.118 1.219 0.135l7.985 0.303c0.124 0 0.241 0.006 0.365 0.006 2.297 0 4.515 -0.825 6.25 -2.33 1.191 0.528 2.499 0.814 3.858 0.814h7.076c5.105 0 9.305 -4.015 9.541 -9.114l0.208 -4.594c1.73 2.078 3.948 4.066 6.84 5.638 3.543 1.921 7.486 2.898 11.72 2.898 1.269 0 2.561 -0.09 3.841 -0.27 2.538 -0.354 4.751 -1.702 6.245 -3.633 4.346 2.797 9.502 4.313 14.904 4.313 6.379 0 12.708 -2.162 17.83 -6.087a9.541 9.541 0 0 0 3.706 -8.395l-0.606 -7.064Zm-184.472 -20.503c-0.545 -0.213 -1.101 -0.393 -1.685 -0.511l-10.715 -2.089c-0.618 -0.118 -1.23 -0.18 -1.836 -0.18 -0.258 0 -0.517 0.011 -0.769 0.034 2.87 -1.769 5.812 -4.094 8.496 -7.143a42.791 42.791 0 0 0 7.929 9.378c-0.494 0.135 -0.971 0.298 -1.426 0.505Zm-35.85 -47.025s0.017 0.051 0.028 0.079c0.107 1.112 0.393 2.213 0.887 3.24 1.69 3.532 1.348 6.25 0.932 6.778 0 0 -0.185 0.163 -0.623 0.281 -0.118 0.034 -0.32 0.067 -0.595 0.067 -0.449 0 -0.831 -0.095 -1.078 -0.197 -0.095 -0.494 -0.213 -1.348 -0.298 -2.724 -0.168 -2.819 -0.028 -5.7 0.399 -8.614l0.354 1.095Zm59.722 59.845 -0.107 -2.533c0.168 0.034 0.343 0.062 0.511 0.09 -0.236 0.786 -0.382 1.606 -0.404 2.443m27.309 -9.518 2.123 -6.441c0.898 1.381 2.162 2.544 3.712 3.324 1.022 0.511 2.05 0.994 3.077 1.449 -3.324 0.32 -6.497 1.252 -9.339 2.729 0.163 -0.343 0.303 -0.696 0.427 -1.061m1.629 -80.123c0.079 0.067 0.157 0.14 0.241 0.219l0.051 0.045c1.061 1.005 3.044 2.87 6.441 3.364 0.522 0.079 1.056 0.112 1.584 0.112 2.241 0 4.403 -0.668 6.452 -1.999 2.089 -1.359 3.583 -3.111 4.442 -5.2 0.96 -2.347 1.848 -6.963 -2.527 -12.107a11.428 11.428 0 0 0 3.257 -3.122c-0.208 4.414 1.005 8.788 2.067 12.624 0.64 2.308 1.466 5.279 2.898 8.042 -9.26 0.225 -17.509 3.931 -22.659 10.102 -3.875 -3.633 -8.524 -6.514 -13.584 -8.457 0.781 0.157 1.578 0.247 2.392 0.247 0.387 0 0.775 -0.017 1.157 -0.056 1.814 -0.18 3.594 -0.803 5.144 -1.797 0.668 -0.427 1.556 -1.101 2.651 -2.016Zm-70.217 5.088h0.674c3.066 0 5.846 -1.252 7.856 -3.274 0.562 0.562 1.168 1.061 1.808 1.483 1.825 1.207 3.981 1.842 6.239 1.842 3.375 0 6.902 -1.415 10.776 -4.33 0.893 -0.674 1.741 -1.404 2.538 -2.184l1.432 0.387c0.82 0.219 1.657 0.331 2.488 0.331 1.904 0 3.779 -0.567 5.385 -1.662a11.624 11.624 0 0 0 3.173 -3.246c2.797 -0.073 5.217 -0.135 7.25 -0.18 0.174 1.005 0.477 1.988 0.915 2.914 1.134 2.409 3.077 4.307 5.419 5.464 -3.875 -1.174 -7.929 -1.803 -12.029 -1.803 -3.847 0 -7.592 0.567 -11.13 1.69 -7.929 2.51 -14.926 7.89 -19.997 15.19l-1.887 -3.937c-1.629 -3.397 -5.032 -5.425 -8.614 -5.425 -1.05 0 -2.117 0.174 -3.156 0.539l-13.073 4.582c-2.123 0.741 -3.819 2.162 -4.925 3.937 -1.207 -2.19 -3.263 -3.908 -5.868 -4.616l-12.775 -3.448c2.274 -0.859 4.38 -2.19 5.975 -4.043 2.067 2.493 5.138 3.959 8.407 3.959 1.516 0 2.993 -0.309 4.38 -0.921 4.116 -1.808 7.463 -4.043 9.945 -6.643 0.14 -0.146 0.27 -0.292 0.404 -0.444 2.033 2.347 5.032 3.847 8.373 3.847ZM128.766 145.04l2.241 -8.081c0.168 -0.612 0.275 -1.235 0.32 -1.848 1.005 1.353 2.1 2.645 3.285 3.847 1.23 1.247 2.555 2.398 3.948 3.459 -3.431 0.365 -6.733 1.247 -9.794 2.622"/><path class="cls-2" d="M383.236 166.149c-0.107 -1.235 -0.449 -2.42 -0.994 -3.493 0.618 -1.162 1.123 -2.476 1.432 -3.965 1.746 -8.367 -3.875 -15.746 -9.226 -19.531 -4.054 -2.864 -9.21 -4.442 -14.511 -4.442 -4.206 0 -8.249 0.971 -11.787 2.785 -0.983 -1.808 -2.521 -3.257 -4.386 -4.122 1.449 -0.741 2.875 -1.589 4.257 -2.538a9.575 9.575 0 0 0 3.65 -4.852 9.507 9.507 0 0 0 4.448 -3.038c2.909 -3.555 7.811 -11.08 7.918 -21.513 0.124 -11.45 -5.458 -19.632 -9.648 -24.147 2.342 -1.651 4.386 -3.835 5.986 -6.435 1.499 -0.118 2.965 -0.404 4.386 -0.865 4.74 -1.527 8.845 -4.953 11.546 -9.648a9.544 9.544 0 0 0 -1.735 -11.725 9.547 9.547 0 0 0 -6.542 -2.589c-1.045 0 -2.089 0.168 -3.089 0.517 -2.033 -3.313 -5.099 -8.238 -11.467 -11.209 -1.791 -0.837 -5.464 -2.235 -9.917 -2.235 -2.965 0 -5.795 0.606 -8.407 1.808 -3.701 1.696 -6.795 4.526 -9.019 8.188 -0.646 0.056 -1.28 0.146 -1.909 0.258 -0.236 -0.533 -0.5 -1.067 -0.814 -1.6 -2.729 -4.627 -7.648 -7.665 -13.854 -8.547 -0.966 -0.135 -1.949 -0.208 -2.926 -0.208 -1.539 0 -3.06 0.168 -4.56 0.5a18.082 18.082 0 0 0 -4.582 -0.073c-0.943 0.107 -1.876 0.286 -2.791 0.545 -1.494 -0.387 -3.212 -0.663 -5.093 -0.663 -2.448 0 -4.824 0.466 -7.059 1.381 -3.864 1.584 -6.25 3.998 -7.57 5.745a17.408 17.408 0 0 0 -1.623 2.589c-0.359 -3.032 -2.016 -5.464 -3.083 -7.019 -1.022 -1.494 -4.139 -6.042 -9.895 -6.042h-0.118c-2.246 0.028 -4.01 0.741 -5.223 1.365 -1.881 0.466 -3.19 1.32 -3.729 1.668 -0.213 0.14 -0.421 0.281 -0.618 0.427 -0.708 -0.011 -1.404 -0.039 -2.106 -0.079l-0.236 -0.011c-0.702 -0.039 -1.758 -0.095 -2.875 -0.095 -8.036 0 -11.141 3.835 -12.332 7.092h-1.224c-3.229 0 -6.756 0.095 -9.535 0.197 -3.437 -3.824 -8.277 -3.835 -9.895 -3.835 -0.567 0 -1.157 0.017 -1.73 0.039 -0.331 0.011 -0.657 0.022 -0.971 0.028 -1.949 0 -5.874 -0.567 -6.879 -0.825 -0.427 -0.124 -1.735 -0.494 -3.386 -0.494 -2.482 0 -4.88 0.848 -6.744 2.381 -0.208 0.174 -0.404 0.348 -0.59 0.528 -1.657 -4.038 -5.621 -6.89 -10.248 -6.89h-0.606c-2.965 0 -5.75 1.157 -7.845 3.251s-3.246 4.886 -3.24 7.851v0.59c-0.601 -0.101 -1.207 -0.152 -1.814 -0.152 -0.702 0 -1.387 0.073 -2.055 0.197 -1.348 -0.635 -2.83 -0.988 -4.375 -0.988 -0.387 0 -0.781 0.022 -1.168 0.067l-1.791 0.202c-0.994 0.112 -1.949 0.382 -2.847 0.758 -0.112 0 -0.219 -0.011 -0.331 -0.011 -0.545 0 -1.089 0.051 -1.629 0.135 -1.876 -1.842 -4.442 -2.965 -7.216 -2.965 -0.477 0 -0.96 0.034 -1.438 0.101a10.894 10.894 0 0 0 -9.457 -2.695l-1.045 0.202c-3.661 0.702 -6.542 3.128 -7.935 6.289a10.248 10.248 0 0 0 -6.419 4.464c-1.499 2.314 -1.999 5.071 -1.421 7.766l0.432 1.999c0.292 1.348 0.848 2.583 1.6 3.673a10.821 10.821 0 0 0 0.028 7.227c1.089 3.049 3.459 5.436 6.508 6.542l1.118 0.404c0.421 0.152 0.854 0.27 1.286 0.371 0.112 0.101 0.225 0.208 0.343 0.309 0.197 0.168 0.399 0.326 0.606 0.477 0.112 0.079 0.225 0.157 0.337 0.23a9.49 9.49 0 0 0 3.442 1.398 9.547 9.547 0 0 0 -2.533 2.476c-1.348 1.932 -2.538 3.942 -3.588 6.02 -2.347 -4.773 -5.369 -10.692 -9.255 -18.077 -0.359 -0.685 -0.612 -1.157 -0.713 -1.359 -2.134 -4.33 -5.301 -8.058 -9.423 -11.091a40.994 40.994 0 0 0 -3.774 -2.465c0.736 0.067 1.454 0.112 2.151 0.112 6.256 0 9.833 -2.679 11.731 -4.93 1.673 -1.982 3.572 -5.464 3.111 -10.776 -0.112 -1.275 -0.376 -2.617 -0.758 -3.981 0.865 -1.14 1.6 -2.302 2.179 -3.459 2.409 -4.813 1.915 -8.772 1.073 -11.242 -1.6 -4.717 -5.677 -8.047 -11.596 -9.664 -2.106 -5.234 -5.655 -9.328 -11.091 -10.451 -0.859 -0.18 -1.741 -0.27 -2.628 -0.27 -4.543 0 -8.609 2.325 -12.017 5.79 -1.016 -0.129 -2.005 -0.197 -2.954 -0.197 -6.2 0 -9.754 2.651 -11.652 4.874 -1.696 1.988 -3.616 5.486 -3.145 10.849 0.112 1.28 0.376 2.622 0.752 3.993 -0.859 1.134 -1.595 2.286 -2.173 3.437 -2.392 4.768 -1.909 8.704 -1.084 11.164 0.27 0.797 0.612 1.556 1.022 2.274 -5.924 -1.921 -11.49 -3.723 -11.501 -3.729a33.132 33.132 0 0 0 -9.951 -1.533c-14.511 0 -27.191 9.305 -31.554 23.153L2.516 101.755C0.545 106.112 -0.275 110.582 0.079 115.041c0.348 4.375 1.477 7.66 3.566 12.562 1.954 4.571 4.094 9.181 6.368 13.691 0.865 1.724 2.224 3.122 3.875 4.049 -0.051 1.449 0.225 2.903 0.831 4.257a53.348 53.348 0 0 0 5.683 9.76c2.027 2.763 4.116 5.616 7.823 8.322 3.538 2.589 7.064 3.751 11.944 5.357 3.285 1.084 6.688 2.038 10.119 2.841 0.73 0.168 1.46 0.253 2.179 0.253 2.589 0 5.054 -1.056 6.84 -2.886 0.225 1.679 0.898 3.285 1.971 4.65 1.522 1.926 3.712 3.173 6.104 3.527 0.528 0.197 1.466 0.584 2.184 0.887 2.016 0.837 4.633 1.926 7.66 2.881l-6.059 6.475a9.547 9.547 0 0 0 3.223 15.308c-0.298 3.661 0.736 6.626 1.337 8.002 0.533 1.219 1.308 2.286 2.257 3.167 1.32 5.632 5.846 11.113 11.804 11.113 1.286 0 2.544 -0.247 3.729 -0.741 1.842 -0.764 3.768 -2.28 4.936 -4.588 0.528 -0.163 1.095 -0.359 1.707 -0.618 0.927 -0.387 2.768 -1.162 4.605 -2.684 1.398 0.747 2.948 1.134 4.509 1.134 1.37 0 2.746 -0.292 4.032 -0.893 3.257 -1.516 5.385 -4.728 5.515 -8.317l0.87 -24.338a29.875 29.875 0 0 0 9.569 6.222c3.577 1.454 7.413 2.19 11.4 2.19 5.571 0 10.041 -1.471 11.725 -2.022 4.914 -1.617 9.479 -4.346 13.23 -7.884 0.882 0.573 1.808 1.089 2.774 1.539 3.055 1.421 6.334 2.145 9.749 2.145 2.594 0 4.942 -0.427 6.896 -0.983 1.702 0.747 3.493 1.303 5.369 1.651 0.59 0.112 1.179 0.163 1.769 0.163 1.134 0 2.246 -0.208 3.291 -0.59v0.124c0.185 2.768 1.556 5.324 3.768 7.003a9.558 9.558 0 0 0 7.755 1.735l15.499 -3.291c1.522 2.971 4.56 5.054 8.131 5.189l9.086 0.354c0.124 0 0.253 0.006 0.376 0.006 3.97 0 7.401 -2.443 8.828 -5.947 4.352 2.808 9.518 4.33 14.932 4.33 6.379 0 12.708 -2.162 17.83 -6.087 0.208 -0.157 0.404 -0.326 0.595 -0.5 0.399 0.067 0.803 0.118 1.219 0.135l7.985 0.303c0.124 0 0.241 0.006 0.365 0.006 2.297 0 4.515 -0.825 6.25 -2.33 1.191 0.528 2.499 0.814 3.858 0.814h7.076c5.105 0 9.305 -4.015 9.541 -9.114l0.208 -4.594c1.73 2.078 3.948 4.066 6.84 5.638 3.543 1.921 7.486 2.898 11.72 2.898 1.269 0 2.561 -0.09 3.841 -0.27 2.538 -0.354 4.751 -1.702 6.245 -3.633 4.346 2.797 9.502 4.313 14.904 4.313 6.379 0 12.708 -2.162 17.83 -6.087a9.541 9.541 0 0 0 3.706 -8.395l-0.606 -7.064Zm-184.472 -20.503c-0.545 -0.213 -1.101 -0.393 -1.685 -0.511l-10.715 -2.089c-0.618 -0.118 -1.23 -0.18 -1.836 -0.18 -0.258 0 -0.517 0.011 -0.769 0.034 2.87 -1.769 5.812 -4.094 8.496 -7.143a42.791 42.791 0 0 0 7.929 9.378c-0.494 0.135 -0.971 0.298 -1.426 0.505Zm-35.85 -47.025s0.017 0.051 0.028 0.079c0.107 1.112 0.393 2.213 0.887 3.24 1.69 3.532 1.348 6.25 0.932 6.778 0 0 -0.185 0.163 -0.623 0.281 -0.118 0.034 -0.32 0.067 -0.595 0.067 -0.449 0 -0.831 -0.095 -1.078 -0.197 -0.095 -0.494 -0.213 -1.348 -0.298 -2.724 -0.168 -2.819 -0.028 -5.7 0.399 -8.614l0.354 1.095Zm59.722 59.845 -0.107 -2.533c0.168 0.034 0.343 0.062 0.511 0.09 -0.236 0.786 -0.382 1.606 -0.404 2.443m27.309 -9.518 2.123 -6.441c0.898 1.381 2.162 2.544 3.712 3.324 1.022 0.511 2.05 0.994 3.077 1.449 -3.324 0.32 -6.497 1.252 -9.339 2.729 0.163 -0.343 0.303 -0.696 0.427 -1.061m1.629 -80.123c0.079 0.067 0.157 0.14 0.241 0.219l0.051 0.045c1.061 1.005 3.044 2.87 6.441 3.364 0.522 0.079 1.056 0.112 1.584 0.112 2.241 0 4.403 -0.668 6.452 -1.999 2.089 -1.359 3.583 -3.111 4.442 -5.2 0.96 -2.347 1.848 -6.963 -2.527 -12.107a11.428 11.428 0 0 0 3.257 -3.122c-0.208 4.414 1.005 8.788 2.067 12.624 0.64 2.308 1.466 5.279 2.898 8.042 -9.26 0.225 -17.509 3.931 -22.659 10.102 -3.875 -3.633 -8.524 -6.514 -13.584 -8.457 0.781 0.157 1.578 0.247 2.392 0.247 0.387 0 0.775 -0.017 1.157 -0.056 1.814 -0.18 3.594 -0.803 5.144 -1.797 0.668 -0.427 1.556 -1.101 2.651 -2.016Zm-70.217 5.088h0.674c3.066 0 5.846 -1.252 7.856 -3.274 0.562 0.562 1.168 1.061 1.808 1.483 1.825 1.207 3.981 1.842 6.239 1.842 3.375 0 6.902 -1.415 10.776 -4.33 0.893 -0.674 1.741 -1.404 2.538 -2.184l1.432 0.387c0.82 0.219 1.657 0.331 2.488 0.331 1.904 0 3.779 -0.567 5.385 -1.662a11.624 11.624 0 0 0 3.173 -3.246c2.797 -0.073 5.217 -0.135 7.25 -0.18 0.174 1.005 0.477 1.988 0.915 2.914 1.134 2.409 3.077 4.307 5.419 5.464 -3.875 -1.174 -7.929 -1.803 -12.029 -1.803 -3.847 0 -7.592 0.567 -11.13 1.69 -7.929 2.51 -14.926 7.89 -19.997 15.19l-1.887 -3.937c-1.629 -3.397 -5.032 -5.425 -8.614 -5.425 -1.05 0 -2.117 0.174 -3.156 0.539l-13.073 4.582c-2.123 0.741 -3.819 2.162 -4.925 3.937 -1.207 -2.19 -3.263 -3.908 -5.868 -4.616l-12.775 -3.448c2.274 -0.859 4.38 -2.19 5.975 -4.043 2.067 2.493 5.138 3.959 8.407 3.959 1.516 0 2.993 -0.309 4.38 -0.921 4.116 -1.808 7.463 -4.043 9.945 -6.643 0.14 -0.146 0.27 -0.292 0.404 -0.444 2.033 2.347 5.032 3.847 8.373 3.847ZM128.766 143.445l2.241 -8.081c0.168 -0.612 0.275 -1.235 0.32 -1.848 1.005 1.353 2.1 2.645 3.285 3.847 1.23 1.247 2.555 2.398 3.948 3.459 -3.431 0.365 -6.733 1.247 -9.794 2.622"/></g><g id="BORDE_1" data-name="BORDE 1"><path class="cls-1" d="M383.236 166.149c-0.107 -1.235 -0.449 -2.42 -0.994 -3.493 0.618 -1.162 1.123 -2.476 1.432 -3.965 1.746 -8.367 -3.875 -15.746 -9.226 -19.531 -4.054 -2.864 -9.21 -4.442 -14.511 -4.442 -4.206 0 -8.249 0.971 -11.787 2.785 -0.983 -1.808 -2.521 -3.257 -4.386 -4.122 1.449 -0.741 2.875 -1.589 4.257 -2.538a9.575 9.575 0 0 0 3.65 -4.852 9.507 9.507 0 0 0 4.448 -3.038c2.909 -3.555 7.811 -11.08 7.918 -21.513 0.124 -11.45 -5.458 -19.632 -9.648 -24.147 2.342 -1.651 4.386 -3.835 5.986 -6.435 1.499 -0.118 2.965 -0.404 4.386 -0.865 4.74 -1.527 8.845 -4.953 11.546 -9.648a9.544 9.544 0 0 0 -1.735 -11.725 9.547 9.547 0 0 0 -6.542 -2.589c-1.045 0 -2.089 0.168 -3.089 0.517 -2.033 -3.313 -5.099 -8.238 -11.467 -11.209 -1.791 -0.837 -5.464 -2.235 -9.917 -2.235 -2.965 0 -5.795 0.606 -8.407 1.808 -3.701 1.696 -6.795 4.526 -9.019 8.188 -0.646 0.056 -1.28 0.146 -1.909 0.258 -0.236 -0.533 -0.5 -1.067 -0.814 -1.6 -2.729 -4.627 -7.648 -7.665 -13.854 -8.547 -0.966 -0.135 -1.949 -0.208 -2.926 -0.208 -1.539 0 -3.06 0.168 -4.56 0.5a18.082 18.082 0 0 0 -4.582 -0.073c-0.943 0.107 -1.876 0.286 -2.791 0.545 -1.494 -0.387 -3.212 -0.663 -5.093 -0.663 -2.448 0 -4.824 0.466 -7.059 1.381 -3.864 1.584 -6.25 3.998 -7.57 5.745a17.408 17.408 0 0 0 -1.623 2.589c-0.359 -3.032 -2.016 -5.464 -3.083 -7.019 -1.022 -1.494 -4.139 -6.042 -9.895 -6.042h-0.118c-2.246 0.028 -4.01 0.741 -5.223 1.365 -1.881 0.466 -3.19 1.32 -3.729 1.668 -0.213 0.14 -0.421 0.281 -0.618 0.427 -0.708 -0.011 -1.404 -0.039 -2.106 -0.079l-0.236 -0.011c-0.702 -0.039 -1.758 -0.095 -2.875 -0.095 -8.036 0 -11.141 3.835 -12.332 7.092h-1.224c-3.229 0 -6.756 0.095 -9.535 0.197 -3.437 -3.824 -8.277 -3.835 -9.895 -3.835 -0.567 0 -1.157 0.017 -1.73 0.039 -0.331 0.011 -0.657 0.022 -0.971 0.028 -1.949 0 -5.874 -0.567 -6.879 -0.825 -0.427 -0.124 -1.735 -0.494 -3.386 -0.494 -2.482 0 -4.88 0.848 -6.744 2.381 -0.208 0.174 -0.404 0.348 -0.59 0.528 -1.657 -4.038 -5.621 -6.89 -10.248 -6.89h-0.606c-2.965 0 -5.75 1.157 -7.845 3.251s-3.246 4.886 -3.24 7.851v0.59c-0.601 -0.101 -1.207 -0.152 -1.814 -0.152 -0.702 0 -1.387 0.073 -2.055 0.197 -1.348 -0.635 -2.83 -0.988 -4.375 -0.988 -0.387 0 -0.781 0.022 -1.168 0.067l-1.791 0.202c-0.994 0.112 -1.949 0.382 -2.847 0.758 -0.112 0 -0.219 -0.011 -0.331 -0.011 -0.545 0 -1.089 0.051 -1.629 0.135 -1.876 -1.842 -4.442 -2.965 -7.216 -2.965 -0.477 0 -0.96 0.034 -1.438 0.101a10.894 10.894 0 0 0 -9.457 -2.695l-1.045 0.202c-3.661 0.702 -6.542 3.128 -7.935 6.289a10.248 10.248 0 0 0 -6.419 4.464c-1.499 2.314 -1.999 5.071 -1.421 7.766l0.432 1.999c0.292 1.348 0.848 2.583 1.6 3.673a10.821 10.821 0 0 0 0.028 7.227c1.089 3.049 3.459 5.436 6.508 6.542l1.118 0.404c0.421 0.152 0.854 0.27 1.286 0.371 0.112 0.101 0.225 0.208 0.343 0.309 0.197 0.168 0.399 0.326 0.606 0.477 0.112 0.079 0.225 0.157 0.337 0.23a9.49 9.49 0 0 0 3.442 1.398 9.547 9.547 0 0 0 -2.533 2.476c-1.348 1.932 -2.538 3.942 -3.588 6.02 -2.347 -4.773 -5.369 -10.692 -9.255 -18.077 -0.359 -0.685 -0.612 -1.157 -0.713 -1.359 -2.134 -4.33 -5.301 -8.058 -9.423 -11.091a40.994 40.994 0 0 0 -3.774 -2.465c0.736 0.067 1.454 0.112 2.151 0.112 6.256 0 9.833 -2.679 11.731 -4.93 1.673 -1.982 3.572 -5.464 3.111 -10.776 -0.112 -1.275 -0.376 -2.617 -0.758 -3.981 0.865 -1.14 1.6 -2.302 2.179 -3.459 2.409 -4.813 1.915 -8.772 1.073 -11.242 -1.6 -4.717 -5.677 -8.047 -11.596 -9.664 -2.106 -5.234 -5.655 -9.328 -11.091 -10.451 -0.859 -0.18 -1.741 -0.27 -2.628 -0.27 -4.543 0 -8.609 2.325 -12.017 5.79 -1.016 -0.129 -2.005 -0.197 -2.954 -0.197 -6.2 0 -9.754 2.651 -11.652 4.874 -1.696 1.988 -3.616 5.486 -3.145 10.849 0.112 1.28 0.376 2.622 0.752 3.993 -0.859 1.134 -1.595 2.286 -2.173 3.437 -2.392 4.768 -1.909 8.704 -1.084 11.164 0.27 0.797 0.612 1.556 1.022 2.274 -5.924 -1.921 -11.49 -3.723 -11.501 -3.729a33.132 33.132 0 0 0 -9.951 -1.533c-14.511 0 -27.191 9.305 -31.554 23.153L2.516 101.755C0.545 106.112 -0.275 110.582 0.079 115.041c0.348 4.375 1.477 7.66 3.566 12.562 1.954 4.571 4.094 9.181 6.368 13.691 0.865 1.724 2.224 3.122 3.875 4.049 -0.051 1.449 0.225 2.903 0.831 4.257a53.348 53.348 0 0 0 5.683 9.76c2.027 2.763 4.116 5.616 7.823 8.322 3.538 2.589 7.064 3.751 11.944 5.357 3.285 1.084 6.688 2.038 10.119 2.841 0.73 0.168 1.46 0.253 2.179 0.253 2.589 0 5.054 -1.056 6.84 -2.886 0.225 1.679 0.898 3.285 1.971 4.65 1.522 1.926 3.712 3.173 6.104 3.527 0.528 0.197 1.466 0.584 2.184 0.887 2.016 0.837 4.633 1.926 7.66 2.881l-6.059 6.475a9.547 9.547 0 0 0 3.223 15.308c-0.298 3.661 0.736 6.626 1.337 8.002 0.533 1.219 1.308 2.286 2.257 3.167 1.32 5.632 5.846 11.113 11.804 11.113 1.286 0 2.544 -0.247 3.729 -0.741 1.842 -0.764 3.768 -2.28 4.936 -4.588 0.528 -0.163 1.095 -0.359 1.707 -0.618 0.927 -0.387 2.768 -1.162 4.605 -2.684 1.398 0.747 2.948 1.134 4.509 1.134 1.37 0 2.746 -0.292 4.032 -0.893 3.257 -1.516 5.385 -4.728 5.515 -8.317l0.87 -24.338a29.875 29.875 0 0 0 9.569 6.222c3.577 1.454 7.413 2.19 11.4 2.19 5.571 0 10.041 -1.471 11.725 -2.022 4.914 -1.617 9.479 -4.346 13.23 -7.884 0.882 0.573 1.808 1.089 2.774 1.539 3.055 1.421 6.334 2.145 9.749 2.145 2.594 0 4.942 -0.427 6.896 -0.983 1.702 0.747 3.493 1.303 5.369 1.651 0.59 0.112 1.179 0.163 1.769 0.163 1.134 0 2.246 -0.208 3.291 -0.59v0.124c0.185 2.768 1.556 5.324 3.768 7.003a9.558 9.558 0 0 0 7.755 1.735l15.499 -3.291c1.522 2.971 4.56 5.054 8.131 5.189l9.086 0.354c0.124 0 0.253 0.006 0.376 0.006 3.97 0 7.401 -2.443 8.828 -5.947 4.352 2.808 9.518 4.33 14.932 4.33 6.379 0 12.708 -2.162 17.83 -6.087 0.208 -0.157 0.404 -0.326 0.595 -0.5 0.399 0.067 0.803 0.118 1.219 0.135l7.985 0.303c0.124 0 0.241 0.006 0.365 0.006 2.297 0 4.515 -0.825 6.25 -2.33 1.191 0.528 2.499 0.814 3.858 0.814h7.076c5.105 0 9.305 -4.015 9.541 -9.114l0.208 -4.594c1.73 2.078 3.948 4.066 6.84 5.638 3.543 1.921 7.486 2.898 11.72 2.898 1.269 0 2.561 -0.09 3.841 -0.27 2.538 -0.354 4.751 -1.702 6.245 -3.633 4.346 2.797 9.502 4.313 14.904 4.313 6.379 0 12.708 -2.162 17.83 -6.087a9.541 9.541 0 0 0 3.706 -8.395l-0.606 -7.064Zm-184.472 -20.503c-0.545 -0.213 -1.101 -0.393 -1.685 -0.511l-10.715 -2.089c-0.618 -0.118 -1.23 -0.18 -1.836 -0.18 -0.258 0 -0.517 0.011 -0.769 0.034 2.87 -1.769 5.812 -4.094 8.496 -7.143a42.791 42.791 0 0 0 7.929 9.378c-0.494 0.135 -0.971 0.298 -1.426 0.505Zm-35.85 -47.025s0.017 0.051 0.028 0.079c0.107 1.112 0.393 2.213 0.887 3.24 1.69 3.532 1.348 6.25 0.932 6.778 0 0 -0.185 0.163 -0.623 0.281 -0.118 0.034 -0.32 0.067 -0.595 0.067 -0.449 0 -0.831 -0.095 -1.078 -0.197 -0.095 -0.494 -0.213 -1.348 -0.298 -2.724 -0.168 -2.819 -0.028 -5.7 0.399 -8.614l0.354 1.095Zm59.722 59.845 -0.107 -2.533c0.168 0.034 0.343 0.062 0.511 0.09 -0.236 0.786 -0.382 1.606 -0.404 2.443m27.309 -9.518 2.123 -6.441c0.898 1.381 2.162 2.544 3.712 3.324 1.022 0.511 2.05 0.994 3.077 1.449 -3.324 0.32 -6.497 1.252 -9.339 2.729 0.163 -0.343 0.303 -0.696 0.427 -1.061m1.629 -80.123c0.079 0.067 0.157 0.14 0.241 0.219l0.051 0.045c1.061 1.005 3.044 2.87 6.441 3.364 0.522 0.079 1.056 0.112 1.584 0.112 2.241 0 4.403 -0.668 6.452 -1.999 2.089 -1.359 3.583 -3.111 4.442 -5.2 0.96 -2.347 1.848 -6.963 -2.527 -12.107a11.428 11.428 0 0 0 3.257 -3.122c-0.208 4.414 1.005 8.788 2.067 12.624 0.64 2.308 1.466 5.279 2.898 8.042 -9.26 0.225 -17.509 3.931 -22.659 10.102 -3.875 -3.633 -8.524 -6.514 -13.584 -8.457 0.781 0.157 1.578 0.247 2.392 0.247 0.387 0 0.775 -0.017 1.157 -0.056 1.814 -0.18 3.594 -0.803 5.144 -1.797 0.668 -0.427 1.556 -1.101 2.651 -2.016Zm-70.217 5.088h0.674c3.066 0 5.846 -1.252 7.856 -3.274 0.562 0.562 1.168 1.061 1.808 1.483 1.825 1.207 3.981 1.842 6.239 1.842 3.375 0 6.902 -1.415 10.776 -4.33 0.893 -0.674 1.741 -1.404 2.538 -2.184l1.432 0.387c0.82 0.219 1.657 0.331 2.488 0.331 1.904 0 3.779 -0.567 5.385 -1.662a11.624 11.624 0 0 0 3.173 -3.246c2.797 -0.073 5.217 -0.135 7.25 -0.18 0.174 1.005 0.477 1.988 0.915 2.914 1.134 2.409 3.077 4.307 5.419 5.464 -3.875 -1.174 -7.929 -1.803 -12.029 -1.803 -3.847 0 -7.592 0.567 -11.13 1.69 -7.929 2.51 -14.926 7.89 -19.997 15.19l-1.887 -3.937c-1.629 -3.397 -5.032 -5.425 -8.614 -5.425 -1.05 0 -2.117 0.174 -3.156 0.539l-13.073 4.582c-2.123 0.741 -3.819 2.162 -4.925 3.937 -1.207 -2.19 -3.263 -3.908 -5.868 -4.616l-12.775 -3.448c2.274 -0.859 4.38 -2.19 5.975 -4.043 2.067 2.493 5.138 3.959 8.407 3.959 1.516 0 2.993 -0.309 4.38 -0.921 4.116 -1.808 7.463 -4.043 9.945 -6.643 0.14 -0.146 0.27 -0.292 0.404 -0.444 2.033 2.347 5.032 3.847 8.373 3.847ZM128.766 143.445l2.241 -8.081c0.168 -0.612 0.275 -1.235 0.32 -1.848 1.005 1.353 2.1 2.645 3.285 3.847 1.23 1.247 2.555 2.398 3.948 3.459 -3.431 0.365 -6.733 1.247 -9.794 2.622"/><path class="cls-1" d="M100.98 51.276c5.582 -1.819 13.775 -3.51 22.642 -1.213 17.538 4.549 22.597 20.789 36.793 21.429 9.024 0.404 15.741 -5.767 19.407 -8.665 24.523 -19.379 69.645 -29.926 95.42 -15.19 13.607 7.778 19.233 21.362 23.451 31.537 9.76 23.563 8.878 52.242 -1.213 70.352 -27.32 49.041 -144.489 60.71 -187.201 1.213 -27.398 -38.164 -12.467 -89.327 -9.299 -99.463"/></g><g id="LOGO"><path id="PARTE_POSTERIOR" data-name="PARTE POSTERIOR" class="cls-3" d="M68.769 171.966c1.073 -4.526 -1.606 -9.108 -5.93 -10.378 -4.122 -1.207 -8.637 0.915 -10.378 4.987a110.066 110.066 0 0 1 -9.305 -2.611c-4.65 -1.527 -7.019 -2.33 -9.294 -3.993 -2.516 -1.842 -3.959 -3.807 -5.762 -6.267a44.139 44.139 0 0 1 -4.667 -8.013c3.049 -1.365 4.054 -5.048 2.544 -7.452 -1.426 -2.263 -4.863 -3.038 -7.429 -1.235 -2.611 -5.183 -4.627 -9.67 -6.115 -13.152 -1.988 -4.661 -2.606 -6.789 -2.83 -9.569 -0.309 -3.835 0.87 -7.048 1.836 -9.064l13.32 -42.274c3.908 -12.399 17.128 -19.284 29.527 -15.375l25.422 8.238c-0.668 2.673 0.859 5.43 3.437 6.267 2.645 0.859 5.571 -0.562 6.537 -3.223l6.879 2.038c1.797 0.623 4.448 1.853 7.278 3.931 2.505 1.842 4.891 4.307 6.531 7.648 0.612 1.252 17.223 32.183 17.105 36.765 -0.079 3.077 0.18 7.817 -2.628 13.882 -2.499 -0.449 -4.953 0.949 -5.795 3.235 -0.91 2.46 0.27 5.324 2.763 6.469 -0.977 3.515 -1.949 7.036 -2.926 10.552 -4.223 -1.264 -8.654 0.741 -10.35 4.408 -1.921 4.144 0.084 9.496 4.717 11.456 -0.758 2.813 -2.808 8.738 -8.373 13.219 0 0 -2.521 1.814 -5.509 3.291 -12.702 6.273 -27.359 -3.774 -30.594 -3.774Z"/><g class="cls-4"><path id="FONDO" class="cls-1" d="M70.33 138.116c-0.842 -0.208 -1.325 -0.387 -2.611 -0.831 -2.937 -1.028 -7.222 -2.493 -12.764 -4.273 -1.769 3.757 -6.155 5.032 -9.019 3.364 -2.224 -1.297 -3.392 -4.279 -2.634 -7.233 -1.516 -0.466 -3.74 -1.162 -6.419 -2.033 -3.611 -1.179 -5.391 -1.892 -6.301 -2.19 -0.887 -0.298 -5.588 -1.954 -8.143 -7.048a14.039 14.039 0 0 1 -0.775 -10.743L34.873 67.387c2.448 -7.373 10.417 -11.366 17.79 -8.912l39.742 13.208c7.373 2.448 11.366 10.417 8.912 17.79 -0.253 0.758 -0.5 1.511 -0.752 2.269 2.673 1.123 4.217 3.796 3.847 6.284 -0.466 3.094 -3.841 5.515 -7.508 4.734 -2.931 8.822 -5.863 17.639 -8.794 26.461 -0.343 1.381 -1.617 5.801 -5.666 8.193 -4.448 2.628 -9.704 1.32 -12.118 0.719Z"/><path id="Q" class="cls-2" d="M58.93 105.085c-3.572 -1.449 -5.75 -5.037 -5.357 -8.693 0.343 -3.218 2.628 -6.02 5.762 -6.975 3.566 -1.084 7.632 0.416 9.502 3.74 1.702 3.027 1.123 6.727 -0.91 9.198 -2.589 3.145 -6.508 3.049 -6.975 3.032l9.097 20.418c1.207 0.859 2.302 1.118 2.931 1.213 3.077 0.466 6.233 -1.37 7.581 -3.942 0.46 -0.882 0.635 -1.696 0.708 -2.224l-3.74 -8.289c1.539 -1.679 5.105 -6.031 6.065 -12.635 0.359 -2.46 1.123 -10.524 -4.448 -17.386 -7.21 -8.878 -18.661 -7.912 -19.913 -7.783 -1.64 0.168 -11.327 1.325 -16.982 10.108 -4.307 6.683 -4.689 15.319 -1.011 22.339 4.279 8.176 12.236 10.675 13.747 11.119z"/></g></g><g id="LETRA_SUPERIOR" data-name="LETRA SUPERIOR"><g id="U"><path class="cls-2" d="m172.444 97.807 14.96 -4.448c1.432 2.409 3.459 6.503 4.245 11.928 0.438 3.016 1.64 12.427 -4.414 21.395 -6.172 9.148 -15.78 11.506 -18.155 12.017 -10.17 2.173 -20.929 -1.202 -27.668 -8.042 -10.226 -10.372 -11.36 -28.875 -1.112 -43.566l13.848 3.74c-1.662 6.75 -1.73 12.242 -1.516 15.87 0.303 5.144 1.196 6.806 1.988 7.851 2.578 3.42 7.688 4.801 11.961 3.673 0.679 -0.18 3.139 -0.859 5.105 -2.931 3.678 -3.875 3.948 -10.838 0.758 -17.487"/><path class="cls-2" d="m170.591 91.304 1.415 4.38 14.017 -4.043 -2.359 -4.919z"/></g><path id="E" class="cls-3" d="m245.188 132.882 -4.313 13.073c-17.807 4.543 -35.833 -4.032 -42.589 -19.138 -7.98 -17.858 1.544 -40.921 18.756 -46.368 12.888 -4.083 28.246 2.291 34.884 13.079 3.324 5.402 6.542 15.291 2.156 21.564 -2.196 3.139 -5.672 4.481 -10.108 6.2 -5.947 2.302 -11.254 2.78 -14.69 2.83l-2.965 -12.534c0.775 -0.129 1.898 -0.337 3.235 -0.674 4.667 -1.185 8.042 -2.038 8.76 -4.178 0.747 -2.218 -1.516 -5.363 -3.981 -6.834 -4.111 -2.454 -9.844 -0.887 -13.135 1.982 -5.234 4.571 -4.992 13.073 -2.898 18.262 3.454 8.564 14.28 13.949 26.887 12.736"/><path id="S" class="cls-2" d="M287.249 81.971c1.022 3.543 2.05 7.092 3.072 10.636 -8.081 -0.618 -13.809 0.882 -14.657 3.785 -0.545 1.864 1.05 3.897 1.892 4.964 4.077 5.189 9.137 3.689 15.6 7.8 1.381 0.876 6.756 4.403 8.985 10.872 1.926 5.593 1.039 12.034 -1.421 15.842 -5.391 8.345 -22.513 10.518 -40.663 1.421 0.708 -3.308 1.421 -6.621 2.128 -9.928 1.769 0.752 14.32 5.941 18.677 0.943 0.387 -0.444 0.797 -0.915 0.943 -1.657 1.191 -5.902 -18.122 -8.828 -23.17 -21.749 -2.095 -5.357 -1.584 -12.04 1.657 -16.785 4.824 -7.064 15.729 -9.855 26.949 -6.149Z"/><g id="O"><path class="cls-3" d="M354.49 101.345c-0.084 8.159 -4.307 13.786 -5.762 15.566 -1.735 -2.151 -4.801 -2.336 -6.503 -0.842 -1.831 1.606 -1.904 4.987 0.387 6.907 -2.69 1.848 -7.828 4.756 -14.404 4.65 -12.169 -0.191 -26.281 -10.647 -26.281 -26.281 0 -15.943 14.685 -25.938 26.281 -26.281 4.481 -0.129 8.193 1.191 10.647 2.359 -1.162 1.634 -0.752 3.914 0.842 5.02 1.645 1.14 4.01 0.657 5.088 -1.112 1.168 0.943 9.827 8.188 9.704 20.014"/><path class="cls-1" cx="582.84" cy="179.93" r="16.38" d="M336.498 101.041A9.198 9.198 0 0 1 327.299 110.24A9.198 9.198 0 0 1 318.101 101.041A9.198 9.198 0 0 1 336.498 101.041z"/></g></g><g id="LETRA_INFERIOR" data-name="LETRA INFERIOR"><path id="C" class="cls-3" d="M151.587 164.363c1.219 -3.409 2.432 -6.817 3.65 -10.232a20.609 20.609 0 0 0 -4.678 -2.465c-5.655 -2.117 -13.865 -2.392 -20.677 2.005 -1.033 0.668 -9.687 6.464 -9.058 16.296 0.472 7.373 5.908 13.124 12.012 15.606 7.328 2.976 14.264 0.691 16.544 -0.056 4.886 -1.606 8.115 -4.268 9.81 -5.896 -1.825 -2.656 -3.65 -5.318 -5.475 -7.974 -0.803 0.764 -3.414 3.055 -7.486 3.409 -1.32 0.118 -6.149 0.539 -8.491 -2.656 -1.758 -2.398 -1.353 -5.784 0.376 -7.8 2.555 -2.976 8.541 -3.588 13.461 -0.23Z"/><g id="A"><path class="cls-2" d="m184.203 153.502 0.337 -1.078 10.715 2.089c-0.556 1.123 -4.835 10.102 -0.472 16.712a11.4 11.4 0 0 0 2.493 2.695l-5.121 7.75c-1.477 -0.281 -3.33 -0.842 -5.189 -2.022q-0.623 -0.396 -1.146 -0.809c-0.618 0.354 -6.857 3.791 -13.41 0.741 -5.548 -2.583 -8.513 -8.513 -8.154 -14.151 0.331 -5.144 3.465 -10.569 8.962 -12.601 5.262 -1.949 9.996 0.197 10.984 0.674"/><path class="cls-1" d="M181.979 171.697a32.933 32.933 0 0 1 0.741 -8.423c-1.775 -1.707 -4.386 -2.067 -6.334 -0.943 -2.432 1.398 -3.089 4.661 -1.887 7.008 1.303 2.544 4.622 3.695 7.48 2.359"/></g><path id="L" class="cls-3" d="M202.695 154.345c3.386 -0.41 6.772 -0.825 10.164 -1.235 0.354 8.547 0.702 17.094 1.056 25.641 3.734 -0.837 7.463 -1.679 11.197 -2.516 0.163 3.178 0.331 6.357 0.494 9.535 -6.873 1.46 -13.747 2.92 -20.615 4.38l-2.291 -35.799Z"/><g id="I"><path class="cls-2" d="m231.778 166.441 9.502 0.539c-0.455 11.169 -0.769 14.05 -1.224 25.22l-9.086 -0.354c0.314 -11.231 0.494 -14.174 0.809 -25.405"/><path class="cls-2" d="m232.182 158.758 9.299 0.809 -0.27 4.515 -9.165 -0.539z"/></g><path id="E-2" data-name="E" class="cls-3" d="m275.243 179.396 0.606 7.064c-7.514 5.756 -17.79 5.352 -24.046 -0.438 -7.396 -6.84 -7.559 -19.694 -0.511 -25.759 5.279 -4.543 13.842 -4.638 19.172 -0.87 2.667 1.887 6.194 5.919 5.391 9.777 -0.404 1.932 -1.78 3.274 -3.532 4.981 -2.353 2.297 -4.768 3.594 -6.385 4.318 -1.314 -1.78 -2.628 -3.555 -3.942 -5.335 0.343 -0.219 0.831 -0.545 1.393 -0.977 1.971 -1.505 3.397 -2.594 3.302 -3.751 -0.095 -1.202 -1.803 -2.235 -3.268 -2.432 -2.448 -0.331 -4.841 1.572 -5.818 3.6 -1.55 3.223 0.286 7.199 2.325 9.238 3.369 3.358 9.591 3.712 15.314 0.584"/><path id="N" class="cls-2" d="m283.329 154.917 9.299 -1.112a128.036 128.036 0 0 0 7.682 13.444c1.207 1.842 2.426 3.594 3.639 5.256L303.242 151.582l7.177 0.404 -1.415 30.931h-7.076c-1.41 -3.723 -3.409 -7.991 -6.267 -12.433 -1.269 -1.971 -2.566 -3.751 -3.841 -5.357v19.306l-7.985 -0.303z"/><path id="T" class="cls-3" d="M320.151 156.512c-2.027 0.095 -4.06 0.191 -6.087 0.281l-0.185 -12.208 5.307 -0.466 -0.96 -9.462 14.887 -1.567 0.792 8.968c1.954 0 3.903 0 5.857 -0.006l1.073 12.13 -5.801 0.64c-0.073 0.679 -0.618 6.492 3.409 9.76 1.078 0.87 2.218 1.353 3.201 1.629 -0.601 3.785 -1.196 7.575 -1.797 11.36 -2.257 0.314 -6.014 0.427 -9.687 -1.561 -4.695 -2.544 -6.559 -7.07 -7.918 -10.378a28.303 28.303 0 0 1 -2.078 -9.108Z"/><path id="E-3" data-name="E" class="cls-2" d="m373.718 166.968 0.606 7.064c-7.514 5.756 -17.79 5.352 -24.046 -0.438 -7.396 -6.84 -7.559 -19.694 -0.511 -25.759 5.279 -4.543 13.842 -4.638 19.172 -0.87 2.667 1.887 6.194 5.919 5.391 9.777 -0.404 1.932 -1.78 3.274 -3.532 4.981 -2.353 2.297 -4.768 3.594 -6.385 4.318 -1.314 -1.78 -2.628 -3.555 -3.942 -5.335 0.343 -0.219 0.831 -0.545 1.393 -0.977 1.971 -1.505 3.397 -2.594 3.302 -3.751 -0.095 -1.202 -1.803 -2.235 -3.268 -2.432 -2.448 -0.331 -4.841 1.572 -5.818 3.6 -1.55 3.223 0.286 7.199 2.325 9.238 3.369 3.358 9.591 3.712 15.314 0.584"/></g><g id="LOGOS"><g id="astro_db" data-name="astro db"><path class="cls-3" d="m78.135 198.18 19.812 -21.16 12.399 4.987 -1.078 30.189c-1.6 -1.247 -3.263 -2.51 -4.987 -3.774q-2.704 -1.979 -5.324 -3.774l1.213 -14.623 -10.31 11.051a99.396 99.396 0 0 0 -5.795 -1.617c-2.061 -0.511 -4.043 -0.932 -5.93 -1.28"/><path class="cls-3" d="M87.233 202.56c0.612 1.011 1.589 2.302 3.1 3.437 3.937 2.954 8.463 2.521 9.704 2.359 0.174 0.646 0.466 2.145 -0.27 3.572 -0.775 1.505 -2.291 2.14 -3.302 2.561 -2.168 0.904 -2.965 0.286 -4.582 1.415 -0.477 0.331 -1.292 0.915 -1.685 1.954 -0.382 1.016 -0.073 1.707 -0.337 1.819 -0.494 0.202 -2.409 -1.848 -2.695 -4.38 -0.236 -2.095 0.724 -3.746 1.146 -4.38 -0.219 -0.163 -0.848 -0.59 -1.752 -0.606 -1.157 -0.017 -1.921 0.651 -2.089 0.809 -0.185 -0.416 -1.179 -2.785 -0.067 -5.391 0.814 -1.909 2.297 -2.858 2.83 -3.167"/></g><g id="react"><path class="cls-5" d="M105.944 31.7c-1.892 9.575 -8.968 19.733 -13.826 18.75 -4.784 -0.971 -7.25 -12.736 -5.464 -21.963 1.87 -9.687 9.064 -19.874 13.921 -18.868 4.784 0.994 7.194 12.826 5.363 22.081Z"/><path class="cls-5" d="M102.49 22.558c7.491 6.256 13.006 17.341 9.81 21.126 -3.15 3.729 -14.651 0.241 -21.89 -5.75 -7.598 -6.295 -13.084 -17.493 -9.867 -21.272 3.167 -3.723 14.702 -0.152 21.946 5.896Z"/><path class="cls-5" d="M93.59 20.851c-9.266 3.055 -18.481 11.327 -16.909 16.021 1.556 4.627 13.528 5.627 22.468 2.724 9.384 -3.049 18.61 -11.439 17.015 -16.139 -1.572 -4.627 -13.612 -5.559 -22.575 -2.611Z"/><path class="cls-3" cx="171.36" cy="53.69" r="7.26" d="M100.306 30.15A4.077 4.077 0 0 1 96.229 34.227A4.077 4.077 0 0 1 92.152 30.15A4.077 4.077 0 0 1 100.306 30.15z"/></g><g id="postgresq"><path class="cls-3" d="M292.831 63.338c-0.27 0.371 -1.162 1.578 -2.156 2.797 0 0 -0.567 0.691 -1.516 1.584 -0.157 0.146 -0.174 0.157 -0.202 0.168 -1.028 0.354 -5.105 -5.632 -6.065 -12.433 -0.472 -3.358 -0.971 -6.879 1.314 -9.131 2.156 -2.128 6.037 -2.403 9.839 -0.842 -0.927 1.387 -2.914 4.784 -3.032 9.535 -0.095 3.875 1.095 6.84 1.819 8.322"/><path class="cls-3" d="M292.561 53.736c0.292 -0.343 0.73 -0.416 1.41 -0.477 1.432 -0.14 2.151 -0.208 2.426 -0.051 0.685 0.387 0.803 1.264 1.039 3.004 0.152 1.106 0.292 2.241 -0.051 3.656 -0.168 0.696 -0.421 1.23 -0.91 2.308 -0.505 1.118 -0.769 1.673 -1.078 1.769 -0.938 0.286 -2.651 -1.696 -3.319 -3.718 -0.236 -0.719 -0.09 -2.387 0.202 -5.711 0.017 -0.168 0.051 -0.505 0.286 -0.786Z"/><path class="cls-3" d="M306.376 53.303c0.354 -0.32 0.893 -0.343 1.797 -0.376 0.539 -0.022 1.028 -0.039 1.235 0.253 0.197 0.27 0.051 0.663 -0.051 1.011 -0.365 1.28 -0.219 2.471 -0.051 3.813 0.135 1.061 0.314 1.185 0.253 1.898 -0.073 0.842 -0.404 1.505 -0.685 1.943 -0.107 -0.32 -0.303 -0.848 -0.629 -1.466 -0.331 -0.618 -0.64 -1.033 -0.73 -1.162 -0.938 -1.303 -2.291 -4.886 -1.134 -5.913Z"/><path class="cls-3" d="M294.954 53.786c0.079 -0.14 0.365 -0.124 0.685 -0.101 0.326 0.022 0.831 0.056 0.91 0.303 0.084 0.258 -0.303 0.741 -0.73 0.758 -0.556 0.022 -0.988 -0.724 -0.859 -0.96Z"/><path class="cls-3" d="M306.932 53.758c0.079 -0.32 0.792 -0.326 0.859 -0.326 0.208 0 0.517 0 0.606 0.18 0.095 0.197 -0.112 0.517 -0.354 0.657 -0.292 0.174 -0.702 0.129 -0.932 -0.101 -0.034 -0.034 -0.225 -0.219 -0.18 -0.404Z"/><path class="cls-3" d="M292.376 52.624c2.583 -1.337 3.869 -0.764 4.217 -0.584 2.201 1.162 2.78 5.997 0.382 11.905 0.421 0.073 1.23 0.281 1.769 0.96 0.376 0.472 0.46 0.983 0.505 1.264 0.32 2.095 0.028 4.318 0.051 6.873 0.006 0.797 0.039 1.438 0.354 2.173 0.129 0.303 0.567 1.337 1.516 1.87 1.275 0.713 3.201 0.365 4.296 -0.657 1.41 -1.314 1.477 -3.762 1.567 -7.177 0.028 -0.966 0.011 -2.448 0.91 -3.942 0.337 -0.556 0.702 -0.96 0.96 -1.213 -0.522 -0.741 -1.275 -1.909 -1.971 -3.437 -0.96 -2.117 -2.858 -6.289 -1.162 -8.188 0.298 -0.337 1.146 -1.089 3.336 -0.96 -2.476 -6.093 -8.637 -8.44 -12.483 -6.57 -2.544 1.235 -4.088 4.324 -4.245 7.682"/><path class="cls-3" d="M304.303 44.436c2.628 1.556 4.071 3.375 4.801 4.476 0.803 1.202 1.202 1.808 1.314 2.701 0.202 1.629 -0.635 2.774 -0.23 4.981 0.056 0.303 0.09 0.371 0.152 0.758 0.23 1.398 0.146 2.521 0.079 3.105 -0.073 0.623 -0.225 1.443 -0.556 2.375 1.527 -2.336 2.51 -4.425 3.134 -5.964 1.252 -3.083 1.404 -4.745 1.443 -5.307 0.084 -1.207 0.18 -2.639 -0.331 -3.791 -1.112 -2.516 -5.116 -3.751 -9.805 -3.336"/><path class="cls-3" d="M293.084 67.836c1.64 -0.247 2.432 -0.865 2.858 -1.415 0.421 -0.55 0.578 -1.168 1.084 -1.241 0.421 -0.056 0.927 0.292 1.061 0.73 0.197 0.64 -0.432 1.269 -0.629 1.466 -1.342 1.337 -3.965 0.578 -4.375 0.455Z"/><path class="cls-3" d="M313.906 65.483c-0.343 0.337 -1 0.887 -1.971 1.185 -1.32 0.41 -3.083 0.309 -3.308 -0.326 -0.124 -0.354 0.219 -0.876 0.629 -1.084 0.567 -0.286 1.123 0.101 2.022 0.303 0.606 0.135 1.483 0.213 2.628 -0.079"/><path class="cls-3" d="M290.63 68.089c1.045 -1.224 2.089 -2.443 3.134 -3.667l1.718 0.606c-0.067 0.163 -0.197 0.432 -0.432 0.708 -1.123 1.337 -3.049 0.893 -3.459 1.819 -0.101 0.225 -0.152 0.612 0.225 1.286"/><path class="cls-6" d="M294.903 44.234c-0.651 -0.354 -4.599 -2.409 -8.743 -0.708 -0.562 0.23 -2.286 0.96 -3.588 2.679 -2.695 3.56 -1.348 8.423 0.202 14 1.14 4.099 2.375 8.553 5.206 9.047 1.101 0.191 2.117 -0.264 2.83 -0.708 0.309 0.399 0.943 1.095 1.971 1.466 2.286 0.831 4.369 -0.724 4.549 -0.859 0.118 0.758 0.286 1.915 0.455 3.336 0.286 2.426 0.247 2.886 0.606 3.689 0.157 0.348 1.005 2.252 3.032 2.931 1.988 0.668 4.156 -0.168 5.357 -1.466 0.842 -0.91 1.078 -2.05 1.516 -4.296 0.404 -2.055 0.522 -3.791 0.556 -5.003 2.145 0.236 3.712 -0.225 4.549 -0.556 1.056 -0.416 2.6 -1.022 2.83 -2.274 0.118 -0.651 -0.112 -1.494 -0.657 -1.819 -0.545 -0.32 -1.078 0.062 -2.476 0.202 -0.769 0.079 -1.421 0.045 -1.87 0 2.482 -3.6 3.515 -6.885 3.993 -8.946 0.775 -3.347 1.37 -5.93 -0.051 -8.339 -1.898 -3.218 -6.02 -3.807 -6.975 -3.942 -2.645 -0.376 -4.784 0.286 -5.863 0.708a8.328 8.328 0 0 0 -7.429 0.859Z"/></g><g id="tailwind"><path class="cls-3" d="M318.438 58.419c0.674 -1.213 2.229 -3.594 5.121 -4.919 4.588 -2.106 9.288 -0.073 10.31 0.404 7.564 3.527 7.643 12.236 13.275 13.073 2.184 0.326 4.139 -0.696 5.324 -1.483 -0.702 1.219 -2.634 4.172 -6.2 5.324 -4.638 1.494 -8.962 -1.061 -10.243 -1.819 -6.845 -4.054 -6.969 -10.922 -12.062 -11.86 -2.252 -0.416 -4.302 0.55 -5.526 1.28"/><path class="cls-3" d="M334.004 48.513c0.674 -1.213 2.229 -3.594 5.121 -4.919 4.588 -2.106 9.288 -0.073 10.31 0.404 7.564 3.527 7.643 12.236 13.275 13.073 2.184 0.326 4.139 -0.696 5.324 -1.483 -0.702 1.219 -2.634 4.172 -6.2 5.324 -4.638 1.494 -8.962 -1.061 -10.243 -1.819 -6.845 -4.054 -6.969 -10.922 -12.062 -11.86 -2.252 -0.416 -4.302 0.55 -5.526 1.28"/></g></g><g id="KANJI"><g id="_1" data-name="1"><path class="cls-2" d="m136.167 51.388 -0.387 -2.46c-0.112 -0.724 0.365 -1.415 1.089 -1.55l1.045 -0.202c0.747 -0.14 1.46 0.348 1.6 1.095 0.18 0.971 0.354 1.937 0.533 2.909 2.274 -0.41 4.554 -0.814 6.829 -1.224 0.404 -0.073 0.792 0.191 0.876 0.595l0.393 2.005c0.079 0.404 -0.18 0.797 -0.584 0.882l-5.958 1.275c-0.41 0.09 -0.674 0.494 -0.578 0.904 0.449 1.988 1.572 7.003 2.128 10.187 0.034 0.208 0.107 0.657 -0.051 1.179 -0.584 1.921 -3.774 2.971 -6.284 2.802h-0.011a4.234 4.234 0 0 1 -1.157 -1.584c-0.084 -0.208 -0.152 -0.41 -0.197 -0.601 -0.095 -0.399 0.146 -0.797 0.545 -0.898 1.095 -0.286 3.117 -0.82 3.207 -0.865 0.067 -0.034 0.084 -0.084 0.084 -0.084 0.011 -0.028 0 -0.051 0 -0.062 -0.011 -0.067 -0.831 -3.908 -1.971 -9.249 -0.084 -0.399 -0.477 -0.663 -0.882 -0.584l-6.497 1.235c-0.404 0.079 -0.792 -0.18 -0.882 -0.584 -0.146 -0.668 -0.286 -1.331 -0.432 -1.999 -0.09 -0.41 0.174 -0.809 0.578 -0.898 2.123 -0.455 4.245 -0.91 6.368 -1.359 0.393 -0.084 0.651 -0.46 0.59 -0.854Z"/><path class="cls-2" d="M131.13 66.983c-0.775 -0.281 -1.089 -1.196 -0.668 -1.904s0.837 -1.516 1.213 -2.432c0.59 -1.443 0.927 -2.785 1.118 -3.92a1.308 1.308 0 0 1 1.449 -1.089c0.331 0.039 0.663 0.084 0.994 0.124 0.691 0.09 1.202 0.702 1.14 1.398 -0.107 1.196 -0.359 2.656 -0.921 4.251a17.801 17.801 0 0 1 -1.64 3.426c-0.326 0.528 -0.977 0.764 -1.561 0.55l-1.118 -0.404Z"/><path class="cls-2" d="M150.234 63.372c-0.573 0.595 -1.533 0.511 -2.01 -0.163a18.434 18.434 0 0 0 -4.857 -4.706 1.308 1.308 0 0 1 -0.404 -1.769c0.174 -0.286 0.348 -0.573 0.517 -0.859a1.303 1.303 0 0 1 1.741 -0.472c1.05 0.584 2.28 1.41 3.51 2.572 1.056 1 1.859 2.005 2.465 2.892 0.348 0.517 0.298 1.202 -0.135 1.651l-0.825 0.859Z"/></g><g id="_2" data-name="2"><path class="cls-3" d="m153.957 53.258 1.679 -0.46c0.359 -0.101 0.741 0.062 0.921 0.387 0.382 0.702 0.781 1.556 1.112 2.566 0.343 1.033 0.533 1.982 0.64 2.791 0.056 0.41 -0.219 0.792 -0.618 0.882 -0.567 0.129 -1.14 0.264 -1.707 0.393 -0.449 0.101 -0.898 -0.191 -0.971 -0.64 -0.124 -0.736 -0.309 -1.567 -0.601 -2.46 -0.286 -0.876 -0.623 -1.651 -0.955 -2.308 -0.23 -0.46 0 -1.011 0.5 -1.146Z"/><path class="cls-3" d="m160.112 51.955 1.791 -0.202c0.359 -0.039 0.696 0.163 0.82 0.5 0.275 0.758 0.539 1.673 0.713 2.729 0.18 1.084 0.219 2.061 0.202 2.881 -0.011 0.399 -0.326 0.719 -0.719 0.747 -0.601 0.045 -1.202 0.084 -1.803 0.129 -0.449 0.034 -0.825 -0.326 -0.831 -0.775a16.402 16.402 0 0 0 -0.82 -5.015c-0.152 -0.466 0.168 -0.949 0.651 -1.005Z"/><path class="cls-3" d="M156.787 67.449c-0.477 -0.696 -0.225 -1.668 0.545 -2.022 1.376 -0.635 3.762 -1.819 5.374 -3.437 2.774 -2.785 3.931 -6.402 4.386 -8.39 0.168 -0.741 0.91 -1.196 1.651 -1.028l0.809 0.185c0.741 0.168 1.207 0.91 1.033 1.651 -0.517 2.229 -1.814 6.261 -4.908 9.502 -2.168 2.269 -5.178 3.751 -6.879 4.498 -0.601 0.264 -1.303 0.056 -1.679 -0.489 -0.107 -0.157 -0.213 -0.314 -0.326 -0.472Z"/></g><path id="_3" data-name="3" class="cls-2" d="M179.789 42.533c0.011 6.391 0.017 13.904 0.028 20.295 0 0.848 0.685 1.533 1.533 1.533h0.674c0.848 0 1.533 -0.685 1.533 -1.533V52.287c1.994 0.887 4.554 2.033 6.553 2.914 0.797 0.354 1.724 -0.028 2.044 -0.837l0.298 -0.747c0.298 -0.752 -0.039 -1.606 -0.775 -1.954 -2.555 -1.202 -5.672 -2.662 -8.221 -3.858v-5.273c0 -0.848 -0.685 -1.533 -1.533 -1.533h-0.606c-0.848 0 -1.533 0.685 -1.533 1.533Z"/><path id="_4" data-name="4" class="cls-3" d="m205.143 52.017 0.91 -2.426c-0.371 -0.056 -4.751 -0.724 -6.772 -1.264 -0.241 -0.062 -0.719 -0.197 -0.96 -0.606 -0.32 -0.539 -0.051 -1.286 0.152 -1.87 0.118 -0.343 0.185 -0.517 0.354 -0.657 0.46 -0.376 1.219 -0.146 1.466 -0.073 1.64 0.466 6.643 1.191 9.502 1.185 1.988 0 4.678 -0.359 5.509 0.629 0.062 0.073 0.253 0.32 0.404 0.679 0.27 0.64 0.41 1.645 -0.051 2.022 -0.219 0.174 -0.5 0.157 -0.606 0.152 -0.887 -0.051 -2.634 0.045 -5.206 0.253l-1.011 2.982 6.924 2.476c0.129 0.185 0.208 0.354 0.253 0.477 0.298 0.814 0.045 1.791 -0.533 2.375 -0.118 0.118 -0.23 0.202 -0.303 0.253 -2.527 -0.679 -5.054 -1.365 -7.581 -2.05 -1.539 2.83 -3.397 4.509 -4.622 5.436 -0.713 0.533 -4.335 3.257 -6.014 2.145 -0.489 -0.326 -1.112 -1.168 -1.342 -2.044 -0.056 -0.213 -0.062 -0.343 -0.028 -0.483 0.219 -0.775 1.808 -0.932 2.173 -0.988 1.213 -0.174 3.122 -1.23 6.138 -5.206 -2.909 -0.971 -5.812 -1.937 -8.721 -2.903 -0.028 -0.039 -0.067 -0.09 -0.101 -0.152 -0.399 -0.736 0.124 -1.949 0.91 -2.578 0.107 -0.084 0.197 -0.14 0.253 -0.18 2.965 0.797 5.93 1.6 8.895 2.398Z"/><path id="_5" data-name="5" class="cls-2" d="m219.547 50.198 -0.809 3.639c11.478 -0.314 19.407 -0.494 20.317 -0.404 0.062 0.006 0.309 0.034 0.556 -0.101 0.567 -0.314 0.752 -1.314 0.505 -2.072 0 0 -0.129 -0.404 -0.404 -0.708 -1.061 -1.185 -17.465 -0.477 -20.166 -0.354"/><path id="_6" data-name="6" class="cls-3" d="M253.005 46.559a28.64 28.64 0 0 1 -3.774 6.2c-3.01 3.751 -6.362 5.975 -8.626 7.21 -0.062 0.118 -0.505 1.028 -0.067 1.954 0.455 0.96 1.539 1.286 2.291 1.213a2.134 2.134 0 0 0 0.943 -0.337c1.741 -1.118 7.39 -6.469 7.817 -6.873 3.195 2.701 4.605 4.038 5.256 4.751 0.466 0.511 1.011 0.943 1.516 1.415 0.651 0.612 0.887 0.848 1.314 0.91 0.635 0.09 1.191 -0.27 1.449 -0.438 0.219 -0.14 0.651 -0.421 0.809 -0.809 0.359 -0.882 -0.786 -2.134 -1.28 -2.662 -2.325 -2.482 -5.312 -5.144 -6.671 -6.334l3.908 -6.84c0.101 0.185 0.404 0.713 0.943 0.809 0.09 0.017 0.202 0.022 0.606 -0.067 0.955 -0.213 1.432 -0.326 1.617 -0.708 0.051 -0.112 0.129 -0.348 0 -0.741 0.129 0.095 0.326 0.208 0.573 0.27 0.842 0.202 1.864 -0.309 2.156 -1.011 0.258 -0.623 -0.298 -1.438 -1.415 -3.066 -1.185 -1.735 -1.685 -1.892 -2.022 -1.887 -0.41 0 -0.87 0.253 -1.146 0.404 -0.427 0.236 -0.545 0.41 -0.606 0.539 -0.095 0.213 -0.084 0.416 -0.067 0.539 -0.112 -0.124 -0.343 -0.326 -0.674 -0.404 -0.539 -0.124 -0.988 0.168 -1.348 0.404 -0.393 0.253 -0.803 0.522 -0.876 1.011 -0.062 0.41 0.146 0.747 0.236 0.876 -3.336 0.174 -5.997 0.101 -7.817 0 -1.685 -0.09 -5.571 -0.365 -5.964 0.741 -0.051 0.146 -0.118 0.528 -0.101 0.943 0.011 0.236 0.034 0.82 0.303 1.213 0.404 0.59 1.269 0.646 1.718 0.674 1.499 0.084 4.74 0.146 8.996 0.101"/></g></g></g></svg>