<svg width="97" height="59" viewBox="0 0 97 59" fill="none" xmlns="http://www.w3.org/2000/svg">
<path d="M61.4219 9.00773C61.447 9.00773 61.4741 9.00773 61.5012 9.00773C61.5282 9.00773 61.5572 9.00773 61.5862 9.00773C61.6171 9.00773 61.6461 9.00773 61.6771 9.00773C61.7621 9.00773 61.8452 9.00773 61.9283 9.00773C62.0192 9.00773 62.11 9.00773 62.199 9.00773H63.3471C63.7357 9.00773 64.1261 9.00773 64.5146 9.00773H65.5178C65.9064 9.00773 66.2929 9.00773 66.6815 9.00773H67.8219C67.9108 9.00773 68.0017 9.00773 68.0906 9.00773C68.1872 9.00773 68.2839 9.00773 68.3805 9.00773C68.4076 9.00773 68.4366 9.00773 68.4656 9.00773C68.4926 9.00773 68.5178 9.00773 68.5448 9.00773H68.6125C68.6685 9.00966 68.6685 9.00966 68.742 9.03479C68.7459 9.06765 68.7459 9.06765 68.7478 9.10051C68.7806 9.31894 68.8599 9.52383 68.9643 9.71712V9.76545H69.0145C69.0358 9.80024 69.0358 9.80024 69.059 9.8331C69.1982 10.0361 69.4842 10.1926 69.7239 10.2448C69.8264 10.2564 69.9269 10.2583 70.0293 10.2583C70.0487 10.2583 70.068 10.2603 70.0873 10.2603C70.3869 10.2603 70.7059 10.0921 70.9204 9.88916C71.1137 9.66493 71.22 9.40785 71.2548 9.11791C71.2664 9.05992 71.2664 9.05992 71.3147 9.00966C71.3631 9.00387 71.3631 9.00387 71.423 9.00387H71.4926C71.5158 9.00387 71.5409 9.00387 71.566 9.00387C71.5931 9.00387 71.6201 9.00387 71.6472 9.00387C71.7323 9.00193 71.8192 9.00193 71.9082 9.00193C71.9681 9.00193 72.028 9.00193 72.0898 9.00193C72.2155 9.00193 72.3431 9.00193 72.4706 9.00193C72.633 9.00193 72.7954 9.00193 72.9577 9.00193C73.0834 9.00193 73.209 9.00193 73.3327 9.00193C73.3927 9.00193 73.4526 9.00193 73.5125 9C73.8392 9 74.1407 9.0116 74.4577 9.08312C74.5312 9.09278 74.6065 9.10051 74.68 9.10825C74.7225 9.11404 74.7631 9.12371 74.8037 9.13144C74.8211 9.13531 74.8366 9.13917 74.854 9.1411C74.9719 9.16623 75.084 9.19909 75.198 9.23775C75.2637 9.25901 75.3295 9.27061 75.3971 9.27834V9.32667C75.4145 9.33053 75.43 9.33247 75.4474 9.33633C75.5846 9.36146 75.7064 9.38852 75.8282 9.46004C75.8939 9.50063 75.8939 9.50063 75.9693 9.52963C76.0833 9.57795 76.1916 9.63401 76.3017 9.69006C76.3211 9.69973 76.3404 9.71132 76.3617 9.72099C76.4854 9.78478 76.5975 9.8563 76.7096 9.93748C76.7444 9.95681 76.7792 9.97614 76.8159 9.99353C76.9493 10.0651 77.0633 10.1578 77.1793 10.2545C77.2257 10.2912 77.2721 10.3279 77.3185 10.3647C77.3629 10.4014 77.4074 10.4381 77.4518 10.4729C77.4692 10.4884 77.4886 10.5038 77.506 10.5193C77.6084 10.6043 77.6973 10.6952 77.7843 10.7957C77.8152 10.8305 77.8481 10.8653 77.881 10.8982C77.937 10.9542 77.9911 11.0103 78.0433 11.0702C78.1767 11.2152 78.3178 11.3543 78.457 11.4935C78.486 11.5206 78.515 11.5496 78.544 11.5766C78.6193 11.652 78.6947 11.7274 78.772 11.8028C78.8532 11.882 78.9325 11.9613 79.0117 12.0386L79.4679 12.487C79.6399 12.6571 79.812 12.8272 79.984 12.9954C80.2778 13.2853 80.5716 13.5753 80.8674 13.8652L80.9041 13.9039L81.0046 14.0005C81.1032 14.0972 81.2018 14.1958 81.3003 14.2943C81.4086 14.4007 81.5168 14.507 81.6231 14.6133C81.6889 14.6771 81.7546 14.7409 81.8184 14.8066C81.8822 14.8684 81.9459 14.9303 82.0078 14.9941C82.0329 15.0173 82.0561 15.0405 82.0793 15.0637C82.2069 15.1893 82.3364 15.3111 82.4736 15.4251C82.5046 15.456 82.5336 15.4889 82.5606 15.5218C82.6979 15.6899 82.6979 15.6899 82.8699 15.8156V15.8639C82.8834 15.8716 82.8989 15.8774 82.9144 15.8832C82.9762 15.918 83.0168 15.9567 83.0671 16.0069C83.1231 16.0649 83.1772 16.1171 83.241 16.1674C83.2565 16.179 83.2739 16.1925 83.2913 16.206V16.2543H83.3396C83.3744 16.2872 83.3744 16.2872 83.415 16.3355C83.4304 16.3529 83.4459 16.3723 83.4614 16.3897C83.4788 16.409 83.4962 16.4302 83.5136 16.4496C83.5406 16.4824 83.5406 16.4824 83.5677 16.5153C83.6237 16.583 83.6798 16.6506 83.7359 16.7183C83.7532 16.7395 83.7706 16.7608 83.788 16.782C83.8035 16.8014 83.8209 16.8207 83.8364 16.842C83.8499 16.8594 83.8654 16.8768 83.8789 16.8942C83.9098 16.9386 83.9098 16.9386 83.9098 16.9869H83.9581C83.9871 17.0237 83.9871 17.0237 84.0181 17.0759C84.0297 17.0932 84.0413 17.1126 84.0529 17.1319L84.0896 17.1918C84.1012 17.2112 84.1128 17.2305 84.1263 17.2498C84.2462 17.447 84.3583 17.6441 84.4549 17.8529C84.4684 17.88 84.4684 17.88 84.48 17.907C84.4974 17.9437 84.5148 17.9785 84.5303 18.0133C84.5477 18.0501 84.5651 18.0868 84.5825 18.1235C84.6985 18.3671 84.7758 18.628 84.8318 18.8909C84.8473 18.9643 84.8473 18.9643 84.8744 19.0359C84.8976 19.1054 84.9072 19.1654 84.913 19.2369C84.9188 19.3219 84.9188 19.3219 84.9478 19.4012C84.9555 19.465 84.9613 19.5288 84.9652 19.5906C84.9671 19.6447 84.9671 19.6447 84.9981 19.6699C85 19.7279 85 19.7858 85 19.8438V19.898C85 19.9579 85 20.0178 85 20.0777V20.532C85 20.6421 85 20.7542 84.9981 20.8664C84.9981 21.0848 84.9981 21.3051 84.9981 21.5236C84.9671 21.5294 84.9362 21.5371 84.9053 21.5429C84.8647 21.5526 84.8241 21.5603 84.7835 21.57C84.7622 21.5738 84.7429 21.5777 84.7217 21.5816C84.5748 21.6125 84.453 21.6569 84.3293 21.7439L84.2771 21.7768C84.0277 21.9507 83.8673 22.1866 83.7861 22.4746C83.7803 22.492 83.7745 22.5074 83.7706 22.5248C83.6779 22.8457 83.7842 23.1414 83.9349 23.4275C84.1089 23.7252 84.3621 23.8644 84.6753 23.9881L84.9981 24.0364V26.8411L84.5284 26.8914C84.0896 27.0383 83.5967 27.2721 83.3396 27.6703C83.3241 27.6955 83.3087 27.7187 83.2913 27.7438C83.0439 28.1381 82.9047 28.4744 82.9066 28.9461C82.9066 28.977 82.9066 29.0079 82.9066 29.0389C82.9201 29.6593 83.2178 30.1155 83.6508 30.5446C83.7088 30.6026 83.7088 30.6026 83.7861 30.6219V30.6722C83.8112 30.6799 83.8112 30.6799 83.8364 30.6896C83.9195 30.7244 83.9968 30.765 84.0761 30.8056C84.2094 30.8732 84.3312 30.9158 84.4781 30.9389L84.5032 30.9641C84.5535 30.9737 84.6037 30.9815 84.654 30.9892C84.6811 30.9931 84.7101 30.9969 84.7391 31.0008L84.9981 31.0375V32.5008H84.9478C84.9497 32.5201 84.9497 32.5375 84.9497 32.5568C84.9517 32.6941 84.9497 32.8197 84.915 32.9531C84.8956 33.0285 84.8782 33.1058 84.8628 33.1831C84.8183 33.388 84.7622 33.5774 84.6753 33.7688C84.6656 33.8016 84.6559 33.8326 84.6443 33.8654C84.4858 34.3467 84.2268 34.7894 83.9311 35.203C83.8789 35.2765 83.8789 35.2765 83.8344 35.3557H83.7861C83.7784 35.3693 83.7726 35.3828 83.7648 35.3983C83.6527 35.607 83.4362 35.7771 83.27 35.9414C83.2236 35.9878 83.1772 36.0342 83.1328 36.0787C83.1038 36.1076 83.0729 36.1366 83.0439 36.1656C83.0303 36.1792 83.0168 36.1946 83.0033 36.2082C82.9047 36.3029 82.9047 36.3029 82.8428 36.3183C82.8274 36.3222 82.8119 36.3261 82.7964 36.3299L82.7713 36.4034C82.723 36.444 82.723 36.444 82.6592 36.4846C82.6379 36.5 82.6147 36.5155 82.5915 36.529C82.5587 36.5522 82.5587 36.5522 82.5239 36.5754C82.5046 36.587 82.4852 36.6005 82.4659 36.6121C82.0175 36.9118 81.5458 37.163 81.0239 37.3138C80.9659 37.3312 80.9099 37.3486 80.8519 37.3679C80.8345 37.3737 80.8152 37.3795 80.7958 37.3853C80.761 37.3969 80.7263 37.4105 80.6915 37.422C80.5388 37.4781 80.3841 37.4974 80.2237 37.5148C80.1522 37.5168 80.1522 37.5168 80.1232 37.5496C80.0729 37.5516 80.0227 37.5516 79.9743 37.5516H79.8912L79.8274 37.5496V37.5999H75.1497L75.1014 37.2326C75.0589 37.0123 74.9815 36.819 74.8791 36.6179C74.8714 36.6025 74.8636 36.5851 74.854 36.5677C74.8056 36.471 74.7534 36.3879 74.68 36.3067C74.6665 36.2893 74.6529 36.2719 74.6375 36.2565C74.5524 36.1579 74.4654 36.0671 74.3591 35.9897C74.3321 35.9685 74.3321 35.9685 74.305 35.9491C74.0866 35.7906 73.8527 35.6727 73.5917 35.5993C73.5666 35.5896 73.5396 35.5819 73.5125 35.5742C73.3733 35.5394 73.238 35.5413 73.095 35.5413C73.0447 35.5413 72.9945 35.5394 72.9442 35.5394C72.7239 35.5374 72.5364 35.5703 72.3295 35.6476C72.3102 35.6553 72.2909 35.6611 72.2715 35.6689C72.2213 35.6882 72.1749 35.7075 72.1266 35.7288C72.1092 35.7365 72.0918 35.7423 72.0744 35.75C71.9371 35.8119 71.825 35.8892 71.711 35.9897C71.6936 36.0033 71.6762 36.0168 71.6588 36.0323C71.2683 36.3551 70.9842 36.8344 70.9359 37.3389C70.9339 37.3776 70.9301 37.4182 70.9281 37.4568C70.9204 37.5496 70.9204 37.5496 70.8953 37.5999C70.356 37.5999 69.8186 37.5999 69.2793 37.5999C69.03 37.5999 68.7806 37.5999 68.5294 37.5999C68.3129 37.6018 68.0944 37.6018 67.876 37.6018C67.762 37.6018 67.646 37.6018 67.53 37.6018C67.4218 37.6018 67.3135 37.6018 67.2053 37.6018C67.1647 37.6018 67.126 37.6018 67.0854 37.6018H66.8303C66.7626 37.5999 66.7626 37.5999 66.7375 37.5748C66.7027 37.5709 66.666 37.567 66.6293 37.5632C66.4051 37.5438 66.1963 37.4897 65.9798 37.4259C65.9122 37.4085 65.8445 37.3911 65.7749 37.3776C65.6783 37.3583 65.5913 37.3215 65.5004 37.2829C65.4734 37.2751 65.4463 37.2674 65.4173 37.2597C65.3071 37.2268 65.2086 37.1824 65.1061 37.136C65.0752 37.1224 65.0443 37.1089 65.0114 37.0934C64.6364 36.9272 64.2904 36.7301 63.9676 36.4768C63.9386 36.4556 63.9386 36.4556 63.9096 36.4324C63.8536 36.3918 63.7994 36.3493 63.7453 36.3067C63.7241 36.2913 63.7047 36.2758 63.6835 36.2603C63.5366 36.1463 63.4032 36.0226 63.2698 35.8931C63.2524 35.8776 63.237 35.8602 63.2196 35.8448C63.2041 35.8293 63.1886 35.8138 63.1732 35.7984C63.1596 35.7848 63.1461 35.7694 63.1306 35.7558C63.1016 35.7211 63.1016 35.7211 63.1016 35.6727H63.0514C63.0224 35.6437 62.9934 35.6167 62.9644 35.5877C62.9257 35.5471 62.8852 35.5084 62.8426 35.4678C62.7576 35.3867 62.6745 35.3055 62.5894 35.2224C62.5527 35.1876 62.516 35.1528 62.4792 35.118C62.427 35.0677 62.3749 35.0155 62.3227 34.9653L62.2724 34.9169L62.226 34.8725C62.2067 34.8532 62.2067 34.8532 62.1874 34.8338C62.1603 34.7932 62.1603 34.7932 62.1661 34.743C62.1951 34.6734 62.2473 34.6328 62.3033 34.5826C62.4174 34.4724 62.4908 34.3738 62.5566 34.2327C62.5662 34.2153 62.574 34.196 62.5836 34.1786C62.6532 34.0201 62.6725 33.8848 62.6706 33.7127L62.6687 33.6393C62.659 33.2933 62.514 32.9995 62.2589 32.7598C62.0946 32.6264 61.9206 32.5491 61.7157 32.5008C61.6964 32.495 61.6751 32.4911 61.6558 32.4853C61.5592 32.4621 61.4683 32.4428 61.3697 32.4524L61.3446 32.4756C61.3117 32.4834 61.2789 32.4911 61.248 32.4969C61.2054 32.5066 61.1629 32.5162 61.1223 32.5259C61.0914 32.5317 61.0914 32.5317 61.0605 32.5394C60.7724 32.6129 60.5792 32.8042 60.3801 33.013C60.2448 32.9028 60.1191 32.7849 59.9954 32.6612C59.9741 32.6438 59.9567 32.6245 59.9355 32.6032C59.8949 32.5626 59.8543 32.524 59.8137 32.4834C59.7499 32.4215 59.6881 32.3597 59.6243 32.2978C59.5837 32.2591 59.545 32.2186 59.5044 32.1799C59.4851 32.1625 59.4658 32.1432 59.4464 32.1238C59.429 32.1064 59.4136 32.089 59.3943 32.0717C59.3788 32.0581 59.3633 32.0427 59.3479 32.0272C59.315 31.9885 59.315 31.9885 59.315 31.9402L59.2686 31.9189C59.2164 31.8919 59.2164 31.8919 59.1913 31.8184L59.143 31.7933C59.0927 31.7682 59.0927 31.7682 59.0676 31.6967L59.0193 31.6715C58.969 31.6464 58.969 31.6464 58.9439 31.5749L58.8956 31.5498C58.8453 31.5246 58.8453 31.5246 58.8202 31.4512L58.7718 31.428C58.7216 31.4029 58.7216 31.4029 58.6965 31.3294L58.6481 31.3062C58.5979 31.2811 58.5979 31.2811 58.5728 31.2076L58.5244 31.1844C58.4742 31.1593 58.4742 31.1593 58.449 31.0858L58.4007 31.0627C58.3505 31.0375 58.3505 31.0375 58.3253 30.9641L58.277 30.9389C58.2268 30.9158 58.2268 30.9157 58.2016 30.8423L58.1533 30.8172C58.103 30.794 58.103 30.794 58.0779 30.7205H58.0296C57.989 30.6857 57.989 30.6857 57.9542 30.6471V30.5987C57.9407 30.5929 57.9291 30.5871 57.9136 30.5814C57.8363 30.5388 57.7764 30.4789 57.7145 30.4151C57.701 30.4035 57.6894 30.39 57.6759 30.3784C57.5831 30.2875 57.5831 30.2875 57.5831 30.2315H57.5348C57.4961 30.1909 57.4961 30.1909 57.4536 30.1329C57.3975 30.0575 57.3395 29.986 57.2757 29.9164C57.212 29.843 57.212 29.843 57.212 29.7927H57.1636C57.0882 29.6864 57.0882 29.6864 57.0882 29.6226H57.0399C56.9897 29.5511 56.9645 29.5144 56.9645 29.4274H56.9162C56.7809 29.2515 56.692 29.0389 56.5934 28.8417C56.578 28.8088 56.5606 28.776 56.5432 28.7412C56.4948 28.6503 56.4562 28.5653 56.431 28.4648C56.4156 28.4049 56.4156 28.4049 56.3963 28.3546L56.346 28.3295C56.3305 28.2599 56.3209 28.1922 56.3112 28.1207C56.3073 28.1014 56.3015 28.0821 56.2977 28.0608L56.2474 28.0376C56.2339 27.9873 56.2339 27.9873 56.2242 27.9255C56.2068 27.8288 56.1798 27.7477 56.143 27.6568C56.1082 27.5447 56.0986 27.4287 56.085 27.3127C56.0773 27.2316 56.0773 27.2316 56.0503 27.1581C56.0483 27.1175 56.0483 27.075 56.0483 27.0325V26.9648L56.0503 26.9146H56V14.1822H56.0251C56.0619 13.9831 56.0619 13.9831 56.085 13.7821C56.1063 13.5772 56.1566 13.3762 56.2223 13.181C56.2378 13.1249 56.2551 13.0689 56.2687 13.0128C56.3035 12.8968 56.3402 12.7944 56.3982 12.69C56.4214 12.6417 56.4368 12.5972 56.4523 12.547C56.5354 12.2899 56.6804 12.0483 56.8254 11.8202C56.835 11.8028 56.8447 11.7873 56.8563 11.7699C56.9046 11.6965 56.9529 11.6327 57.0148 11.5708C57.0496 11.5148 57.0786 11.4568 57.1095 11.4007C57.1385 11.3524 57.1385 11.3524 57.1888 11.3273L57.21 11.2828C57.2429 11.219 57.2835 11.1804 57.3357 11.132C57.3782 11.0914 57.4149 11.0489 57.4536 11.0064L57.4942 10.96C57.5212 10.9291 57.5483 10.8982 57.5754 10.8672L57.614 10.8208C57.6256 10.8073 57.6372 10.7938 57.6488 10.7802C57.7107 10.7107 57.7783 10.6507 57.8498 10.5889C57.9155 10.5328 57.9793 10.4748 58.0393 10.413C58.2905 10.1636 58.6095 9.96067 58.9207 9.79058H58.969L58.9941 9.74225L59.0676 9.71712L59.143 9.6688C59.1913 9.64367 59.2396 9.61854 59.2879 9.59341C59.3131 9.58182 59.3382 9.56829 59.3653 9.55476C59.4329 9.52576 59.4909 9.50836 59.5624 9.4987V9.44844C59.5875 9.44264 59.6107 9.43491 59.6339 9.42718C59.8176 9.37306 59.9993 9.31314 60.179 9.24935C60.3279 9.19716 60.4709 9.15464 60.6275 9.13144C60.6526 9.12757 60.6797 9.12371 60.7067 9.11984C60.8266 9.10051 60.9445 9.08312 61.0643 9.06959C61.1436 9.06379 61.1436 9.06379 61.1958 9.03479C61.2731 9.0116 61.3427 9.00773 61.4219 9.00773ZM61.0972 11.913C61.0701 11.9187 61.045 11.9265 61.0179 11.9323C60.6932 12.0135 60.3743 12.1739 60.1075 12.3769V12.4252C60.092 12.431 60.0785 12.4387 60.0631 12.4445C59.9065 12.5276 59.7808 12.6707 59.6552 12.7924C59.6436 12.804 59.6301 12.8176 59.6185 12.8292C59.5373 12.9084 59.4754 12.9896 59.4155 13.0843C59.402 13.1017 59.3904 13.1191 59.3788 13.1384C59.3537 13.1732 59.3285 13.21 59.3053 13.2448C59.2802 13.2815 59.2551 13.3182 59.23 13.3549C59.0985 13.5502 59.0328 13.7705 58.9613 13.9909C58.9439 14.0353 58.9439 14.0353 58.9207 14.0605C58.8376 14.3485 58.8356 14.6345 58.8356 14.9341C58.8356 14.9844 58.8356 15.0347 58.8356 15.0849C58.8356 15.2241 58.8356 15.3633 58.8356 15.5024C58.8356 15.6513 58.8356 15.8001 58.8356 15.9509C58.8356 16.2273 58.8356 16.5037 58.8356 16.7801C58.8356 17.0353 58.8356 17.2904 58.8356 17.5456V17.8026C58.8337 18.2839 58.8337 18.7633 58.8337 19.2446V19.2987C58.8337 19.4456 58.8337 19.5925 58.8356 19.7395C58.8356 20.3116 58.8356 20.8857 58.8337 21.4578C58.8337 22.1015 58.8337 22.7452 58.8337 23.3908C58.8337 23.4584 58.8337 23.528 58.8337 23.5957V23.6479C58.8337 23.903 58.8337 24.1582 58.8337 24.4133C58.8318 24.7033 58.8318 24.9932 58.8337 25.2831C58.8337 25.43 58.8337 25.5789 58.8337 25.7258C58.8318 25.863 58.8337 25.9983 58.8337 26.1336C58.8337 26.182 58.8337 26.2303 58.8337 26.2805C58.8318 26.5724 58.8569 26.8295 58.9439 27.1098C58.9535 27.1426 58.9632 27.1736 58.9729 27.2064C59.0792 27.5486 59.2377 27.8559 59.4638 28.1342C59.4832 28.1574 59.5025 28.1826 59.5218 28.2058C59.6958 28.4222 59.6958 28.4222 59.9104 28.5981H59.9587L59.9741 28.6407C60.0205 28.7161 60.0805 28.747 60.1578 28.7934C60.179 28.8069 60.2003 28.8204 60.2235 28.8359C60.2815 28.8726 60.2815 28.8726 60.3549 28.8668V28.9152C60.6545 29.0698 60.6545 29.0698 60.9735 29.1838C61.0102 29.1974 61.0102 29.1974 61.0489 29.2128C61.1436 29.238 61.2228 29.236 61.3195 29.2322L61.3446 29.2805C61.4045 29.2921 61.4045 29.2921 61.476 29.294C61.6094 29.3037 61.6094 29.3037 61.6597 29.3172C61.7331 29.3346 61.8027 29.3327 61.8781 29.3327H61.9264C61.9825 29.3327 62.0366 29.3327 62.0907 29.3327H62.2067C62.313 29.3327 62.4193 29.3327 62.5256 29.3327C62.6358 29.3327 62.746 29.3327 62.8581 29.3327C63.0669 29.3327 63.2756 29.3327 63.4863 29.3307C63.7241 29.3307 63.9637 29.3307 64.2015 29.3307C64.6925 29.3307 65.1834 29.3307 65.6744 29.3307L65.6725 29.4003C65.6647 29.4738 65.6647 29.4738 65.6995 29.5008C65.7053 29.5472 65.7092 29.5936 65.715 29.64C65.7672 29.9879 66.0165 30.332 66.2929 30.5485C66.3587 30.5678 66.3587 30.5678 66.4166 30.5736V30.6219H66.4901V30.6722C66.5404 30.6915 66.5925 30.7109 66.6428 30.7302C66.6699 30.7418 66.6989 30.7534 66.7279 30.765C66.8864 30.8191 67.0391 30.823 67.2053 30.823C67.2266 30.823 67.2478 30.823 67.2691 30.823C67.4063 30.823 67.5223 30.8075 67.6537 30.7688V30.7205L67.8509 30.6954V30.6471L67.9263 30.6722C67.9417 30.6529 67.9417 30.6529 67.9591 30.6355C67.9997 30.5987 67.9997 30.5987 68.05 30.5736V30.5253H68.0983V30.477C68.1157 30.4712 68.1312 30.4673 68.1486 30.4615C68.2703 30.4055 68.3902 30.3185 68.4501 30.1986C68.4559 30.1774 68.4636 30.1561 68.4694 30.1348C68.4888 30.102 68.5081 30.0691 68.5294 30.0363C68.6415 29.8391 68.6995 29.6245 68.713 29.3984C68.7169 29.3539 68.7169 29.3539 68.742 29.3307C68.8038 29.3269 68.8657 29.3269 68.9295 29.3269H68.9894C69.0551 29.3269 69.1228 29.3269 69.1885 29.3269C69.2368 29.3269 69.2832 29.3269 69.3315 29.3269L69.6408 29.3288C69.8032 29.3288 69.9655 29.3288 70.1298 29.3288C70.5918 29.3307 71.0557 29.3307 71.5196 29.3327C71.7748 29.3327 72.0319 29.3327 72.287 29.3327C72.4494 29.3327 72.6098 29.3346 72.7722 29.3346C72.8727 29.3346 72.9751 29.3346 73.0757 29.3346C73.122 29.3346 73.1684 29.3346 73.2148 29.3346C73.5724 29.3365 73.9107 29.3133 74.2605 29.2322H74.334V29.1838C74.363 29.1819 74.392 29.178 74.421 29.1761C74.5312 29.1626 74.622 29.1278 74.7245 29.0833C74.7496 29.0717 74.7496 29.0717 74.7747 29.0601C75.0202 28.9499 75.2406 28.8166 75.4474 28.6465C75.4725 28.6271 75.4725 28.6271 75.4957 28.6059C75.6793 28.4532 75.8668 28.2908 75.9925 28.0859C76.0195 28.0492 76.0466 28.0125 76.0737 27.9757C76.1471 27.8733 76.2051 27.7689 76.2631 27.6587L76.2863 27.6143C76.3249 27.537 76.3249 27.537 76.3385 27.4519L76.3868 27.4268C76.4081 27.3746 76.4081 27.3746 76.4254 27.3108C76.4428 27.247 76.4602 27.1852 76.4873 27.1233C76.6729 26.6575 76.6129 26.095 76.6129 25.604V25.3334C76.6129 25.1788 76.6129 25.0222 76.6129 24.8656C76.611 24.6395 76.611 24.4153 76.611 24.1891C76.611 23.8238 76.611 23.4565 76.611 23.0912V23.0255C76.611 22.8689 76.611 22.7143 76.611 22.5596C76.611 22.3818 76.6091 22.204 76.6091 22.0242V20.8625C76.6091 20.6363 76.6091 20.4121 76.6091 20.186C76.6091 20.0333 76.6071 19.8786 76.6071 19.724C76.6071 19.6351 76.6071 19.5462 76.6071 19.4592C76.6071 19.3625 76.6071 19.2659 76.6071 19.1692C76.6071 19.1422 76.6071 19.1132 76.6071 19.0842V18.9392C76.611 18.889 76.611 18.889 76.6342 18.8658C76.6922 18.8619 76.7502 18.86 76.8082 18.858C76.9473 18.8503 77.0595 18.831 77.1832 18.7652C77.2315 18.7421 77.2759 18.7285 77.3281 18.7189V18.6705C77.3455 18.6647 77.3629 18.657 77.3823 18.6512C77.6316 18.541 77.881 18.253 77.995 18.0114C78.0047 17.9553 78.0143 17.8974 78.0201 17.8413L78.0704 17.8162C78.1844 17.4702 78.1438 17.0623 77.9873 16.7376C77.7727 16.3413 77.4344 16.0785 77.0073 15.9335C76.9222 15.9122 76.841 15.9122 76.7521 15.9122C76.7251 15.9122 76.6999 15.9122 76.6709 15.9122L76.611 15.9142C76.611 15.8968 76.611 15.8794 76.611 15.862C76.611 15.7035 76.6129 15.543 76.6129 15.3826C76.6129 15.3014 76.6129 15.2183 76.6129 15.1371C76.6149 15.0424 76.6149 14.9477 76.6149 14.853L76.6168 14.766C76.6187 14.478 76.6187 14.478 76.5356 14.2054C76.526 14.1648 76.5163 14.1242 76.5066 14.0817C76.4003 13.6178 76.1722 13.2332 75.8688 12.864C75.8494 12.8388 75.8301 12.8156 75.8108 12.7886L75.7682 12.7422H75.7199C75.7141 12.7287 75.7083 12.7132 75.7025 12.6997C75.6619 12.6301 75.6136 12.5933 75.546 12.547H75.4976V12.4986C75.3237 12.3537 75.1265 12.2396 74.9274 12.1333C74.9081 12.1217 74.8868 12.1101 74.8675 12.0985C74.6104 11.9651 74.3379 11.884 74.0499 11.8492C73.988 11.8395 73.988 11.8395 73.9377 11.8163C73.872 11.8124 73.8044 11.8124 73.7387 11.8124C73.7174 11.8124 73.6961 11.8124 73.6749 11.8124H73.3076C73.1665 11.8124 73.0254 11.8124 72.8843 11.8124C72.7316 11.8124 72.5789 11.8124 72.4262 11.8124C72.1285 11.8105 71.8289 11.8105 71.5312 11.8105C71.2896 11.8105 71.0461 11.8105 70.8044 11.8105H70.5416C70.0545 11.8105 69.5654 11.8105 69.0783 11.8105H68.5738C67.9901 11.8105 67.4063 11.8105 66.8245 11.8105C66.1692 11.8105 65.514 11.8105 64.8606 11.8105H64.5977C64.3213 11.8105 64.0449 11.8105 63.7685 11.8086C63.4902 11.8086 63.2118 11.8086 62.9335 11.8086C62.7827 11.8086 62.6319 11.8086 62.4812 11.8086C62.3439 11.8086 62.2067 11.8086 62.0675 11.8086C62.0173 11.8086 61.9689 11.8086 61.9187 11.8086C61.851 11.8086 61.7834 11.8086 61.7138 11.8086C61.6945 11.8086 61.6751 11.8086 61.6558 11.8086C61.4606 11.8105 61.2827 11.8588 61.0972 11.913ZM76.6342 18.8658V18.889H76.7579V18.8658H76.6342Z" fill="black"/>
<path d="M67.3819 14.6442C67.4399 14.6442 67.4979 14.6442 67.5559 14.6442L67.581 14.6693C67.6293 14.6751 67.6776 14.679 67.726 14.6828C67.7511 14.6848 67.7782 14.6867 67.8052 14.6886C67.8535 14.6925 67.9038 14.6944 67.9521 14.6944C68.0372 14.7002 68.1222 14.708 68.2073 14.7157C68.244 14.7195 68.244 14.7195 68.2788 14.7234C68.302 14.7253 68.3252 14.7273 68.3484 14.7292C68.3677 14.7311 68.389 14.7331 68.4102 14.735C68.4953 14.7447 68.5745 14.7582 68.6538 14.7911C68.7195 14.8181 68.7195 14.8181 68.7949 14.8259C69.1621 14.8781 69.5197 15.025 69.8464 15.1893C69.9237 15.2298 69.9237 15.2298 69.9798 15.2414C70.0339 15.2569 70.0706 15.2762 70.117 15.3091C70.1943 15.3574 70.2736 15.3999 70.3548 15.4425C70.6776 15.6145 70.9598 15.8561 71.242 16.0842C71.2575 16.0958 71.2729 16.1093 71.2884 16.1209C71.3676 16.1867 71.445 16.2524 71.5145 16.3278V16.3761H71.5629V16.4263L71.6383 16.4495V16.4979H71.6866C71.7272 16.5423 71.7272 16.5423 71.7716 16.6003C71.8335 16.6815 71.8953 16.7607 71.9591 16.84C72.2607 17.2266 72.5351 17.648 72.7014 18.108C72.7188 18.1447 72.7342 18.1815 72.7516 18.2163C72.8367 18.4037 72.8869 18.5912 72.9314 18.7923C72.9449 18.8464 72.9604 18.9005 72.9759 18.9546C73.0242 19.1267 73.0532 19.2968 73.0667 19.4746C73.0706 19.5249 73.0706 19.5249 73.0976 19.5732C73.1015 19.6234 73.1034 19.6756 73.1054 19.7278C73.1073 19.751 73.1073 19.751 73.1073 19.7761C73.1092 19.8283 73.1112 19.8786 73.1131 19.9308C73.1131 19.9482 73.115 19.9656 73.115 19.983C73.1402 20.8296 73.1402 20.8296 73.0725 20.963C73.0686 20.9997 73.0648 21.0364 73.0628 21.0731C73.0512 21.1814 73.0338 21.2877 73.0106 21.394C73.001 21.4423 72.9932 21.4907 72.9874 21.5409C72.972 21.6337 72.9372 21.7072 72.9005 21.7922C72.8927 21.8251 72.885 21.8579 72.8773 21.8908C72.8347 22.0957 72.7632 22.2967 72.653 22.4745C72.6318 22.5151 72.6144 22.5576 72.597 22.5982C72.5835 22.6292 72.5835 22.6292 72.5699 22.6601C72.5467 22.7432 72.568 22.7915 72.5989 22.8689C72.6337 22.9249 72.6685 22.9346 72.7265 22.9636L72.7516 23.037L72.8 23.0602L72.8502 23.0853L72.8753 23.1588L72.9237 23.182L72.9739 23.2071L72.999 23.2806L73.0474 23.3038L73.0976 23.3289L73.1228 23.4023L73.1711 23.4255L73.2213 23.4507L73.2465 23.5241L73.2948 23.5493L73.345 23.5724L73.3702 23.6459L73.4185 23.671L73.4688 23.6942L73.4939 23.7677L73.5422 23.7928L73.5925 23.816L73.6176 23.8894L73.6659 23.9146L73.7162 23.9378L73.7413 24.0112L73.7896 24.0364L73.8399 24.0615L73.865 24.133H73.9133C74.0525 24.3379 74.1047 24.5061 74.1047 24.7515C74.1047 24.7728 74.1047 24.796 74.1047 24.8192C74.095 25.1652 73.8805 25.3933 73.6427 25.6291C73.6253 25.6465 73.606 25.6658 73.5886 25.6832C73.548 25.7219 73.5093 25.7605 73.4707 25.7992C73.4108 25.8572 73.3528 25.9171 73.2948 25.9751C73.2561 26.0138 73.2175 26.0505 73.1788 26.0891C73.1633 26.1065 73.146 26.1239 73.1266 26.1413C72.8831 26.381 72.6685 26.4371 72.3322 26.439C72.1041 26.4371 71.9495 26.383 71.762 26.2554C71.7426 26.2438 71.7233 26.2302 71.704 26.2167C71.6904 26.2051 71.6769 26.1935 71.6634 26.1839V26.1336L71.588 26.1104V26.0601H71.5397V26.0118L71.4643 25.9886V25.9384H71.416V25.89L71.3406 25.8649V25.8166H71.2923V25.7683L71.2169 25.7431V25.6948H71.1685V25.6465L71.0932 25.6214V25.573H71.0448V25.5247L70.9695 25.4996V25.4513H70.9211V25.4029L70.8457 25.3778V25.3295H70.7974V25.2812L70.722 25.256V25.2077H70.6737V25.1575L70.5983 25.1343V25.0859H70.55V25.0357L70.4746 25.0125V24.9642H70.4263V24.9139L70.3509 24.8907V24.8405H70.3026V24.7921L70.2272 24.7689V24.7187H70.1789V24.6704L70.1035 24.6452V24.5969H70.0552V24.5486L69.9798 24.5235V24.4751H69.9315V24.4268L69.8561 24.4017V24.3534H69.8078V24.305L69.7324 24.2799V24.2316H69.684V24.1833L69.6087 24.1581V24.1098H69.5603V24.0615L69.485 24.0364V23.988H69.4366V23.9378L69.3612 23.9146V23.8663H69.3129V23.816L69.2375 23.7928V23.7445H69.1892V23.6942L69.1138 23.671V23.6208H69.0655C69.0249 23.5879 69.0249 23.5879 68.9901 23.5493V23.499H68.9418C68.9012 23.4661 68.9012 23.4661 68.8664 23.4255V23.3772H68.8181C68.7775 23.3444 68.7775 23.3444 68.7427 23.3038V23.2554H68.6944C68.6538 23.2226 68.6538 23.2226 68.619 23.182V23.1337H68.5707C68.5301 23.1008 68.5301 23.1008 68.4953 23.0602V23.0119H68.447C68.4064 22.979 68.4064 22.979 68.3716 22.9384V22.8901H68.3232C68.2827 22.8553 68.2827 22.8553 68.2479 22.8167V22.7683H68.1995C68.1589 22.7335 68.1589 22.7335 68.1242 22.6949V22.6466H68.0758C68.0352 22.6118 68.0352 22.6118 68.0004 22.5731V22.5248H67.9521C67.9096 22.4958 67.9096 22.4958 67.8767 22.4513C67.8845 22.3856 67.8845 22.3856 67.9019 22.3296C67.9946 22.3006 67.9946 22.3006 68.0507 22.3296V22.2793C68.072 22.2754 68.072 22.2754 68.0952 22.2716C68.1261 22.2658 68.1261 22.2658 68.1551 22.26C68.1744 22.2561 68.1937 22.2522 68.215 22.2484C68.2807 22.229 68.3175 22.2001 68.3716 22.1575C68.4199 22.1343 68.4663 22.1111 68.5146 22.0899C68.9824 21.8618 69.3322 21.4578 69.5081 20.9746C69.5255 20.9224 69.5429 20.8702 69.5603 20.8161C69.5681 20.7909 69.5758 20.7658 69.5855 20.7387C69.6106 20.6402 69.6164 20.5493 69.6164 20.4488V20.3927C69.6164 20.356 69.6164 20.3174 69.6164 20.2787C69.6145 20.2207 69.6164 20.1627 69.6164 20.1047V19.9907C69.6164 19.9656 69.6164 19.9656 69.6164 19.9404C69.6145 19.7529 69.5603 19.5848 69.4907 19.4147C69.483 19.3973 69.4772 19.3818 69.4714 19.3664C69.427 19.262 69.3767 19.1673 69.3129 19.0745C69.2801 19.0242 69.2569 18.9701 69.2375 18.914H69.1892C69.1138 18.829 69.1138 18.829 69.1138 18.7671H69.0655C69.023 18.7265 68.9824 18.686 68.9418 18.6454L68.8664 18.597V18.5487C68.8529 18.541 68.8393 18.5352 68.8258 18.5275C68.7582 18.4946 68.6924 18.4579 68.6248 18.4231C68.6016 18.4095 68.5765 18.396 68.5513 18.3825L68.4953 18.3535V18.3032C68.4798 18.2994 68.4644 18.2936 68.447 18.2897L68.3812 18.2704C68.36 18.2646 68.3387 18.2568 68.3175 18.251C68.2691 18.2375 68.2227 18.222 68.1763 18.2066C68.0623 18.1699 67.9444 18.1486 67.8265 18.1254C67.753 18.108 67.753 18.108 67.7279 18.0848C67.6931 18.0809 67.6583 18.0809 67.6235 18.0809C67.6042 18.0809 67.5829 18.0809 67.5597 18.0809H67.494C67.4708 18.0809 67.4496 18.0809 67.4264 18.0809C67.3954 18.0809 67.3954 18.0809 67.3626 18.0809H67.3046C67.2582 18.079 67.2582 18.079 67.2331 18.108C67.1789 18.1215 67.1229 18.1331 67.0688 18.1447C66.8793 18.1815 66.715 18.2394 66.543 18.3245C66.5256 18.3322 66.5082 18.34 66.4927 18.3477C66.4058 18.3902 66.3265 18.4366 66.2473 18.4927C66.1699 18.5487 66.1699 18.5487 66.1197 18.5487V18.597C66.081 18.6338 66.081 18.6338 66.0288 18.6763C65.9631 18.7304 65.9051 18.7845 65.851 18.8522C65.8336 18.8715 65.8162 18.8928 65.7988 18.914H65.7486L65.7292 18.9662C65.6983 19.0397 65.6596 19.0996 65.6152 19.1653C65.5437 19.2736 65.4934 19.376 65.4528 19.4997C65.4393 19.5307 65.4258 19.5635 65.4142 19.5944C65.3349 19.8071 65.3195 20.0081 65.3195 20.2342C65.3195 20.2632 65.3195 20.2922 65.3195 20.3212C65.3272 20.8721 65.5746 21.3824 65.9689 21.7709C66.0018 21.8019 66.0366 21.8347 66.0714 21.8657C66.0868 21.8811 66.1023 21.8985 66.1178 21.9159C66.1796 21.972 66.2434 22.001 66.3188 22.0358C66.3632 22.0628 66.4077 22.0899 66.4522 22.1189C66.7614 22.2967 67.0842 22.3528 67.436 22.3682C67.5771 22.376 67.5771 22.376 67.6042 22.4011C67.6081 22.4455 67.6081 22.49 67.6081 22.5345V22.6195C67.6081 22.6524 67.6081 22.6833 67.6081 22.7162V22.8167C67.6081 22.9075 67.6081 22.9984 67.6081 23.0892C67.6081 23.1839 67.6081 23.2786 67.6081 23.3734C67.6081 23.5531 67.6061 23.7329 67.6061 23.9146C67.6061 24.1195 67.6061 24.3244 67.6061 24.5293C67.6061 24.9506 67.6061 25.372 67.6042 25.7934C67.5249 25.7934 67.4438 25.7934 67.3626 25.7934L67.293 25.7953C67.2601 25.7953 67.2601 25.7953 67.2253 25.7953C67.1944 25.7953 67.1944 25.7953 67.1635 25.7953C67.1094 25.7934 67.1094 25.7934 67.0359 25.7683C66.9451 25.7605 66.8561 25.7567 66.7653 25.7509C66.6899 25.7431 66.6899 25.7431 66.6648 25.7199C66.6029 25.7122 66.5411 25.7045 66.4792 25.6987C66.3458 25.6832 66.2241 25.662 66.0984 25.6156C66.0385 25.5943 65.9805 25.5846 65.9187 25.573C65.8143 25.5537 65.7234 25.5189 65.6249 25.4764C65.5611 25.4551 65.4973 25.4377 65.4335 25.4203C65.3774 25.4029 65.3774 25.4029 65.304 25.3527C65.2537 25.3372 65.2054 25.3218 65.1551 25.3044C64.9232 25.2039 64.7048 25.0801 64.4883 24.9487L64.4245 24.91C64.2815 24.8231 64.1481 24.7264 64.0166 24.622C64.0031 24.6104 63.9896 24.5988 63.9761 24.5892C63.9181 24.5428 63.862 24.4964 63.804 24.4481C63.7441 24.3997 63.7441 24.3997 63.6706 24.3534V24.305L63.5972 24.2799V24.2316C63.5817 24.2258 63.5643 24.2181 63.5489 24.2123C63.4986 24.1833 63.4986 24.1833 63.4735 24.1098H63.4232V24.0615L63.3498 24.0364V23.988H63.2995C63.2628 23.9455 63.2628 23.9455 63.2203 23.8894C63.2048 23.8701 63.1893 23.8489 63.1719 23.8295C63.1584 23.8083 63.143 23.7889 63.1275 23.7677C63.114 23.7503 63.1004 23.7348 63.0869 23.7174C63.0502 23.6691 63.0154 23.6208 62.9787 23.5724C62.9516 23.5396 62.9265 23.5048 62.9013 23.47C62.8878 23.4545 62.8762 23.4391 62.8646 23.4217C62.8375 23.3869 62.8086 23.354 62.7796 23.3212C62.7022 23.2168 62.6443 23.1027 62.5824 22.9868C62.5631 22.9539 62.5457 22.9191 62.5263 22.8843C62.2615 22.3914 62.2615 22.3914 62.2151 22.2464C62.1861 22.1575 62.1552 22.0667 62.1243 21.9778C62.0566 21.7883 61.9986 21.6047 61.9716 21.4037C61.9697 21.3534 61.9697 21.3534 61.9387 21.3283C61.931 21.278 61.9271 21.2278 61.9213 21.1775C61.9194 21.1331 61.9194 21.1331 61.8904 21.1099C61.8846 21.0557 61.8788 21.0036 61.8769 20.9494C61.8749 20.934 61.8749 20.9166 61.873 20.8992C61.8711 20.8644 61.8691 20.8296 61.8672 20.7948C61.8633 20.7426 61.8595 20.6904 61.8556 20.6382C61.8343 20.2942 61.8324 19.954 61.8633 19.6099C61.8653 19.5828 61.8672 19.5558 61.8691 19.5287C61.8865 19.3316 61.8865 19.3316 61.9136 19.3045C61.9233 19.2484 61.931 19.1924 61.9387 19.1363C61.9619 18.9701 61.9619 18.9701 61.989 18.8889C62.0044 18.8329 62.018 18.7749 62.0334 18.7169C62.0682 18.5835 62.1108 18.454 62.1668 18.3264C62.1881 18.2762 62.1881 18.2762 62.2113 18.2066H62.2615L62.2364 18.1331C62.2577 18.0713 62.2847 18.0094 62.3118 17.9495C62.3195 17.9321 62.3272 17.9128 62.3369 17.8954C62.391 17.7775 62.451 17.6654 62.5225 17.5571C62.5611 17.4933 62.5959 17.4295 62.6307 17.3638C62.7042 17.2304 62.7892 17.1087 62.8801 16.9869C62.8955 16.9637 62.9129 16.9405 62.9303 16.9173C63.1758 16.581 63.1758 16.581 63.2744 16.5481C63.2918 16.5153 63.3092 16.4824 63.3246 16.4495C63.3633 16.4051 63.3633 16.4051 63.4097 16.3606C63.4252 16.3452 63.4426 16.3297 63.458 16.3123L63.5624 16.2118C63.688 16.0881 63.688 16.0881 63.746 16.0591L63.8021 16.003C64.1404 15.6706 64.5985 15.4173 65.0218 15.2047C65.0392 15.1951 65.0566 15.1873 65.074 15.1777C65.1977 15.1177 65.3175 15.0829 65.4528 15.0597V15.0114C65.851 14.8839 65.851 14.8839 66.0153 14.851C66.0888 14.8375 66.1583 14.8201 66.2299 14.8027C66.255 14.7949 66.2801 14.7891 66.3053 14.7833C66.3671 14.7698 66.3671 14.7698 66.4174 14.7427C66.4541 14.7369 66.4927 14.7331 66.5295 14.7311C66.5527 14.7292 66.5739 14.7253 66.5971 14.7234C66.6223 14.7215 66.6455 14.7195 66.6686 14.7176C66.8503 14.7022 66.8503 14.7022 67.0301 14.6809C67.1074 14.6693 67.1789 14.6674 67.2563 14.6674C67.2814 14.6674 67.3046 14.6674 67.3297 14.6674C67.3471 14.6693 67.3645 14.6693 67.3819 14.6693V14.6442ZM69.6589 20.0854V20.4024H69.684V20.0854H69.6589Z" fill="black"/>
<path d="M17.4219 23.0077C17.447 23.0077 17.4741 23.0077 17.5012 23.0077C17.5282 23.0077 17.5572 23.0077 17.5862 23.0077C17.6171 23.0077 17.6461 23.0077 17.6771 23.0077C17.7621 23.0077 17.8452 23.0077 17.9283 23.0077C18.0192 23.0077 18.11 23.0077 18.199 23.0077H19.3471C19.7357 23.0077 20.1261 23.0077 20.5146 23.0077H21.5178C21.9064 23.0077 22.2929 23.0077 22.6815 23.0077H23.8219C23.9108 23.0077 24.0017 23.0077 24.0906 23.0077C24.1872 23.0077 24.2839 23.0077 24.3805 23.0077C24.4076 23.0077 24.4366 23.0077 24.4656 23.0077C24.4926 23.0077 24.5178 23.0077 24.5448 23.0077H24.6125C24.6685 23.0097 24.6685 23.0097 24.742 23.0348C24.7459 23.0677 24.7459 23.0677 24.7478 23.1005C24.7806 23.3189 24.8599 23.5238 24.9643 23.7171V23.7654H25.0145C25.0358 23.8002 25.0358 23.8002 25.059 23.8331C25.1982 24.0361 25.4842 24.1926 25.7239 24.2448C25.8264 24.2564 25.9269 24.2583 26.0293 24.2583C26.0487 24.2583 26.068 24.2603 26.0873 24.2603C26.3869 24.2603 26.7059 24.0921 26.9204 23.8892C27.1137 23.6649 27.22 23.4079 27.2548 23.1179C27.2664 23.0599 27.2664 23.0599 27.3147 23.0097C27.3631 23.0039 27.3631 23.0039 27.423 23.0039H27.4926C27.5158 23.0039 27.5409 23.0039 27.566 23.0039C27.5931 23.0039 27.6201 23.0039 27.6472 23.0039C27.7323 23.0019 27.8192 23.0019 27.9082 23.0019C27.9681 23.0019 28.028 23.0019 28.0898 23.0019C28.2155 23.0019 28.3431 23.0019 28.4706 23.0019C28.633 23.0019 28.7954 23.0019 28.9577 23.0019C29.0834 23.0019 29.209 23.0019 29.3327 23.0019C29.3927 23.0019 29.4526 23.0019 29.5125 23C29.8392 23 30.1407 23.0116 30.4577 23.0831C30.5312 23.0928 30.6065 23.1005 30.68 23.1082C30.7225 23.114 30.7631 23.1237 30.8037 23.1314C30.8211 23.1353 30.8366 23.1392 30.854 23.1411C30.9719 23.1662 31.084 23.1991 31.198 23.2378C31.2637 23.259 31.3295 23.2706 31.3971 23.2783V23.3267C31.4145 23.3305 31.43 23.3325 31.4474 23.3363C31.5846 23.3615 31.7064 23.3885 31.8282 23.46C31.8939 23.5006 31.8939 23.5006 31.9693 23.5296C32.0833 23.578 32.1916 23.634 32.3017 23.6901C32.3211 23.6997 32.3404 23.7113 32.3617 23.721C32.4854 23.7848 32.5975 23.8563 32.7096 23.9375C32.7444 23.9568 32.7792 23.9761 32.8159 23.9935C32.9493 24.0651 33.0633 24.1578 33.1793 24.2545C33.2257 24.2912 33.2721 24.3279 33.3185 24.3647C33.3629 24.4014 33.4074 24.4381 33.4518 24.4729C33.4692 24.4884 33.4886 24.5038 33.506 24.5193C33.6084 24.6043 33.6973 24.6952 33.7843 24.7957C33.8152 24.8305 33.8481 24.8653 33.881 24.8982C33.937 24.9542 33.9911 25.0103 34.0433 25.0702C34.1767 25.2152 34.3178 25.3543 34.457 25.4935C34.486 25.5206 34.515 25.5496 34.544 25.5766C34.6193 25.652 34.6947 25.7274 34.772 25.8028C34.8532 25.882 34.9325 25.9613 35.0117 26.0386L35.4679 26.487C35.6399 26.6571 35.812 26.8272 35.984 26.9954C36.2778 27.2853 36.5716 27.5753 36.8674 27.8652L36.9041 27.9039L37.0046 28.0005C37.1032 28.0972 37.2018 28.1958 37.3003 28.2943C37.4086 28.4007 37.5168 28.507 37.6231 28.6133C37.6889 28.6771 37.7546 28.7409 37.8184 28.8066C37.8822 28.8684 37.9459 28.9303 38.0078 28.9941C38.0329 29.0173 38.0561 29.0405 38.0793 29.0637C38.2069 29.1893 38.3364 29.3111 38.4736 29.4251C38.5046 29.456 38.5336 29.4889 38.5606 29.5218C38.6979 29.6899 38.6979 29.6899 38.8699 29.8156V29.8639C38.8834 29.8716 38.8989 29.8774 38.9144 29.8832C38.9762 29.918 39.0168 29.9567 39.0671 30.0069C39.1231 30.0649 39.1772 30.1171 39.241 30.1674C39.2565 30.179 39.2739 30.1925 39.2913 30.206V30.2543H39.3396C39.3744 30.2872 39.3744 30.2872 39.415 30.3355C39.4304 30.3529 39.4459 30.3723 39.4614 30.3897C39.4788 30.409 39.4962 30.4302 39.5136 30.4496C39.5406 30.4824 39.5406 30.4824 39.5677 30.5153C39.6237 30.583 39.6798 30.6506 39.7359 30.7183C39.7532 30.7395 39.7706 30.7608 39.788 30.782C39.8035 30.8014 39.8209 30.8207 39.8364 30.842C39.8499 30.8594 39.8654 30.8768 39.8789 30.8942C39.9098 30.9386 39.9098 30.9386 39.9098 30.9869H39.9581C39.9871 31.0237 39.9871 31.0237 40.0181 31.0759C40.0297 31.0932 40.0413 31.1126 40.0529 31.1319L40.0896 31.1918C40.1012 31.2112 40.1128 31.2305 40.1263 31.2498C40.2462 31.447 40.3583 31.6441 40.4549 31.8529C40.4684 31.88 40.4684 31.88 40.48 31.907C40.4974 31.9437 40.5148 31.9785 40.5303 32.0133C40.5477 32.0501 40.5651 32.0868 40.5825 32.1235C40.6985 32.3671 40.7758 32.628 40.8318 32.8909C40.8473 32.9643 40.8473 32.9643 40.8744 33.0359C40.8976 33.1054 40.9072 33.1654 40.913 33.2369C40.9188 33.3219 40.9188 33.3219 40.9478 33.4012C40.9555 33.465 40.9613 33.5288 40.9652 33.5906C40.9671 33.6447 40.9671 33.6447 40.9981 33.6699C41 33.7279 41 33.7858 41 33.8438V33.898C41 33.9579 41 34.0178 41 34.0777V34.532C41 34.6421 41 34.7542 40.9981 34.8664C40.9981 35.0848 40.9981 35.3051 40.9981 35.5236C40.9671 35.5294 40.9362 35.5371 40.9053 35.5429C40.8647 35.5526 40.8241 35.5603 40.7835 35.57C40.7622 35.5738 40.7429 35.5777 40.7217 35.5816C40.5748 35.6125 40.453 35.6569 40.3293 35.7439L40.2771 35.7768C40.0277 35.9507 39.8673 36.1866 39.7861 36.4746C39.7803 36.492 39.7745 36.5074 39.7706 36.5248C39.6779 36.8457 39.7842 37.1414 39.9349 37.4275C40.1089 37.7252 40.3621 37.8644 40.6753 37.9881L40.9981 38.0364V40.8411L40.5284 40.8914C40.0896 41.0383 39.5967 41.2721 39.3396 41.6703C39.3241 41.6955 39.3087 41.7187 39.2913 41.7438C39.0439 42.1381 38.9047 42.4744 38.9066 42.9461C38.9066 42.977 38.9066 43.0079 38.9066 43.0389C38.9201 43.6593 39.2178 44.1155 39.6508 44.5446C39.7088 44.6026 39.7088 44.6026 39.7861 44.6219V44.6722C39.8112 44.6799 39.8112 44.6799 39.8364 44.6896C39.9195 44.7244 39.9968 44.765 40.0761 44.8056C40.2094 44.8732 40.3312 44.9158 40.4781 44.9389L40.5032 44.9641C40.5535 44.9737 40.6037 44.9815 40.654 44.9892C40.6811 44.9931 40.7101 44.9969 40.7391 45.0008L40.9981 45.0375V46.5008H40.9478C40.9497 46.5201 40.9497 46.5375 40.9497 46.5568C40.9517 46.6941 40.9497 46.8197 40.915 46.9531C40.8956 47.0285 40.8782 47.1058 40.8628 47.1831C40.8183 47.388 40.7622 47.5774 40.6753 47.7688C40.6656 47.8016 40.6559 47.8326 40.6443 47.8654C40.4858 48.3467 40.2268 48.7894 39.9311 49.203C39.8789 49.2765 39.8789 49.2765 39.8344 49.3557H39.7861C39.7784 49.3693 39.7726 49.3828 39.7648 49.3983C39.6527 49.607 39.4362 49.7771 39.27 49.9414C39.2236 49.9878 39.1772 50.0342 39.1328 50.0787C39.1038 50.1076 39.0729 50.1366 39.0439 50.1656C39.0303 50.1792 39.0168 50.1946 39.0033 50.2082C38.9047 50.3029 38.9047 50.3029 38.8428 50.3183C38.8274 50.3222 38.8119 50.3261 38.7964 50.3299L38.7713 50.4034C38.723 50.444 38.723 50.444 38.6592 50.4846C38.6379 50.5 38.6147 50.5155 38.5915 50.529C38.5587 50.5522 38.5587 50.5522 38.5239 50.5754C38.5046 50.587 38.4852 50.6005 38.4659 50.6121C38.0175 50.9118 37.5458 51.163 37.0239 51.3138C36.9659 51.3312 36.9099 51.3486 36.8519 51.3679C36.8345 51.3737 36.8152 51.3795 36.7958 51.3853C36.761 51.3969 36.7263 51.4105 36.6915 51.422C36.5388 51.4781 36.3841 51.4974 36.2237 51.5148C36.1522 51.5168 36.1522 51.5168 36.1232 51.5496C36.0729 51.5516 36.0227 51.5516 35.9743 51.5516H35.8912L35.8274 51.5496V51.5999H31.1497L31.1014 51.2326C31.0589 51.0123 30.9815 50.819 30.8791 50.6179C30.8714 50.6025 30.8636 50.5851 30.854 50.5677C30.8056 50.471 30.7534 50.3879 30.68 50.3067C30.6665 50.2893 30.6529 50.2719 30.6375 50.2565C30.5524 50.1579 30.4654 50.0671 30.3591 49.9897C30.3321 49.9685 30.3321 49.9685 30.305 49.9491C30.0866 49.7906 29.8527 49.6727 29.5917 49.5993C29.5666 49.5896 29.5396 49.5819 29.5125 49.5742C29.3733 49.5394 29.238 49.5413 29.095 49.5413C29.0447 49.5413 28.9945 49.5394 28.9442 49.5394C28.7239 49.5374 28.5364 49.5703 28.3295 49.6476C28.3102 49.6553 28.2909 49.6611 28.2715 49.6689C28.2213 49.6882 28.1749 49.7075 28.1266 49.7288C28.1092 49.7365 28.0918 49.7423 28.0744 49.75C27.9371 49.8119 27.825 49.8892 27.711 49.9897C27.6936 50.0033 27.6762 50.0168 27.6588 50.0323C27.2683 50.3551 26.9842 50.8344 26.9359 51.3389C26.9339 51.3776 26.9301 51.4182 26.9281 51.4568C26.9204 51.5496 26.9204 51.5496 26.8953 51.5999C26.356 51.5999 25.8186 51.5999 25.2793 51.5999C25.03 51.5999 24.7806 51.5999 24.5294 51.5999C24.3129 51.6018 24.0944 51.6018 23.876 51.6018C23.762 51.6018 23.646 51.6018 23.53 51.6018C23.4218 51.6018 23.3135 51.6018 23.2053 51.6018C23.1647 51.6018 23.126 51.6018 23.0854 51.6018H22.8303C22.7626 51.5999 22.7626 51.5999 22.7375 51.5748C22.7027 51.5709 22.666 51.567 22.6293 51.5632C22.4051 51.5438 22.1963 51.4897 21.9798 51.4259C21.9122 51.4085 21.8445 51.3911 21.7749 51.3776C21.6783 51.3583 21.5913 51.3215 21.5004 51.2829C21.4734 51.2751 21.4463 51.2674 21.4173 51.2597C21.3071 51.2268 21.2086 51.1824 21.1061 51.136C21.0752 51.1224 21.0443 51.1089 21.0114 51.0934C20.6364 50.9272 20.2904 50.7301 19.9676 50.4768C19.9386 50.4556 19.9386 50.4556 19.9096 50.4324C19.8536 50.3918 19.7994 50.3493 19.7453 50.3067C19.7241 50.2913 19.7047 50.2758 19.6835 50.2603C19.5366 50.1463 19.4032 50.0226 19.2698 49.8931C19.2524 49.8776 19.237 49.8602 19.2196 49.8448C19.2041 49.8293 19.1886 49.8138 19.1732 49.7984C19.1596 49.7848 19.1461 49.7694 19.1306 49.7558C19.1016 49.7211 19.1016 49.7211 19.1016 49.6727H19.0514C19.0224 49.6437 18.9934 49.6167 18.9644 49.5877C18.9257 49.5471 18.8852 49.5084 18.8426 49.4678C18.7576 49.3867 18.6745 49.3055 18.5894 49.2224C18.5527 49.1876 18.516 49.1528 18.4792 49.118C18.427 49.0677 18.3749 49.0155 18.3227 48.9653L18.2724 48.9169L18.226 48.8725C18.2067 48.8532 18.2067 48.8532 18.1874 48.8338C18.1603 48.7932 18.1603 48.7932 18.1661 48.743C18.1951 48.6734 18.2473 48.6328 18.3033 48.5826C18.4174 48.4724 18.4908 48.3738 18.5566 48.2327C18.5662 48.2153 18.574 48.196 18.5836 48.1786C18.6532 48.0201 18.6725 47.8848 18.6706 47.7127L18.6687 47.6393C18.659 47.2933 18.514 46.9995 18.2589 46.7598C18.0946 46.6264 17.9206 46.5491 17.7157 46.5008C17.6964 46.495 17.6751 46.4911 17.6558 46.4853C17.5592 46.4621 17.4683 46.4428 17.3697 46.4524L17.3446 46.4756C17.3117 46.4834 17.2789 46.4911 17.248 46.4969C17.2054 46.5066 17.1629 46.5162 17.1223 46.5259C17.0914 46.5317 17.0914 46.5317 17.0605 46.5394C16.7724 46.6129 16.5792 46.8042 16.3801 47.013C16.2448 46.9028 16.1191 46.7849 15.9954 46.6612C15.9741 46.6438 15.9567 46.6245 15.9355 46.6032C15.8949 46.5626 15.8543 46.524 15.8137 46.4834C15.7499 46.4215 15.6881 46.3597 15.6243 46.2978C15.5837 46.2591 15.545 46.2186 15.5044 46.1799C15.4851 46.1625 15.4658 46.1432 15.4464 46.1238C15.429 46.1064 15.4136 46.089 15.3943 46.0717C15.3788 46.0581 15.3633 46.0427 15.3479 46.0272C15.315 45.9885 15.315 45.9885 15.315 45.9402L15.2686 45.9189C15.2164 45.8919 15.2164 45.8919 15.1913 45.8184L15.143 45.7933C15.0927 45.7682 15.0927 45.7682 15.0676 45.6967L15.0193 45.6715C14.969 45.6464 14.969 45.6464 14.9439 45.5749L14.8956 45.5498C14.8453 45.5246 14.8453 45.5246 14.8202 45.4512L14.7718 45.428C14.7216 45.4029 14.7216 45.4029 14.6965 45.3294L14.6481 45.3062C14.5979 45.2811 14.5979 45.2811 14.5728 45.2076L14.5244 45.1844C14.4742 45.1593 14.4742 45.1593 14.449 45.0858L14.4007 45.0627C14.3505 45.0375 14.3505 45.0375 14.3253 44.9641L14.277 44.9389C14.2268 44.9158 14.2268 44.9157 14.2016 44.8423L14.1533 44.8172C14.103 44.794 14.103 44.794 14.0779 44.7205H14.0296C13.989 44.6857 13.989 44.6857 13.9542 44.6471V44.5987C13.9407 44.5929 13.9291 44.5871 13.9136 44.5814C13.8363 44.5388 13.7764 44.4789 13.7145 44.4151C13.701 44.4035 13.6894 44.39 13.6759 44.3784C13.5831 44.2875 13.5831 44.2875 13.5831 44.2315H13.5348C13.4961 44.1909 13.4961 44.1909 13.4536 44.1329C13.3975 44.0575 13.3395 43.986 13.2757 43.9164C13.212 43.843 13.212 43.843 13.212 43.7927H13.1636C13.0882 43.6864 13.0882 43.6864 13.0882 43.6226H13.0399C12.9897 43.5511 12.9645 43.5144 12.9645 43.4274H12.9162C12.7809 43.2515 12.692 43.0389 12.5934 42.8417C12.578 42.8088 12.5606 42.776 12.5432 42.7412C12.4948 42.6503 12.4562 42.5653 12.431 42.4648C12.4156 42.4049 12.4156 42.4049 12.3963 42.3546L12.346 42.3295C12.3305 42.2599 12.3209 42.1922 12.3112 42.1207C12.3073 42.1014 12.3015 42.0821 12.2977 42.0608L12.2474 42.0376C12.2339 41.9873 12.2339 41.9873 12.2242 41.9255C12.2068 41.8288 12.1798 41.7477 12.143 41.6568C12.1082 41.5447 12.0986 41.4287 12.085 41.3127C12.0773 41.2316 12.0773 41.2316 12.0503 41.1581C12.0483 41.1175 12.0483 41.075 12.0483 41.0325V40.9648L12.0503 40.9146H12V28.1822H12.0251C12.0619 27.9831 12.0619 27.9831 12.085 27.7821C12.1063 27.5772 12.1566 27.3762 12.2223 27.181C12.2378 27.1249 12.2551 27.0689 12.2687 27.0128C12.3035 26.8968 12.3402 26.7944 12.3982 26.69C12.4214 26.6417 12.4368 26.5972 12.4523 26.547C12.5354 26.2899 12.6804 26.0483 12.8254 25.8202C12.835 25.8028 12.8447 25.7873 12.8563 25.7699C12.9046 25.6965 12.9529 25.6327 13.0148 25.5708C13.0496 25.5148 13.0786 25.4568 13.1095 25.4007C13.1385 25.3524 13.1385 25.3524 13.1888 25.3273L13.21 25.2828C13.2429 25.219 13.2835 25.1804 13.3357 25.132C13.3782 25.0914 13.4149 25.0489 13.4536 25.0064L13.4942 24.96C13.5212 24.9291 13.5483 24.8982 13.5754 24.8672L13.614 24.8208C13.6256 24.8073 13.6372 24.7938 13.6488 24.7802C13.7107 24.7107 13.7783 24.6507 13.8498 24.5889C13.9155 24.5328 13.9793 24.4748 14.0393 24.413C14.2905 24.1636 14.6095 23.9607 14.9207 23.7906H14.969L14.9941 23.7423L15.0676 23.7171L15.143 23.6688C15.1913 23.6437 15.2396 23.6185 15.2879 23.5934C15.3131 23.5818 15.3382 23.5683 15.3653 23.5548C15.4329 23.5258 15.4909 23.5084 15.5624 23.4987V23.4484C15.5875 23.4426 15.6107 23.4349 15.6339 23.4272C15.8176 23.3731 15.9993 23.3131 16.179 23.2494C16.3279 23.1972 16.4709 23.1546 16.6275 23.1314C16.6526 23.1276 16.6797 23.1237 16.7067 23.1198C16.8266 23.1005 16.9445 23.0831 17.0643 23.0696C17.1436 23.0638 17.1436 23.0638 17.1958 23.0348C17.2731 23.0116 17.3427 23.0077 17.4219 23.0077ZM17.0972 25.913C17.0701 25.9187 17.045 25.9265 17.0179 25.9323C16.6932 26.0135 16.3743 26.1739 16.1075 26.3769V26.4252C16.092 26.431 16.0785 26.4387 16.0631 26.4445C15.9065 26.5276 15.7808 26.6707 15.6552 26.7924C15.6436 26.804 15.6301 26.8176 15.6185 26.8292C15.5373 26.9084 15.4754 26.9896 15.4155 27.0843C15.402 27.1017 15.3904 27.1191 15.3788 27.1384C15.3537 27.1732 15.3285 27.21 15.3053 27.2448C15.2802 27.2815 15.2551 27.3182 15.23 27.3549C15.0985 27.5502 15.0328 27.7705 14.9613 27.9909C14.9439 28.0353 14.9439 28.0353 14.9207 28.0605C14.8376 28.3485 14.8356 28.6345 14.8356 28.9341C14.8356 28.9844 14.8356 29.0347 14.8356 29.0849C14.8356 29.2241 14.8356 29.3633 14.8356 29.5024C14.8356 29.6513 14.8356 29.8001 14.8356 29.9509C14.8356 30.2273 14.8356 30.5037 14.8356 30.7801C14.8356 31.0353 14.8356 31.2904 14.8356 31.5456V31.8026C14.8337 32.2839 14.8337 32.7633 14.8337 33.2446V33.2987C14.8337 33.4456 14.8337 33.5925 14.8356 33.7395C14.8356 34.3116 14.8356 34.8857 14.8337 35.4578C14.8337 36.1015 14.8337 36.7452 14.8337 37.3908C14.8337 37.4584 14.8337 37.528 14.8337 37.5957V37.6479C14.8337 37.903 14.8337 38.1582 14.8337 38.4133C14.8318 38.7033 14.8318 38.9932 14.8337 39.2831C14.8337 39.43 14.8337 39.5789 14.8337 39.7258C14.8318 39.863 14.8337 39.9983 14.8337 40.1336C14.8337 40.182 14.8337 40.2303 14.8337 40.2805C14.8318 40.5724 14.8569 40.8295 14.9439 41.1098C14.9535 41.1426 14.9632 41.1736 14.9729 41.2064C15.0792 41.5486 15.2377 41.8559 15.4638 42.1342C15.4832 42.1574 15.5025 42.1826 15.5218 42.2058C15.6958 42.4222 15.6958 42.4222 15.9104 42.5981H15.9587L15.9741 42.6407C16.0205 42.7161 16.0805 42.747 16.1578 42.7934C16.179 42.8069 16.2003 42.8204 16.2235 42.8359C16.2815 42.8726 16.2815 42.8726 16.3549 42.8668V42.9152C16.6545 43.0698 16.6545 43.0698 16.9735 43.1838C17.0102 43.1974 17.0102 43.1974 17.0489 43.2128C17.1436 43.238 17.2228 43.236 17.3195 43.2322L17.3446 43.2805C17.4045 43.2921 17.4045 43.2921 17.476 43.294C17.6094 43.3037 17.6094 43.3037 17.6597 43.3172C17.7331 43.3346 17.8027 43.3327 17.8781 43.3327H17.9264C17.9825 43.3327 18.0366 43.3327 18.0907 43.3327H18.2067C18.313 43.3327 18.4193 43.3327 18.5256 43.3327C18.6358 43.3327 18.746 43.3327 18.8581 43.3327C19.0669 43.3327 19.2756 43.3327 19.4863 43.3307C19.7241 43.3307 19.9637 43.3307 20.2015 43.3307C20.6925 43.3307 21.1834 43.3307 21.6744 43.3307L21.6725 43.4003C21.6647 43.4738 21.6647 43.4738 21.6995 43.5008C21.7053 43.5472 21.7092 43.5936 21.715 43.64C21.7672 43.9879 22.0165 44.332 22.2929 44.5485C22.3587 44.5678 22.3587 44.5678 22.4166 44.5736V44.6219H22.4901V44.6722C22.5404 44.6915 22.5925 44.7109 22.6428 44.7302C22.6699 44.7418 22.6989 44.7534 22.7279 44.765C22.8864 44.8191 23.0391 44.823 23.2053 44.823C23.2266 44.823 23.2478 44.823 23.2691 44.823C23.4063 44.823 23.5223 44.8075 23.6537 44.7688V44.7205L23.8509 44.6954V44.6471L23.9263 44.6722C23.9417 44.6529 23.9417 44.6529 23.9591 44.6355C23.9997 44.5987 23.9997 44.5987 24.05 44.5736V44.5253H24.0983V44.477C24.1157 44.4712 24.1312 44.4673 24.1486 44.4615C24.2703 44.4055 24.3902 44.3185 24.4501 44.1986C24.4559 44.1774 24.4636 44.1561 24.4694 44.1348C24.4888 44.102 24.5081 44.0691 24.5294 44.0363C24.6415 43.8391 24.6995 43.6245 24.713 43.3984C24.7169 43.3539 24.7169 43.3539 24.742 43.3307C24.8038 43.3269 24.8657 43.3269 24.9295 43.3269H24.9894C25.0551 43.3269 25.1228 43.3269 25.1885 43.3269C25.2368 43.3269 25.2832 43.3269 25.3315 43.3269L25.6408 43.3288C25.8032 43.3288 25.9655 43.3288 26.1298 43.3288C26.5918 43.3307 27.0557 43.3307 27.5196 43.3327C27.7748 43.3327 28.0319 43.3327 28.287 43.3327C28.4494 43.3327 28.6098 43.3346 28.7722 43.3346C28.8727 43.3346 28.9751 43.3346 29.0757 43.3346C29.122 43.3346 29.1684 43.3346 29.2148 43.3346C29.5724 43.3365 29.9107 43.3133 30.2605 43.2322H30.334V43.1838C30.363 43.1819 30.392 43.178 30.421 43.1761C30.5312 43.1626 30.622 43.1278 30.7245 43.0833C30.7496 43.0717 30.7496 43.0717 30.7747 43.0601C31.0202 42.9499 31.2406 42.8166 31.4474 42.6465C31.4725 42.6271 31.4725 42.6271 31.4957 42.6059C31.6793 42.4532 31.8668 42.2908 31.9925 42.0859C32.0195 42.0492 32.0466 42.0125 32.0737 41.9757C32.1471 41.8733 32.2051 41.7689 32.2631 41.6587L32.2863 41.6143C32.3249 41.537 32.3249 41.537 32.3385 41.4519L32.3868 41.4268C32.4081 41.3746 32.4081 41.3746 32.4254 41.3108C32.4428 41.247 32.4602 41.1852 32.4873 41.1233C32.6729 40.6575 32.6129 40.095 32.6129 39.604V39.3334C32.6129 39.1788 32.6129 39.0222 32.6129 38.8656C32.611 38.6395 32.611 38.4153 32.611 38.1891C32.611 37.8238 32.611 37.4565 32.611 37.0912V37.0255C32.611 36.8689 32.611 36.7143 32.611 36.5596C32.611 36.3818 32.6091 36.204 32.6091 36.0242V34.8625C32.6091 34.6363 32.6091 34.4121 32.6091 34.186C32.6091 34.0333 32.6071 33.8786 32.6071 33.724C32.6071 33.6351 32.6071 33.5462 32.6071 33.4592C32.6071 33.3625 32.6071 33.2659 32.6071 33.1692C32.6071 33.1422 32.6071 33.1132 32.6071 33.0842V32.9392C32.611 32.889 32.611 32.889 32.6342 32.8658C32.6922 32.8619 32.7502 32.86 32.8082 32.858C32.9473 32.8503 33.0595 32.831 33.1832 32.7652C33.2315 32.7421 33.2759 32.7285 33.3281 32.7189V32.6705C33.3455 32.6647 33.3629 32.657 33.3823 32.6512C33.6316 32.541 33.881 32.253 33.995 32.0114C34.0047 31.9553 34.0143 31.8974 34.0201 31.8413L34.0704 31.8162C34.1844 31.4702 34.1438 31.0623 33.9873 30.7376C33.7727 30.3413 33.4344 30.0785 33.0073 29.9335C32.9222 29.9122 32.841 29.9122 32.7521 29.9122C32.7251 29.9122 32.6999 29.9122 32.6709 29.9122L32.611 29.9142C32.611 29.8968 32.611 29.8794 32.611 29.862C32.611 29.7035 32.6129 29.543 32.6129 29.3826C32.6129 29.3014 32.6129 29.2183 32.6129 29.1371C32.6149 29.0424 32.6149 28.9477 32.6149 28.853L32.6168 28.766C32.6187 28.478 32.6187 28.478 32.5356 28.2054C32.526 28.1648 32.5163 28.1242 32.5066 28.0817C32.4003 27.6178 32.1722 27.2332 31.8688 26.864C31.8494 26.8388 31.8301 26.8156 31.8108 26.7886L31.7682 26.7422H31.7199C31.7141 26.7287 31.7083 26.7132 31.7025 26.6997C31.6619 26.6301 31.6136 26.5933 31.546 26.547H31.4976V26.4986C31.3237 26.3537 31.1265 26.2396 30.9274 26.1333C30.9081 26.1217 30.8868 26.1101 30.8675 26.0985C30.6104 25.9651 30.3379 25.884 30.0499 25.8492C29.988 25.8395 29.988 25.8395 29.9377 25.8163C29.872 25.8124 29.8044 25.8124 29.7387 25.8124C29.7174 25.8124 29.6961 25.8124 29.6749 25.8124H29.3076C29.1665 25.8124 29.0254 25.8124 28.8843 25.8124C28.7316 25.8124 28.5789 25.8124 28.4262 25.8124C28.1285 25.8105 27.8289 25.8105 27.5312 25.8105C27.2896 25.8105 27.0461 25.8105 26.8044 25.8105H26.5416C26.0545 25.8105 25.5654 25.8105 25.0783 25.8105H24.5738C23.9901 25.8105 23.4063 25.8105 22.8245 25.8105C22.1692 25.8105 21.514 25.8105 20.8606 25.8105H20.5977C20.3213 25.8105 20.0449 25.8105 19.7685 25.8086C19.4902 25.8086 19.2118 25.8086 18.9335 25.8086C18.7827 25.8086 18.6319 25.8086 18.4812 25.8086C18.3439 25.8086 18.2067 25.8086 18.0675 25.8086C18.0173 25.8086 17.9689 25.8086 17.9187 25.8086C17.851 25.8086 17.7834 25.8086 17.7138 25.8086C17.6945 25.8086 17.6751 25.8086 17.6558 25.8086C17.4606 25.8105 17.2827 25.8588 17.0972 25.913ZM32.6342 32.8658V32.889H32.7579V32.8658H32.6342Z" fill="black"/>
<path d="M23.3819 28.6442C23.4399 28.6442 23.4979 28.6442 23.5559 28.6442L23.581 28.6693C23.6293 28.6751 23.6776 28.679 23.726 28.6828C23.7511 28.6848 23.7782 28.6867 23.8052 28.6886C23.8535 28.6925 23.9038 28.6944 23.9521 28.6944C24.0372 28.7002 24.1222 28.708 24.2073 28.7157C24.244 28.7195 24.244 28.7195 24.2788 28.7234C24.302 28.7253 24.3252 28.7273 24.3484 28.7292C24.3677 28.7311 24.389 28.7331 24.4102 28.735C24.4953 28.7447 24.5745 28.7582 24.6538 28.7911C24.7195 28.8181 24.7195 28.8181 24.7949 28.8259C25.1621 28.8781 25.5197 29.025 25.8464 29.1893C25.9237 29.2298 25.9237 29.2298 25.9798 29.2414C26.0339 29.2569 26.0706 29.2762 26.117 29.3091C26.1943 29.3574 26.2736 29.3999 26.3548 29.4425C26.6776 29.6145 26.9598 29.8561 27.242 30.0842C27.2575 30.0958 27.2729 30.1093 27.2884 30.1209C27.3676 30.1867 27.445 30.2524 27.5145 30.3278V30.3761H27.5629V30.4263L27.6383 30.4495V30.4979H27.6866C27.7272 30.5423 27.7272 30.5423 27.7716 30.6003C27.8335 30.6815 27.8953 30.7607 27.9591 30.84C28.2607 31.2266 28.5351 31.648 28.7014 32.108C28.7188 32.1447 28.7342 32.1815 28.7516 32.2163C28.8367 32.4037 28.8869 32.5912 28.9314 32.7923C28.9449 32.8464 28.9604 32.9005 28.9759 32.9546C29.0242 33.1267 29.0532 33.2968 29.0667 33.4746C29.0706 33.5249 29.0706 33.5249 29.0976 33.5732C29.1015 33.6234 29.1034 33.6756 29.1054 33.7278C29.1073 33.751 29.1073 33.751 29.1073 33.7761C29.1092 33.8283 29.1112 33.8786 29.1131 33.9308C29.1131 33.9482 29.115 33.9656 29.115 33.983C29.1402 34.8296 29.1402 34.8296 29.0725 34.963C29.0686 34.9997 29.0648 35.0364 29.0628 35.0731C29.0512 35.1814 29.0338 35.2877 29.0106 35.394C29.001 35.4423 28.9932 35.4907 28.9874 35.5409C28.972 35.6337 28.9372 35.7072 28.9005 35.7922C28.8927 35.8251 28.885 35.8579 28.8773 35.8908C28.8347 36.0957 28.7632 36.2967 28.653 36.4745C28.6318 36.5151 28.6144 36.5576 28.597 36.5982C28.5835 36.6292 28.5835 36.6292 28.5699 36.6601C28.5467 36.7432 28.568 36.7915 28.5989 36.8689C28.6337 36.9249 28.6685 36.9346 28.7265 36.9636L28.7516 37.037L28.8 37.0602L28.8502 37.0853L28.8753 37.1588L28.9237 37.182L28.9739 37.2071L28.999 37.2806L29.0474 37.3038L29.0976 37.3289L29.1228 37.4023L29.1711 37.4255L29.2213 37.4507L29.2465 37.5241L29.2948 37.5493L29.345 37.5724L29.3702 37.6459L29.4185 37.671L29.4688 37.6942L29.4939 37.7677L29.5422 37.7928L29.5925 37.816L29.6176 37.8894L29.6659 37.9146L29.7162 37.9378L29.7413 38.0112L29.7896 38.0364L29.8399 38.0615L29.865 38.133H29.9133C30.0525 38.3379 30.1047 38.5061 30.1047 38.7515C30.1047 38.7728 30.1047 38.796 30.1047 38.8192C30.095 39.1652 29.8805 39.3933 29.6427 39.6291C29.6253 39.6465 29.606 39.6658 29.5886 39.6832C29.548 39.7219 29.5093 39.7605 29.4707 39.7992C29.4108 39.8572 29.3528 39.9171 29.2948 39.9751C29.2561 40.0138 29.2175 40.0505 29.1788 40.0891C29.1633 40.1065 29.146 40.1239 29.1266 40.1413C28.8831 40.381 28.6685 40.4371 28.3322 40.439C28.1041 40.4371 27.9495 40.383 27.762 40.2554C27.7426 40.2438 27.7233 40.2302 27.704 40.2167C27.6904 40.2051 27.6769 40.1935 27.6634 40.1839V40.1336L27.588 40.1104V40.0601H27.5397V40.0118L27.4643 39.9886V39.9384H27.416V39.89L27.3406 39.8649V39.8166H27.2923V39.7683L27.2169 39.7431V39.6948H27.1685V39.6465L27.0932 39.6214V39.573H27.0448V39.5247L26.9695 39.4996V39.4513H26.9211V39.4029L26.8457 39.3778V39.3295H26.7974V39.2812L26.722 39.256V39.2077H26.6737V39.1575L26.5983 39.1343V39.0859H26.55V39.0357L26.4746 39.0125V38.9642H26.4263V38.9139L26.3509 38.8907V38.8405H26.3026V38.7921L26.2272 38.7689V38.7187H26.1789V38.6704L26.1035 38.6452V38.5969H26.0552V38.5486L25.9798 38.5235V38.4751H25.9315V38.4268L25.8561 38.4017V38.3534H25.8078V38.305L25.7324 38.2799V38.2316H25.684V38.1833L25.6087 38.1581V38.1098H25.5603V38.0615L25.485 38.0364V37.988H25.4366V37.9378L25.3612 37.9146V37.8663H25.3129V37.816L25.2375 37.7928V37.7445H25.1892V37.6942L25.1138 37.671V37.6208H25.0655C25.0249 37.5879 25.0249 37.5879 24.9901 37.5493V37.499H24.9418C24.9012 37.4661 24.9012 37.4661 24.8664 37.4255V37.3772H24.8181C24.7775 37.3444 24.7775 37.3444 24.7427 37.3038V37.2554H24.6944C24.6538 37.2226 24.6538 37.2226 24.619 37.182V37.1337H24.5707C24.5301 37.1008 24.5301 37.1008 24.4953 37.0602V37.0119H24.447C24.4064 36.979 24.4064 36.979 24.3716 36.9384V36.8901H24.3232C24.2827 36.8553 24.2827 36.8553 24.2479 36.8167V36.7683H24.1995C24.1589 36.7335 24.1589 36.7335 24.1242 36.6949V36.6466H24.0758C24.0352 36.6118 24.0352 36.6118 24.0004 36.5731V36.5248H23.9521C23.9096 36.4958 23.9096 36.4958 23.8767 36.4513C23.8845 36.3856 23.8845 36.3856 23.9019 36.3296C23.9946 36.3006 23.9946 36.3006 24.0507 36.3296V36.2793C24.072 36.2754 24.072 36.2754 24.0952 36.2716C24.1261 36.2658 24.1261 36.2658 24.1551 36.26C24.1744 36.2561 24.1937 36.2522 24.215 36.2484C24.2807 36.229 24.3175 36.2001 24.3716 36.1575C24.4199 36.1343 24.4663 36.1111 24.5146 36.0899C24.9824 35.8618 25.3322 35.4578 25.5081 34.9746C25.5255 34.9224 25.5429 34.8702 25.5603 34.8161C25.5681 34.7909 25.5758 34.7658 25.5855 34.7387C25.6106 34.6402 25.6164 34.5493 25.6164 34.4488V34.3927C25.6164 34.356 25.6164 34.3174 25.6164 34.2787C25.6145 34.2207 25.6164 34.1627 25.6164 34.1047V33.9907C25.6164 33.9656 25.6164 33.9656 25.6164 33.9404C25.6145 33.7529 25.5603 33.5848 25.4907 33.4147C25.483 33.3973 25.4772 33.3818 25.4714 33.3664C25.427 33.262 25.3767 33.1673 25.3129 33.0745C25.2801 33.0242 25.2569 32.9701 25.2375 32.914H25.1892C25.1138 32.829 25.1138 32.829 25.1138 32.7671H25.0655C25.023 32.7265 24.9824 32.686 24.9418 32.6454L24.8664 32.597V32.5487C24.8529 32.541 24.8393 32.5352 24.8258 32.5275C24.7582 32.4946 24.6924 32.4579 24.6248 32.4231C24.6016 32.4095 24.5765 32.396 24.5513 32.3825L24.4953 32.3535V32.3032C24.4798 32.2994 24.4644 32.2936 24.447 32.2897L24.3812 32.2704C24.36 32.2646 24.3387 32.2568 24.3175 32.251C24.2691 32.2375 24.2227 32.222 24.1763 32.2066C24.0623 32.1699 23.9444 32.1486 23.8265 32.1254C23.753 32.108 23.753 32.108 23.7279 32.0848C23.6931 32.0809 23.6583 32.0809 23.6235 32.0809C23.6042 32.0809 23.5829 32.0809 23.5597 32.0809H23.494C23.4708 32.0809 23.4496 32.0809 23.4264 32.0809C23.3954 32.0809 23.3954 32.0809 23.3626 32.0809H23.3046C23.2582 32.079 23.2582 32.079 23.2331 32.108C23.1789 32.1215 23.1229 32.1331 23.0688 32.1447C22.8793 32.1815 22.715 32.2394 22.543 32.3245C22.5256 32.3322 22.5082 32.34 22.4927 32.3477C22.4058 32.3902 22.3265 32.4366 22.2473 32.4927C22.1699 32.5487 22.1699 32.5487 22.1197 32.5487V32.597C22.081 32.6338 22.081 32.6338 22.0288 32.6763C21.9631 32.7304 21.9051 32.7845 21.851 32.8522C21.8336 32.8715 21.8162 32.8928 21.7988 32.914H21.7486L21.7292 32.9662C21.6983 33.0397 21.6596 33.0996 21.6152 33.1653C21.5437 33.2736 21.4934 33.376 21.4528 33.4997C21.4393 33.5307 21.4258 33.5635 21.4142 33.5944C21.3349 33.8071 21.3195 34.0081 21.3195 34.2342C21.3195 34.2632 21.3195 34.2922 21.3195 34.3212C21.3272 34.8721 21.5746 35.3824 21.9689 35.7709C22.0018 35.8019 22.0366 35.8347 22.0714 35.8657C22.0868 35.8811 22.1023 35.8985 22.1178 35.9159C22.1796 35.972 22.2434 36.001 22.3188 36.0358C22.3632 36.0628 22.4077 36.0899 22.4522 36.1189C22.7614 36.2967 23.0842 36.3528 23.436 36.3682C23.5771 36.376 23.5771 36.376 23.6042 36.4011C23.6081 36.4455 23.6081 36.49 23.6081 36.5345V36.6195C23.6081 36.6524 23.6081 36.6833 23.6081 36.7162V36.8167C23.6081 36.9075 23.6081 36.9984 23.6081 37.0892C23.6081 37.1839 23.6081 37.2786 23.6081 37.3734C23.6081 37.5531 23.6061 37.7329 23.6061 37.9146C23.6061 38.1195 23.6061 38.3244 23.6061 38.5293C23.6061 38.9506 23.6061 39.372 23.6042 39.7934C23.5249 39.7934 23.4438 39.7934 23.3626 39.7934L23.293 39.7953C23.2601 39.7953 23.2601 39.7953 23.2253 39.7953C23.1944 39.7953 23.1944 39.7953 23.1635 39.7953C23.1094 39.7934 23.1094 39.7934 23.0359 39.7683C22.9451 39.7605 22.8561 39.7567 22.7653 39.7509C22.6899 39.7431 22.6899 39.7431 22.6648 39.7199C22.6029 39.7122 22.5411 39.7045 22.4792 39.6987C22.3458 39.6832 22.2241 39.662 22.0984 39.6156C22.0385 39.5943 21.9805 39.5846 21.9187 39.573C21.8143 39.5537 21.7234 39.5189 21.6249 39.4764C21.5611 39.4551 21.4973 39.4377 21.4335 39.4203C21.3774 39.4029 21.3774 39.4029 21.304 39.3527C21.2537 39.3372 21.2054 39.3218 21.1551 39.3044C20.9232 39.2039 20.7048 39.0801 20.4883 38.9487L20.4245 38.91C20.2815 38.8231 20.1481 38.7264 20.0166 38.622C20.0031 38.6104 19.9896 38.5988 19.9761 38.5892C19.9181 38.5428 19.862 38.4964 19.804 38.4481C19.7441 38.3997 19.7441 38.3997 19.6706 38.3534V38.305L19.5972 38.2799V38.2316C19.5817 38.2258 19.5643 38.2181 19.5489 38.2123C19.4986 38.1833 19.4986 38.1833 19.4735 38.1098H19.4232V38.0615L19.3498 38.0364V37.988H19.2995C19.2628 37.9455 19.2628 37.9455 19.2203 37.8894C19.2048 37.8701 19.1893 37.8489 19.1719 37.8295C19.1584 37.8083 19.143 37.7889 19.1275 37.7677C19.114 37.7503 19.1004 37.7348 19.0869 37.7174C19.0502 37.6691 19.0154 37.6208 18.9787 37.5724C18.9516 37.5396 18.9265 37.5048 18.9013 37.47C18.8878 37.4545 18.8762 37.4391 18.8646 37.4217C18.8375 37.3869 18.8086 37.354 18.7796 37.3212C18.7022 37.2168 18.6443 37.1027 18.5824 36.9868C18.5631 36.9539 18.5457 36.9191 18.5263 36.8843C18.2615 36.3914 18.2615 36.3914 18.2151 36.2464C18.1861 36.1575 18.1552 36.0667 18.1243 35.9778C18.0566 35.7883 17.9986 35.6047 17.9716 35.4037C17.9697 35.3534 17.9697 35.3534 17.9387 35.3283C17.931 35.278 17.9271 35.2278 17.9213 35.1775C17.9194 35.1331 17.9194 35.1331 17.8904 35.1099C17.8846 35.0557 17.8788 35.0036 17.8769 34.9494C17.8749 34.934 17.8749 34.9166 17.873 34.8992C17.8711 34.8644 17.8691 34.8296 17.8672 34.7948C17.8633 34.7426 17.8595 34.6904 17.8556 34.6382C17.8343 34.2942 17.8324 33.954 17.8633 33.6099C17.8653 33.5828 17.8672 33.5558 17.8691 33.5287C17.8865 33.3316 17.8865 33.3316 17.9136 33.3045C17.9233 33.2484 17.931 33.1924 17.9387 33.1363C17.9619 32.9701 17.9619 32.9701 17.989 32.8889C18.0044 32.8329 18.018 32.7749 18.0334 32.7169C18.0682 32.5835 18.1108 32.454 18.1668 32.3264C18.1881 32.2762 18.1881 32.2762 18.2113 32.2066H18.2615L18.2364 32.1331C18.2577 32.0713 18.2847 32.0094 18.3118 31.9495C18.3195 31.9321 18.3272 31.9128 18.3369 31.8954C18.391 31.7775 18.451 31.6654 18.5225 31.5571C18.5611 31.4933 18.5959 31.4295 18.6307 31.3638C18.7042 31.2304 18.7892 31.1087 18.8801 30.9869C18.8955 30.9637 18.9129 30.9405 18.9303 30.9173C19.1758 30.581 19.1758 30.581 19.2744 30.5481C19.2918 30.5153 19.3092 30.4824 19.3246 30.4495C19.3633 30.4051 19.3633 30.4051 19.4097 30.3606C19.4252 30.3452 19.4426 30.3297 19.458 30.3123L19.5624 30.2118C19.688 30.0881 19.688 30.0881 19.746 30.0591L19.8021 30.003C20.1404 29.6706 20.5985 29.4173 21.0218 29.2047C21.0392 29.1951 21.0566 29.1873 21.074 29.1777C21.1977 29.1177 21.3175 29.0829 21.4528 29.0597V29.0114C21.851 28.8839 21.851 28.8839 22.0153 28.851C22.0888 28.8375 22.1583 28.8201 22.2299 28.8027C22.255 28.7949 22.2801 28.7891 22.3053 28.7833C22.3671 28.7698 22.3671 28.7698 22.4174 28.7427C22.4541 28.7369 22.4927 28.7331 22.5295 28.7311C22.5527 28.7292 22.5739 28.7253 22.5971 28.7234C22.6223 28.7215 22.6455 28.7195 22.6686 28.7176C22.8503 28.7022 22.8503 28.7022 23.0301 28.6809C23.1074 28.6693 23.1789 28.6674 23.2563 28.6674C23.2814 28.6674 23.3046 28.6674 23.3297 28.6674C23.3471 28.6693 23.3645 28.6693 23.3819 28.6693V28.6442ZM25.6589 34.0854V34.4024H25.684V34.0854H25.6589Z" fill="black"/>
</svg>
