<?xml version="1.0" encoding="UTF-8"?>
<svg xmlns="http://www.w3.org/2000/svg" xmlns:xlink="http://www.w3.org/1999/xlink" width="2346" height="3001" viewBox="0 0 2346 3001">
<path fill-rule="nonzero" fill="rgb(19.993591%, 19.993591%, 19.993591%)" fill-opacity="1" d="M 387.527344 1300.191406 L 387.527344 352.738281 C 387.527344 344.800781 390.226562 337.488281 394.753906 331.679688 C 725.878906 -164.898438 1053.789062 -0.378906 1381.699219 164.171875 C 1683.011719 315.378906 1984.339844 466.589844 2282.421875 17.828125 L 2310.980469 36.730469 L 2282.378906 17.738281 C 2292.871094 1.949219 2314.179688 -2.351562 2329.96875 8.140625 C 2340.089844 14.851562 2345.480469 26.019531 2345.300781 37.320312 L 2345.300781 984.769531 C 2345.300781 992.710938 2342.609375 1000.019531 2338.078125 1005.828125 C 2006.960938 1502.398438 1679.03125 1337.890625 1351.128906 1173.339844 C 1049.820312 1022.128906 748.488281 870.921875 450.414062 1319.691406 L 421.851562 1300.78125 L 450.445312 1319.769531 C 439.960938 1335.558594 418.648438 1339.859375 402.859375 1329.371094 C 392.746094 1322.660156 387.347656 1311.5 387.527344 1300.191406 "/>
<path fill-rule="nonzero" fill="rgb(19.993591%, 19.993591%, 19.993591%)" fill-opacity="1" d="M 456.175781 1300.78125 C 456.175781 1281.828125 440.804688 1266.460938 421.851562 1266.460938 C 402.898438 1266.460938 387.527344 1281.828125 387.527344 1300.78125 L 387.527344 2513.804688 L 456.175781 2513.804688 L 456.175781 1300.78125 "/>
<path fill-rule="nonzero" fill="rgb(50.193787%, 50.193787%, 50.193787%)" fill-opacity="1" d="M 695.785156 2728.300781 L 695.785156 2678.253906 C 695.785156 2649.890625 684.589844 2623.992188 666.402344 2604.761719 C 665.746094 2603.976562 665.050781 2603.214844 664.3125 2602.476562 C 644.902344 2583.066406 618.066406 2571.003906 588.539062 2571.003906 L 255.164062 2571.003906 C 225.640625 2571.003906 198.804688 2583.066406 179.390625 2602.476562 C 159.964844 2621.902344 147.910156 2648.726562 147.910156 2678.253906 L 147.910156 2728.300781 L 695.785156 2728.300781 "/>
<path fill-rule="nonzero" fill="rgb(50.193787%, 50.193787%, 50.193787%)" fill-opacity="1" d="M 107.9375 2785.5 L 735.753906 2785.5 C 794.71875 2785.5 843.007812 2833.804688 843.007812 2892.75 L 843.007812 2965.679688 C 843.007812 2984.632812 827.636719 3000.003906 808.683594 3000.003906 L 35.023438 3000.003906 C 16.070312 3000.003906 0.699219 2984.632812 0.699219 2965.679688 L 0.699219 2892.75 C 0.699219 2833.6875 48.878906 2785.5 107.9375 2785.5 "/>
</svg>
