<?xml version="1.0" encoding="UTF-8"?>
<svg xmlns="http://www.w3.org/2000/svg" xmlns:xlink="http://www.w3.org/1999/xlink" width="3098" height="1581" viewBox="0 0 3098 1581">
<path fill-rule="nonzero" fill="currentColor" fill-opacity="1" d="M 1595.601562 26.5 C 1582.179688 40.640625 1566.230469 59.5 1560.070312 68.191406 C 1549.921875 81.96875 1547.378906 83.421875 1537.960938 81.609375 C 1505.320312 74.71875 1508.949219 73.269531 1489.371094 99.738281 C 1475.230469 118.230469 1463.269531 129.109375 1435.710938 147.230469 C 1414.691406 161.371094 1398.378906 174.78125 1395.109375 181.308594 C 1391.851562 187.109375 1387.140625 205.238281 1384.230469 221.558594 C 1374.441406 276.660156 1370.460938 293.339844 1368.28125 293.339844 C 1366.828125 293.339844 1359.578125 290.078125 1351.609375 286.089844 C 1333.109375 276.660156 1322.238281 277.019531 1314.261719 286.808594 C 1311 291.160156 1304.839844 298.050781 1300.488281 302.039062 C 1283.089844 319.441406 1280.179688 331.410156 1279.460938 387.238281 L 1278.730469 439.808594 L 1268.21875 444.160156 C 1251.898438 451.050781 1242.121094 450.320312 1239.941406 441.980469 C 1238.851562 438 1236.679688 434.730469 1234.859375 434.730469 C 1233.410156 434.730469 1224.710938 448.148438 1216.011719 464.820312 C 1207.308594 481.140625 1193.53125 501.078125 1185.191406 509.058594 C 1173.230469 520.289062 1167.789062 529.71875 1161.269531 548.929688 C 1156.191406 564.519531 1150.03125 576.851562 1144.589844 581.203125 C 1133.710938 589.179688 1125.011719 605.492188 1125.011719 617.09375 C 1125.011719 625.070312 1127.910156 626.886719 1149.308594 633.773438 C 1163.078125 637.761719 1175.039062 639.933594 1176.128906 638.488281 C 1177.21875 637.035156 1181.210938 626.160156 1184.828125 614.195312 C 1194.980469 580.121094 1201.878906 569.601562 1239.941406 529.359375 L 1275.46875 491.648438 L 1288.890625 500.710938 C 1296.5 505.789062 1313.179688 513.039062 1326.230469 516.308594 C 1355.589844 524.28125 1359.578125 521.75 1363.210938 493.109375 C 1366.109375 469.179688 1370.460938 463.371094 1404.179688 443.800781 L 1431.359375 427.839844 L 1460.371094 486.941406 C 1476.320312 519.210938 1496.988281 556.550781 1506.050781 569.238281 C 1515.121094 581.925781 1532.878906 607.304688 1545.210938 625.796875 L 1567.679688 659.148438 L 1602.488281 675.828125 C 1621.699219 684.894531 1638.019531 691.417969 1639.109375 690.332031 C 1640.191406 689.605469 1635.121094 680.179688 1627.871094 669.664062 C 1606.480469 637.761719 1585.089844 607.667969 1574.210938 593.890625 C 1564.421875 581.566406 1563.691406 578.300781 1563.691406 547.851562 C 1563.691406 526.460938 1562.25 513.410156 1559.339844 510.140625 C 1542.308594 492.378906 1514.03125 456.480469 1491.191406 423.859375 C 1476.320312 402.828125 1454.210938 371.648438 1441.519531 354.25 L 1418.308594 322.699219 L 1392.210938 341.191406 C 1377.710938 351.351562 1361.75 363.671875 1356.320312 368.75 L 1346.171875 378.179688 L 1337.460938 369.839844 L 1328.398438 361.5 L 1385.320312 300.230469 C 1416.5 266.511719 1442.960938 238.960938 1444.058594 238.960938 C 1445.140625 238.960938 1444.421875 253.460938 1442.609375 271.589844 C 1440.070312 297.691406 1440.429688 305.300781 1444.421875 311.101562 C 1447.320312 314.730469 1461.089844 333.21875 1475.230469 351.710938 C 1489.371094 370.558594 1511.851562 401.738281 1525.628906 420.960938 C 1549.558594 454.671875 1559.339844 464.460938 1555 449.960938 C 1550.28125 434.730469 1534.691406 357.148438 1534.691406 349.171875 C 1534.691406 341.921875 1536.5 340.46875 1545.570312 340.46875 C 1551.730469 340.46875 1556.441406 339.75 1556.441406 338.660156 C 1556.441406 337.570312 1545.929688 314.730469 1532.878906 287.898438 C 1519.828125 261.441406 1509.320312 237.871094 1509.320312 235.691406 C 1509.320312 233.878906 1520.558594 209.589844 1533.960938 182.03125 C 1547.378906 154.480469 1564.421875 118.589844 1571.671875 101.910156 C 1579.289062 85.601562 1586.898438 72.179688 1589.070312 72.179688 C 1590.890625 72.179688 1592.699219 73.628906 1592.699219 75.808594 C 1592.699219 77.621094 1603.941406 104.089844 1617.351562 134.539062 C 1644.539062 195.808594 1667.378906 231.710938 1722.859375 301.320312 C 1742.789062 327.058594 1756.929688 347.71875 1754.390625 347.71875 C 1751.5 347.71875 1737.359375 345.179688 1722.859375 342.28125 C 1708.351562 339.019531 1696.03125 337.570312 1695.300781 338.289062 C 1694.578125 339.019531 1700.019531 348.089844 1707.628906 357.871094 C 1726.480469 382.890625 1777.960938 470.988281 1773.609375 470.988281 C 1771.800781 470.988281 1758.019531 461.921875 1742.789062 450.679688 C 1727.929688 439.441406 1714.878906 431.109375 1714.148438 431.828125 C 1713.070312 432.558594 1726.480469 452.859375 1743.519531 476.429688 L 1774.339844 519.929688 L 1763.460938 521.019531 C 1757.300781 521.75 1752.21875 523.558594 1752.21875 525.011719 C 1752.21875 526.460938 1761.648438 540.960938 1773.609375 556.910156 C 1816.761719 615.644531 1821.109375 623.257812 1821.109375 638.125 C 1821.109375 646.097656 1820.378906 652.261719 1819.289062 652.261719 C 1818.199219 652.261719 1804.429688 641.386719 1789.199219 628.332031 C 1773.96875 615.285156 1752.21875 596.792969 1741.351562 587.367188 C 1730.46875 577.941406 1710.160156 561.621094 1696.03125 550.75 C 1682.25 540.230469 1666.300781 527.179688 1660.859375 522.109375 C 1655.421875 517.390625 1649.980469 514.128906 1648.890625 515.21875 C 1647.808594 515.941406 1657.589844 534.429688 1670.648438 555.820312 C 1683.699219 577.210938 1694.21875 595.339844 1694.21875 596.429688 C 1694.21875 597.15625 1690.589844 597.882812 1686.601562 597.882812 C 1678.628906 597.882812 1678.628906 602.957031 1685.878906 633.773438 C 1687.691406 640.660156 1686.960938 641.746094 1681.160156 639.933594 C 1668.109375 635.945312 1623.519531 627.246094 1622.429688 628.695312 C 1619.171875 631.960938 1627.871094 638.847656 1656.511719 656.613281 C 1682.609375 672.203125 1692.761719 681.628906 1723.578125 718.609375 C 1759.46875 761.027344 1764.550781 771.90625 1748.589844 771.90625 C 1738.808594 771.90625 1739.53125 777.707031 1752.21875 810.332031 C 1758.390625 825.558594 1762.730469 839.699219 1762.371094 841.515625 C 1761.648438 843.324219 1742.789062 821.570312 1720.320312 792.929688 C 1670.648438 729.847656 1665.570312 723.320312 1663.761719 725.136719 C 1662.671875 725.859375 1668.46875 754.503906 1676.089844 788.21875 C 1683.699219 822.296875 1689.5 850.214844 1689.140625 850.574219 C 1688.410156 851.300781 1677.898438 830.636719 1664.851562 805.257812 L 1641.640625 759.214844 L 1601.769531 729.484375 C 1556.441406 695.769531 1541.941406 686.703125 1541.941406 691.417969 C 1541.941406 697.941406 1606.480469 776.980469 1644.539062 816.496094 C 1674.269531 848.039062 1684.058594 856.015625 1692.761719 856.738281 C 1700.378906 857.101562 1739.53125 881.03125 1814.578125 931.0625 L 1925.878906 1005.023438 L 1923.710938 1022.0625 C 1921.890625 1038.015625 1923.710938 1044.179688 1944.378906 1089.859375 C 1957.058594 1117.410156 1975.191406 1156.203125 1984.980469 1175.78125 C 1994.398438 1195.722656 2002.019531 1212.402344 2001.289062 1212.765625 C 2000.570312 1213.488281 1978.089844 1199.710938 1951.261719 1182.308594 C 1924.429688 1164.90625 1887.808594 1140.976562 1869.320312 1129.375 C 1841.410156 1111.609375 1833.429688 1104.722656 1821.109375 1085.148438 C 1804.429688 1060.128906 1789.929688 1025.324219 1776.148438 978.191406 C 1763.101562 932.511719 1760.921875 928.886719 1744.25 916.5625 C 1706.898438 889.730469 1706.898438 890.457031 1736.269531 947.375 C 1751.128906 976.019531 1763.101562 1000.308594 1763.101562 1001.757812 C 1763.101562 1003.210938 1754.039062 996.683594 1743.160156 987.621094 C 1732.28125 978.191406 1723.21875 972.03125 1723.21875 973.84375 C 1723.21875 977.46875 1767.089844 1049.980469 1827.628906 1146.054688 C 1850.109375 1181.21875 1868.238281 1210.949219 1868.238281 1212.402344 C 1868.238281 1213.851562 1862.800781 1211.675781 1856.640625 1207.6875 C 1850.109375 1204.0625 1816.03125 1183.398438 1781.230469 1162.003906 C 1746.421875 1140.976562 1716.691406 1123.574219 1715.238281 1123.574219 C 1713.789062 1123.574219 1712.339844 1129.375 1712.339844 1136.265625 C 1712.339844 1143.15625 1711.621094 1148.957031 1710.890625 1148.957031 C 1709.800781 1148.957031 1694.578125 1139.890625 1676.449219 1129.011719 C 1644.539062 1109.4375 1643.460938 1109.074219 1632.941406 1114.152344 C 1627.140625 1117.410156 1617.710938 1123.9375 1611.550781 1129.011719 L 1600.308594 1138.441406 L 1584.359375 1129.375 C 1575.660156 1124.300781 1565.511719 1116.324219 1561.160156 1111.972656 C 1553.179688 1102.910156 1512.210938 1025.324219 1514.390625 1023.148438 C 1515.121094 1022.425781 1523.449219 1026.414062 1533.238281 1031.851562 C 1543.03125 1037.652344 1561.160156 1046.714844 1573.480469 1051.789062 C 1598.140625 1062.667969 1599.949219 1061.582031 1599.949219 1038.015625 C 1599.949219 1031.125 1600.679688 1025.6875 1601.398438 1025.6875 C 1602.488281 1025.6875 1626.421875 1039.828125 1655.058594 1056.867188 C 1683.699219 1074.269531 1714.878906 1092.757812 1724.671875 1098.921875 C 1734.460938 1104.722656 1742.789062 1108.710938 1743.519531 1107.988281 C 1744.609375 1107.261719 1722.488281 1086.957031 1695.300781 1063.390625 C 1548.109375 935.773438 1545.929688 933.601562 1455.660156 820.847656 C 1357.039062 697.582031 1349.789062 689.96875 1349.789062 710.269531 C 1349.789062 713.898438 1347.980469 718.246094 1346.171875 719.335938 C 1343.988281 720.785156 1325.140625 710.996094 1304.109375 697.582031 C 1282.71875 684.53125 1264.960938 674.378906 1264.230469 675.101562 C 1263.5 675.828125 1278.011719 697.941406 1296.128906 724.410156 L 1329.488281 772.628906 L 1353.78125 770.453125 L 1377.710938 767.914062 L 1409.609375 819.757812 C 1427.378906 848.402344 1450.21875 882.121094 1460.371094 895.167969 C 1470.878906 908.222656 1481.398438 922.726562 1483.929688 927.800781 L 1488.648438 936.5 L 1478.128906 929.972656 C 1472.328125 925.984375 1462.179688 919.097656 1455.289062 914.746094 C 1448.410156 910.035156 1442.238281 906.769531 1441.519531 907.496094 C 1440.789062 908.222656 1445.140625 917.285156 1450.941406 927.4375 C 1464.359375 949.914062 1460.730469 951.367188 1441.878906 930.335938 C 1372.628906 853.117188 1366.46875 847.316406 1313.539062 812.511719 C 1284.53125 793.65625 1252.988281 773.351562 1243.199219 767.550781 L 1225.441406 757.039062 L 1227.609375 778.066406 C 1229.789062 795.109375 1229.058594 798.007812 1225.441406 793.65625 C 1206.589844 769.726562 1187.011719 743.261719 1183.378906 736.375 C 1177.21875 724.773438 1173.589844 726.222656 1162.710938 746.523438 C 1157.28125 756.3125 1151.839844 764.652344 1150.390625 764.652344 C 1149.308594 764.652344 1146.039062 755.949219 1143.140625 745.4375 C 1137.699219 723.683594 1127.910156 700.84375 1119.941406 690.695312 C 1107.25 674.738281 1110.148438 691.417969 1128.640625 736.738281 C 1145.308594 778.792969 1151.839844 790.03125 1176.488281 821.210938 C 1229.789062 887.921875 1246.101562 903.871094 1346.890625 982.542969 C 1401.269531 1025.324219 1507.859375 1109.4375 1583.640625 1169.980469 C 1659.410156 1230.527344 1725.03125 1283.097656 1729.75 1286.359375 L 1738.078125 1292.523438 L 1728.660156 1392.589844 L 1636.210938 1293.613281 C 1585.449219 1238.867188 1532.519531 1181.945312 1518.378906 1167.082031 C 1478.5 1124.300781 1475.601562 1121.761719 1389.308594 1056.144531 C 1344.710938 1021.699219 1292.871094 982.179688 1274.738281 967.679688 C 1256.25 953.539062 1241.03125 942.664062 1241.03125 943.75 C 1241.03125 945.203125 1256.621094 969.492188 1275.828125 998.496094 L 1310.640625 1050.703125 L 1314.261719 1118.136719 L 1303.75 1101.824219 C 1297.589844 1092.757812 1273.660156 1056.503906 1250.449219 1020.976562 C 1227.25 985.808594 1206.949219 956.804688 1205.128906 956.804688 C 1203.679688 956.804688 1200.789062 974.933594 1198.96875 997.046875 L 1195.710938 1037.289062 L 1175.769531 1012.636719 C 1126.101562 950.277344 1043.800781 855.289062 1039.808594 855.289062 C 1037.269531 855.289062 1024.589844 866.527344 1011.890625 880.304688 C 991.957031 902.058594 986.882812 906.046875 973.101562 907.859375 L 957.152344 910.398438 L 959.6875 843.6875 L 962.226562 776.980469 L 943.375 752.324219 L 924.523438 727.308594 L 935.761719 705.195312 C 941.925781 692.503906 947.363281 674.015625 948.8125 661.328125 C 951.714844 635.222656 969.117188 542.410156 971.289062 540.230469 C 972.378906 539.148438 989.054688 554.730469 1009 574.320312 C 1028.941406 593.890625 1045.609375 609.484375 1046.699219 608.394531 C 1048.511719 606.582031 990.144531 489.109375 987.246094 489.109375 C 986.15625 489.480469 973.828125 506.878906 959.328125 528.269531 C 945.1875 549.660156 919.808594 584.101562 903.492188 604.40625 C 874.851562 639.933594 872.675781 641.746094 862.527344 639.933594 C 823.734375 632.6875 825.910156 632.324219 816.480469 647.1875 C 786.390625 696.496094 787.839844 692.140625 790.019531 717.519531 L 792.191406 741.085938 L 772.253906 752.6875 C 761.375 759.214844 750.5 764.652344 748.324219 764.652344 C 746.148438 764.652344 744.335938 758.851562 744.335938 751.960938 C 744.335938 736.738281 741.433594 736.011719 729.109375 749.0625 C 715.695312 763.203125 711.707031 775.890625 711.707031 803.808594 L 711.707031 828.460938 L 684.515625 855.289062 C 669.648438 870.15625 657.324219 885.019531 657.324219 888.28125 C 657.324219 891.542969 652.972656 903.507812 647.898438 914.746094 C 633.035156 947.015625 637.019531 949.550781 666.386719 925.984375 C 690.316406 907.132812 754.851562 860.726562 778.777344 845.863281 L 789.65625 838.972656 L 781.316406 849.851562 C 776.601562 855.652344 754.125 880.667969 730.921875 905.324219 C 689.226562 949.914062 683.789062 953.539062 631.21875 977.832031 C 630.132812 978.554688 623.242188 973.84375 615.996094 967.679688 C 608.742188 961.152344 601.128906 956.804688 599.316406 957.53125 C 597.140625 958.253906 581.550781 974.933594 564.875 994.871094 L 534.785156 1031.125 L 554.359375 1032.941406 C 565.234375 1034.027344 573.9375 1035.839844 573.9375 1037.652344 C 573.9375 1039.101562 571.398438 1049.253906 568.5 1060.128906 C 559.796875 1089.132812 561.246094 1092.035156 581.191406 1082.96875 C 602.578125 1073.183594 681.25 1027.5 695.753906 1016.261719 C 702.28125 1011.546875 722.582031 983.269531 741.070312 953.539062 L 774.789062 899.523438 L 822.28125 881.03125 C 848.027344 870.878906 871.230469 862.539062 873.039062 862.539062 C 875.214844 862.539062 900.234375 888.28125 929.238281 919.460938 C 957.878906 951.003906 995.582031 991.246094 1012.621094 1008.648438 C 1029.660156 1026.050781 1044.160156 1041.277344 1045.25 1042.726562 C 1048.148438 1045.988281 1000.660156 1021.699219 990.144531 1014.085938 C 978.179688 1005.746094 976.730469 1010.460938 987.605469 1020.613281 C 994.132812 1026.414062 1199.328125 1269.683594 1216.378906 1291.796875 C 1220.71875 1297.597656 1221.808594 1303.761719 1220.359375 1315 L 1218.191406 1329.867188 L 1203.320312 1316.089844 C 1195.351562 1308.476562 1168.878906 1285.273438 1144.949219 1264.246094 C 1121.019531 1243.578125 1069.539062 1198.984375 1030.75 1165.269531 C 991.957031 1131.191406 957.152344 1101.460938 953.886719 1098.921875 C 947.363281 1093.847656 949.175781 1092.757812 764.273438 1213.125 C 662.402344 1279.109375 670.011719 1274.394531 673.640625 1268.230469 C 680.527344 1256.992188 703.367188 1221.464844 725.484375 1187.019531 C 775.152344 1110.886719 846.210938 995.957031 844.761719 994.144531 C 843.671875 993.421875 793.640625 1025.6875 733.457031 1065.929688 L 623.96875 1139.527344 L 570.3125 1126.113281 L 516.292969 1112.699219 L 413.691406 1186.296875 C 263.59375 1293.976562 258.15625 1297.960938 241.117188 1311.378906 C 232.78125 1318.265625 225.164062 1323.339844 224.078125 1322.617188 C 223.351562 1321.527344 227.703125 1307.386719 233.503906 1290.347656 C 239.304688 1273.671875 243.65625 1258.082031 243.292969 1255.542969 C 242.566406 1252.28125 10.171875 1557.546875 0.0234375 1575.3125 C -2.515625 1579.660156 210.300781 1580.386719 1547.378906 1580.386719 C 2399.730469 1580.386719 3097.28125 1579.300781 3097.28125 1577.488281 C 3096.910156 1576.035156 3078.058594 1551.382812 3055.21875 1522.378906 C 3032.378906 1493.375 2992.859375 1443.34375 2967.480469 1411.4375 C 2916 1345.820312 2929.421875 1356.332031 2764.460938 1248.65625 C 2683.96875 1196.449219 2685.789062 1198.261719 2678.53125 1140.613281 L 2674.179688 1105.085938 L 2630.679688 1060.855469 C 2582.101562 1011.546875 2586.449219 1020.976562 2580.28125 953.902344 L 2577.75 927.074219 L 2544.75 899.882812 C 2502.699219 865.078125 2492.179688 859.640625 2476.230469 865.441406 C 2469.339844 867.976562 2453.390625 869.792969 2440.339844 869.792969 C 2412.058594 869.792969 2414.601562 872.328125 2379.789062 813.234375 C 2358.769531 777.707031 2353.328125 771.542969 2327.589844 751.960938 C 2311.628906 740 2293.871094 727.308594 2288.429688 723.683594 L 2278.28125 717.15625 L 2145.589844 783.867188 L 2104.621094 762.476562 C 2082.140625 750.875 2062.199219 739.636719 2060.75 737.460938 C 2059.300781 735.648438 2053.859375 718.246094 2048.789062 699.394531 C 2043.710938 680.539062 2032.46875 640.296875 2024.128906 609.84375 L 2008.910156 554.730469 L 1971.929688 543.128906 C 1922.980469 527.550781 1918.988281 523.921875 1918.628906 491.289062 C 1918.628906 452.5 1915.011719 440.53125 1900.140625 424.578125 C 1892.53125 416.609375 1883.46875 401.019531 1879.480469 389.78125 C 1875.488281 378.539062 1868.96875 364.761719 1864.96875 358.960938 C 1858.808594 350.261719 1857.359375 343.011719 1857.359375 317.988281 C 1857.359375 288.261719 1857 286.449219 1843.21875 265.78125 C 1835.609375 254.179688 1820.019531 235.328125 1808.410156 224.449219 C 1797.179688 213.578125 1779.769531 192.910156 1770.351562 178.769531 C 1760.558594 164.269531 1746.421875 145.421875 1738.441406 136.71875 C 1730.828125 127.660156 1720.679688 110.25 1715.96875 97.929688 C 1711.621094 85.601562 1706.539062 75.089844 1705.089844 74 C 1703.640625 73.269531 1694.941406 77.261719 1685.511719 83.058594 C 1665.570312 95.75 1665.210938 95.75 1665.210938 87.410156 C 1665.210938 83.78125 1661.21875 67.46875 1656.511719 50.789062 C 1648.171875 21.789062 1633.308594 -1.050781 1623.878906 0.0390625 C 1621.699219 0.398438 1609.019531 12.359375 1595.601562 26.5 Z M 2199.609375 778.792969 C 2205.769531 790.03125 2238.039062 883.207031 2238.039062 888.644531 C 2238.039062 892.996094 2202.871094 865.804688 2199.96875 859.277344 C 2197.789062 853.839844 2190.910156 794.019531 2190.910156 778.066406 C 2190.910156 765.378906 2193.078125 765.742188 2199.609375 778.792969 Z M 1913.191406 815.046875 C 1928.421875 834.988281 1962.859375 887.558594 1990.421875 932.148438 C 2052.769531 1033.664062 2054.230469 1035.839844 2090.480469 1068.46875 C 2126.011719 1100.734375 2126.011719 1100.734375 2123.46875 1114.511719 C 2121.660156 1123.9375 2125.640625 1131.914062 2148.851562 1166.359375 C 2163.71875 1188.835938 2174.949219 1206.964844 2173.859375 1206.964844 C 2172.78125 1206.964844 2163.71875 1200.800781 2153.199219 1193.546875 C 2070.898438 1134.453125 2059.300781 1123.9375 2082.140625 1129.011719 C 2094.109375 1131.554688 2094.828125 1130.464844 2089.03125 1119.226562 C 2083.589844 1109.4375 2087.21875 1107.261719 2098.089844 1114.511719 C 2103.171875 1117.773438 2110.058594 1119.953125 2113.679688 1119.226562 C 2120.570312 1117.773438 2118.761719 1115.597656 1938.210938 930.335938 C 1899.78125 890.820312 1868.238281 857.101562 1868.238281 854.925781 C 1868.238281 851.300781 1880.199219 856.375 1889.988281 864.355469 C 1892.890625 866.527344 1904.859375 874.140625 1916.460938 880.667969 L 1937.480469 892.269531 L 1910.289062 837.523438 C 1873.308594 764.289062 1873.679688 762.839844 1913.191406 815.046875 Z M 2087.941406 898.796875 C 2219.550781 1011.183594 2318.519531 1098.558594 2316.710938 1100.734375 C 2315.980469 1101.460938 2299.308594 1095.296875 2279.371094 1087.320312 C 2214.109375 1060.492188 2182.570312 1050.34375 2185.109375 1056.503906 C 2186.191406 1059.765625 2201.058594 1082.246094 2217.730469 1106.898438 C 2242.019531 1142.066406 2259.429688 1161.644531 2301.121094 1201.886719 C 2351.878906 1250.105469 2354.050781 1253.007812 2354.050781 1266.78125 C 2354.410156 1274.757812 2357.320312 1304.125 2360.941406 1332.039062 C 2364.929688 1359.957031 2367.46875 1383.160156 2366.738281 1383.886719 C 2366.019531 1384.972656 2257.621094 1221.101562 2210.121094 1147.140625 C 2172.410156 1088.046875 2160.449219 1067.746094 2114.769531 983.992188 C 2095.921875 949.914062 2073.800781 910.398438 2065.101562 895.894531 C 2056.398438 881.03125 2050.960938 869.792969 2052.769531 870.519531 C 2054.589844 870.878906 2070.539062 883.929688 2087.941406 898.796875 Z M 2583.179688 1075.71875 C 2595.148438 1093.121094 2594.421875 1097.835938 2580.640625 1091.671875 C 2575.570312 1089.496094 2571.578125 1088.40625 2571.578125 1089.859375 C 2571.578125 1093.121094 2651.710938 1202.972656 2716.238281 1288.535156 C 2748.140625 1330.226562 2773.519531 1365.394531 2772.800781 1366.121094 C 2771.710938 1366.84375 2763.371094 1361.40625 2754.308594 1353.429688 C 2744.878906 1345.820312 2727.839844 1332.765625 2716.601562 1324.425781 C 2697.019531 1309.925781 2600.589844 1209.5 2600.589844 1203.335938 C 2600.589844 1201.886719 2603.121094 1199.710938 2606.019531 1198.261719 C 2615.808594 1194.636719 2611.820312 1184.121094 2583.179688 1136.265625 C 2567.589844 1110.160156 2550.910156 1080.070312 2546.570312 1069.191406 C 2541.859375 1058.316406 2533.148438 1039.464844 2527.710938 1027.863281 C 2521.910156 1015.898438 2517.199219 1005.382812 2517.199219 1004.296875 C 2517.558594 1000.671875 2571.949219 1059.765625 2583.179688 1075.71875 Z M 2397.558594 1068.46875 C 2432.359375 1097.109375 2464.628906 1124.664062 2468.621094 1129.011719 C 2473.691406 1134.453125 2477.320312 1144.964844 2479.128906 1158.378906 C 2480.578125 1169.980469 2483.851562 1190.285156 2486.75 1203.335938 C 2493.269531 1234.878906 2493.269531 1239.953125 2485.289062 1227.988281 C 2482.03125 1222.550781 2447.230469 1176.144531 2408.070312 1124.664062 C 2330.851562 1022.785156 2319.96875 1007.921875 2328.671875 1012.996094 C 2331.570312 1014.8125 2362.75 1039.828125 2397.558594 1068.46875 Z M 2397.558594 1068.46875 "/>
<path fill-rule="nonzero" fill="currentColor" fill-opacity="1" d="M 1557.890625 382.160156 C 1576.75 398.839844 1625.328125 432.191406 1625.328125 428.570312 C 1625.328125 425.308594 1580.730469 386.871094 1563.691406 375.640625 C 1547.378906 364.398438 1543.03125 369.109375 1557.890625 382.160156 Z M 1557.890625 382.160156 "/>
<path fill-rule="nonzero" fill="currentColor" fill-opacity="1" d="M 1404.179688 566.699219 C 1404.179688 569.238281 1405.628906 576.121094 1407.800781 581.925781 C 1409.609375 587.726562 1412.878906 599.691406 1415.050781 608.394531 C 1419.761719 626.523438 1425.929688 623.257812 1425.929688 602.230469 C 1425.929688 596.066406 1427.019531 590.628906 1428.828125 590.628906 C 1430.28125 590.628906 1445.140625 598.242188 1461.820312 606.941406 C 1478.5 616.007812 1493 622.53125 1494.089844 621.808594 C 1494.808594 620.722656 1487.921875 610.207031 1478.859375 598.605469 C 1462.910156 578.660156 1460.011719 576.488281 1435.710938 569.238281 C 1404.898438 560.179688 1404.179688 560.179688 1404.179688 566.699219 Z M 1404.179688 566.699219 "/>
<path fill-rule="nonzero" fill="currentColor" fill-opacity="1" d="M 1040.179688 687.429688 C 1041.628906 693.230469 1046.339844 708.097656 1051.058594 721.144531 C 1055.769531 733.835938 1058.660156 745.074219 1057.941406 745.800781 C 1057.210938 746.523438 1049.238281 744.710938 1040.179688 741.8125 C 1031.46875 738.910156 1023.140625 737.101562 1022.410156 738.1875 C 1021.320312 738.910156 1023.859375 747.613281 1027.851562 757.039062 C 1034.738281 774.078125 1035.101562 774.441406 1073.171875 789.308594 C 1094.558594 797.644531 1112.320312 803.808594 1113.050781 803.082031 C 1115.589844 800.910156 1078.96875 730.210938 1061.570312 703.019531 C 1044.53125 676.550781 1036.191406 670.390625 1040.179688 687.429688 Z M 1040.179688 687.429688 "/>
<path fill-rule="nonzero" fill="currentColor" fill-opacity="1" d="M 1477.769531 761.75 C 1478.859375 765.015625 1495.171875 787.855469 1513.660156 812.511719 C 1532.519531 836.800781 1569.859375 886.46875 1597.050781 922.363281 C 1641.28125 980.734375 1649.980469 990.519531 1679.710938 1012.636719 C 1697.839844 1026.050781 1713.429688 1036.5625 1714.148438 1035.839844 C 1715.601562 1034.386719 1685.878906 960.789062 1664.851562 913.296875 C 1650.710938 882.121094 1621.339844 827.734375 1612.640625 817.222656 C 1607.199219 810.332031 1606.839844 810.695312 1609.019531 824.472656 C 1610.460938 832.449219 1612.28125 843.6875 1613.371094 849.488281 C 1615.539062 859.640625 1615.179688 859.640625 1608.648438 854.925781 C 1604.660156 852.027344 1575.660156 830.273438 1543.761719 805.984375 C 1475.960938 755.226562 1474.511719 754.140625 1477.769531 761.75 Z M 1477.769531 761.75 "/>
<path fill-rule="nonzero" fill="currentColor" fill-opacity="1" d="M 1148.210938 859.640625 C 1150.390625 878.492188 1150.03125 878.855469 1138.789062 873.054688 C 1126.820312 866.527344 1127.191406 871.964844 1140.960938 896.621094 C 1152.570312 917.285156 1155.828125 920.546875 1171.058594 925.625 C 1180.121094 928.886719 1190.269531 931.425781 1193.171875 931.425781 C 1198.609375 931.425781 1161.988281 858.191406 1151.480469 848.039062 C 1146.398438 843.324219 1146.039062 844.414062 1148.210938 859.640625 Z M 1148.210938 859.640625 "/>
<path fill-rule="nonzero" fill="currentColor" fill-opacity="1" d="M 494.179688 943.386719 C 488.015625 947.738281 462.996094 975.65625 437.980469 1005.382812 C 392.664062 1060.128906 385.773438 1072.09375 374.535156 1116.324219 C 372.363281 1125.390625 364.746094 1140.613281 357.859375 1150.765625 C 345.167969 1169.257812 325.957031 1214.210938 329.214844 1217.113281 C 334.292969 1222.550781 364.019531 1189.921875 412.96875 1124.300781 C 443.058594 1084.421875 485.835938 1031.488281 508.316406 1006.835938 C 530.429688 982.542969 548.558594 960.429688 548.558594 957.890625 C 548.558594 952.816406 540.222656 947.738281 519.554688 940.488281 C 506.503906 935.773438 504.691406 936.136719 494.179688 943.386719 Z M 494.179688 943.386719 "/>
</svg>
